%TF.GenerationSoftware,KiCad,Pcbnew,(5.1.10)-1*%
%TF.CreationDate,2021-10-19T17:14:30+03:00*%
%TF.ProjectId,msp,6d73702e-6b69-4636-9164-5f7063625858,rev?*%
%TF.SameCoordinates,Original*%
%TF.FileFunction,Paste,Top*%
%TF.FilePolarity,Positive*%
%FSLAX46Y46*%
G04 Gerber Fmt 4.6, Leading zero omitted, Abs format (unit mm)*
G04 Created by KiCad (PCBNEW (5.1.10)-1) date 2021-10-19 17:14:30*
%MOMM*%
%LPD*%
G01*
G04 APERTURE LIST*
%ADD10R,2.000000X3.800000*%
%ADD11R,2.000000X1.500000*%
%ADD12R,1.300000X1.550000*%
%ADD13R,1.400000X1.200000*%
G04 APERTURE END LIST*
%TO.C,C1*%
G36*
G01*
X100573820Y-82428500D02*
X101523820Y-82428500D01*
G75*
G02*
X101773820Y-82678500I0J-250000D01*
G01*
X101773820Y-83178500D01*
G75*
G02*
X101523820Y-83428500I-250000J0D01*
G01*
X100573820Y-83428500D01*
G75*
G02*
X100323820Y-83178500I0J250000D01*
G01*
X100323820Y-82678500D01*
G75*
G02*
X100573820Y-82428500I250000J0D01*
G01*
G37*
G36*
G01*
X100573820Y-80528500D02*
X101523820Y-80528500D01*
G75*
G02*
X101773820Y-80778500I0J-250000D01*
G01*
X101773820Y-81278500D01*
G75*
G02*
X101523820Y-81528500I-250000J0D01*
G01*
X100573820Y-81528500D01*
G75*
G02*
X100323820Y-81278500I0J250000D01*
G01*
X100323820Y-80778500D01*
G75*
G02*
X100573820Y-80528500I250000J0D01*
G01*
G37*
%TD*%
%TO.C,C2*%
G36*
G01*
X92219800Y-83288800D02*
X91269800Y-83288800D01*
G75*
G02*
X91019800Y-83038800I0J250000D01*
G01*
X91019800Y-82538800D01*
G75*
G02*
X91269800Y-82288800I250000J0D01*
G01*
X92219800Y-82288800D01*
G75*
G02*
X92469800Y-82538800I0J-250000D01*
G01*
X92469800Y-83038800D01*
G75*
G02*
X92219800Y-83288800I-250000J0D01*
G01*
G37*
G36*
G01*
X92219800Y-81388800D02*
X91269800Y-81388800D01*
G75*
G02*
X91019800Y-81138800I0J250000D01*
G01*
X91019800Y-80638800D01*
G75*
G02*
X91269800Y-80388800I250000J0D01*
G01*
X92219800Y-80388800D01*
G75*
G02*
X92469800Y-80638800I0J-250000D01*
G01*
X92469800Y-81138800D01*
G75*
G02*
X92219800Y-81388800I-250000J0D01*
G01*
G37*
%TD*%
%TO.C,C3*%
G36*
G01*
X91125020Y-84871900D02*
X92075020Y-84871900D01*
G75*
G02*
X92325020Y-85121900I0J-250000D01*
G01*
X92325020Y-85621900D01*
G75*
G02*
X92075020Y-85871900I-250000J0D01*
G01*
X91125020Y-85871900D01*
G75*
G02*
X90875020Y-85621900I0J250000D01*
G01*
X90875020Y-85121900D01*
G75*
G02*
X91125020Y-84871900I250000J0D01*
G01*
G37*
G36*
G01*
X91125020Y-86771900D02*
X92075020Y-86771900D01*
G75*
G02*
X92325020Y-87021900I0J-250000D01*
G01*
X92325020Y-87521900D01*
G75*
G02*
X92075020Y-87771900I-250000J0D01*
G01*
X91125020Y-87771900D01*
G75*
G02*
X90875020Y-87521900I0J250000D01*
G01*
X90875020Y-87021900D01*
G75*
G02*
X91125020Y-86771900I250000J0D01*
G01*
G37*
%TD*%
%TO.C,C4*%
G36*
G01*
X99575200Y-102689640D02*
X99575200Y-103639640D01*
G75*
G02*
X99325200Y-103889640I-250000J0D01*
G01*
X98825200Y-103889640D01*
G75*
G02*
X98575200Y-103639640I0J250000D01*
G01*
X98575200Y-102689640D01*
G75*
G02*
X98825200Y-102439640I250000J0D01*
G01*
X99325200Y-102439640D01*
G75*
G02*
X99575200Y-102689640I0J-250000D01*
G01*
G37*
G36*
G01*
X101475200Y-102689640D02*
X101475200Y-103639640D01*
G75*
G02*
X101225200Y-103889640I-250000J0D01*
G01*
X100725200Y-103889640D01*
G75*
G02*
X100475200Y-103639640I0J250000D01*
G01*
X100475200Y-102689640D01*
G75*
G02*
X100725200Y-102439640I250000J0D01*
G01*
X101225200Y-102439640D01*
G75*
G02*
X101475200Y-102689640I0J-250000D01*
G01*
G37*
%TD*%
%TO.C,C5*%
G36*
G01*
X103263720Y-108472900D02*
X102313720Y-108472900D01*
G75*
G02*
X102063720Y-108222900I0J250000D01*
G01*
X102063720Y-107722900D01*
G75*
G02*
X102313720Y-107472900I250000J0D01*
G01*
X103263720Y-107472900D01*
G75*
G02*
X103513720Y-107722900I0J-250000D01*
G01*
X103513720Y-108222900D01*
G75*
G02*
X103263720Y-108472900I-250000J0D01*
G01*
G37*
G36*
G01*
X103263720Y-106572900D02*
X102313720Y-106572900D01*
G75*
G02*
X102063720Y-106322900I0J250000D01*
G01*
X102063720Y-105822900D01*
G75*
G02*
X102313720Y-105572900I250000J0D01*
G01*
X103263720Y-105572900D01*
G75*
G02*
X103513720Y-105822900I0J-250000D01*
G01*
X103513720Y-106322900D01*
G75*
G02*
X103263720Y-106572900I-250000J0D01*
G01*
G37*
%TD*%
%TO.C,R1*%
G36*
G01*
X98189202Y-87683400D02*
X97289198Y-87683400D01*
G75*
G02*
X97039200Y-87433402I0J249998D01*
G01*
X97039200Y-86908398D01*
G75*
G02*
X97289198Y-86658400I249998J0D01*
G01*
X98189202Y-86658400D01*
G75*
G02*
X98439200Y-86908398I0J-249998D01*
G01*
X98439200Y-87433402D01*
G75*
G02*
X98189202Y-87683400I-249998J0D01*
G01*
G37*
G36*
G01*
X98189202Y-85858400D02*
X97289198Y-85858400D01*
G75*
G02*
X97039200Y-85608402I0J249998D01*
G01*
X97039200Y-85083398D01*
G75*
G02*
X97289198Y-84833400I249998J0D01*
G01*
X98189202Y-84833400D01*
G75*
G02*
X98439200Y-85083398I0J-249998D01*
G01*
X98439200Y-85608402D01*
G75*
G02*
X98189202Y-85858400I-249998J0D01*
G01*
G37*
%TD*%
%TO.C,R2*%
G36*
G01*
X95293602Y-85909200D02*
X94393598Y-85909200D01*
G75*
G02*
X94143600Y-85659202I0J249998D01*
G01*
X94143600Y-85134198D01*
G75*
G02*
X94393598Y-84884200I249998J0D01*
G01*
X95293602Y-84884200D01*
G75*
G02*
X95543600Y-85134198I0J-249998D01*
G01*
X95543600Y-85659202D01*
G75*
G02*
X95293602Y-85909200I-249998J0D01*
G01*
G37*
G36*
G01*
X95293602Y-87734200D02*
X94393598Y-87734200D01*
G75*
G02*
X94143600Y-87484202I0J249998D01*
G01*
X94143600Y-86959198D01*
G75*
G02*
X94393598Y-86709200I249998J0D01*
G01*
X95293602Y-86709200D01*
G75*
G02*
X95543600Y-86959198I0J-249998D01*
G01*
X95543600Y-87484202D01*
G75*
G02*
X95293602Y-87734200I-249998J0D01*
G01*
G37*
%TD*%
%TO.C,R3*%
G36*
G01*
X102944980Y-109796158D02*
X102944980Y-110696162D01*
G75*
G02*
X102694982Y-110946160I-249998J0D01*
G01*
X102169978Y-110946160D01*
G75*
G02*
X101919980Y-110696162I0J249998D01*
G01*
X101919980Y-109796158D01*
G75*
G02*
X102169978Y-109546160I249998J0D01*
G01*
X102694982Y-109546160D01*
G75*
G02*
X102944980Y-109796158I0J-249998D01*
G01*
G37*
G36*
G01*
X104769980Y-109796158D02*
X104769980Y-110696162D01*
G75*
G02*
X104519982Y-110946160I-249998J0D01*
G01*
X103994978Y-110946160D01*
G75*
G02*
X103744980Y-110696162I0J249998D01*
G01*
X103744980Y-109796158D01*
G75*
G02*
X103994978Y-109546160I249998J0D01*
G01*
X104519982Y-109546160D01*
G75*
G02*
X104769980Y-109796158I0J-249998D01*
G01*
G37*
%TD*%
%TO.C,R4*%
G36*
G01*
X98546860Y-98295882D02*
X98546860Y-97395878D01*
G75*
G02*
X98796858Y-97145880I249998J0D01*
G01*
X99321862Y-97145880D01*
G75*
G02*
X99571860Y-97395878I0J-249998D01*
G01*
X99571860Y-98295882D01*
G75*
G02*
X99321862Y-98545880I-249998J0D01*
G01*
X98796858Y-98545880D01*
G75*
G02*
X98546860Y-98295882I0J249998D01*
G01*
G37*
G36*
G01*
X100371860Y-98295882D02*
X100371860Y-97395878D01*
G75*
G02*
X100621858Y-97145880I249998J0D01*
G01*
X101146862Y-97145880D01*
G75*
G02*
X101396860Y-97395878I0J-249998D01*
G01*
X101396860Y-98295882D01*
G75*
G02*
X101146862Y-98545880I-249998J0D01*
G01*
X100621858Y-98545880D01*
G75*
G02*
X100371860Y-98295882I0J249998D01*
G01*
G37*
%TD*%
%TO.C,R5*%
G36*
G01*
X94579500Y-97472078D02*
X94579500Y-98372082D01*
G75*
G02*
X94329502Y-98622080I-249998J0D01*
G01*
X93804498Y-98622080D01*
G75*
G02*
X93554500Y-98372082I0J249998D01*
G01*
X93554500Y-97472078D01*
G75*
G02*
X93804498Y-97222080I249998J0D01*
G01*
X94329502Y-97222080D01*
G75*
G02*
X94579500Y-97472078I0J-249998D01*
G01*
G37*
G36*
G01*
X92754500Y-97472078D02*
X92754500Y-98372082D01*
G75*
G02*
X92504502Y-98622080I-249998J0D01*
G01*
X91979498Y-98622080D01*
G75*
G02*
X91729500Y-98372082I0J249998D01*
G01*
X91729500Y-97472078D01*
G75*
G02*
X91979498Y-97222080I249998J0D01*
G01*
X92504502Y-97222080D01*
G75*
G02*
X92754500Y-97472078I0J-249998D01*
G01*
G37*
%TD*%
D10*
%TO.C,U2*%
X93786560Y-107916980D03*
D11*
X100086560Y-107916980D03*
X100086560Y-105616980D03*
X100086560Y-110216980D03*
%TD*%
%TO.C,D1*%
G36*
G01*
X105696070Y-114381340D02*
X104783570Y-114381340D01*
G75*
G02*
X104539820Y-114137590I0J243750D01*
G01*
X104539820Y-113650090D01*
G75*
G02*
X104783570Y-113406340I243750J0D01*
G01*
X105696070Y-113406340D01*
G75*
G02*
X105939820Y-113650090I0J-243750D01*
G01*
X105939820Y-114137590D01*
G75*
G02*
X105696070Y-114381340I-243750J0D01*
G01*
G37*
G36*
G01*
X105696070Y-112506340D02*
X104783570Y-112506340D01*
G75*
G02*
X104539820Y-112262590I0J243750D01*
G01*
X104539820Y-111775090D01*
G75*
G02*
X104783570Y-111531340I243750J0D01*
G01*
X105696070Y-111531340D01*
G75*
G02*
X105939820Y-111775090I0J-243750D01*
G01*
X105939820Y-112262590D01*
G75*
G02*
X105696070Y-112506340I-243750J0D01*
G01*
G37*
%TD*%
%TO.C,D2*%
G36*
G01*
X93744200Y-100984370D02*
X93744200Y-100071870D01*
G75*
G02*
X93987950Y-99828120I243750J0D01*
G01*
X94475450Y-99828120D01*
G75*
G02*
X94719200Y-100071870I0J-243750D01*
G01*
X94719200Y-100984370D01*
G75*
G02*
X94475450Y-101228120I-243750J0D01*
G01*
X93987950Y-101228120D01*
G75*
G02*
X93744200Y-100984370I0J243750D01*
G01*
G37*
G36*
G01*
X91869200Y-100984370D02*
X91869200Y-100071870D01*
G75*
G02*
X92112950Y-99828120I243750J0D01*
G01*
X92600450Y-99828120D01*
G75*
G02*
X92844200Y-100071870I0J-243750D01*
G01*
X92844200Y-100984370D01*
G75*
G02*
X92600450Y-101228120I-243750J0D01*
G01*
X92112950Y-101228120D01*
G75*
G02*
X91869200Y-100984370I0J243750D01*
G01*
G37*
%TD*%
%TO.C,C6*%
G36*
G01*
X98615840Y-100977720D02*
X98615840Y-100027720D01*
G75*
G02*
X98865840Y-99777720I250000J0D01*
G01*
X99365840Y-99777720D01*
G75*
G02*
X99615840Y-100027720I0J-250000D01*
G01*
X99615840Y-100977720D01*
G75*
G02*
X99365840Y-101227720I-250000J0D01*
G01*
X98865840Y-101227720D01*
G75*
G02*
X98615840Y-100977720I0J250000D01*
G01*
G37*
G36*
G01*
X100515840Y-100977720D02*
X100515840Y-100027720D01*
G75*
G02*
X100765840Y-99777720I250000J0D01*
G01*
X101265840Y-99777720D01*
G75*
G02*
X101515840Y-100027720I0J-250000D01*
G01*
X101515840Y-100977720D01*
G75*
G02*
X101265840Y-101227720I-250000J0D01*
G01*
X100765840Y-101227720D01*
G75*
G02*
X100515840Y-100977720I0J250000D01*
G01*
G37*
%TD*%
D12*
%TO.C,SW1*%
X91378600Y-115663880D03*
X86878600Y-115663880D03*
X86878600Y-107713880D03*
X91378600Y-107713880D03*
%TD*%
D13*
%TO.C,Y1*%
X97317740Y-80971020D03*
X95117740Y-80971020D03*
X95117740Y-82671020D03*
X97317740Y-82671020D03*
%TD*%
%TO.C,U1*%
G36*
G01*
X92650000Y-89925000D02*
X92650000Y-89725000D01*
G75*
G02*
X92750000Y-89625000I100000J0D01*
G01*
X94025000Y-89625000D01*
G75*
G02*
X94125000Y-89725000I0J-100000D01*
G01*
X94125000Y-89925000D01*
G75*
G02*
X94025000Y-90025000I-100000J0D01*
G01*
X92750000Y-90025000D01*
G75*
G02*
X92650000Y-89925000I0J100000D01*
G01*
G37*
G36*
G01*
X92650000Y-90575000D02*
X92650000Y-90375000D01*
G75*
G02*
X92750000Y-90275000I100000J0D01*
G01*
X94025000Y-90275000D01*
G75*
G02*
X94125000Y-90375000I0J-100000D01*
G01*
X94125000Y-90575000D01*
G75*
G02*
X94025000Y-90675000I-100000J0D01*
G01*
X92750000Y-90675000D01*
G75*
G02*
X92650000Y-90575000I0J100000D01*
G01*
G37*
G36*
G01*
X92650000Y-91225000D02*
X92650000Y-91025000D01*
G75*
G02*
X92750000Y-90925000I100000J0D01*
G01*
X94025000Y-90925000D01*
G75*
G02*
X94125000Y-91025000I0J-100000D01*
G01*
X94125000Y-91225000D01*
G75*
G02*
X94025000Y-91325000I-100000J0D01*
G01*
X92750000Y-91325000D01*
G75*
G02*
X92650000Y-91225000I0J100000D01*
G01*
G37*
G36*
G01*
X92650000Y-91875000D02*
X92650000Y-91675000D01*
G75*
G02*
X92750000Y-91575000I100000J0D01*
G01*
X94025000Y-91575000D01*
G75*
G02*
X94125000Y-91675000I0J-100000D01*
G01*
X94125000Y-91875000D01*
G75*
G02*
X94025000Y-91975000I-100000J0D01*
G01*
X92750000Y-91975000D01*
G75*
G02*
X92650000Y-91875000I0J100000D01*
G01*
G37*
G36*
G01*
X92650000Y-92525000D02*
X92650000Y-92325000D01*
G75*
G02*
X92750000Y-92225000I100000J0D01*
G01*
X94025000Y-92225000D01*
G75*
G02*
X94125000Y-92325000I0J-100000D01*
G01*
X94125000Y-92525000D01*
G75*
G02*
X94025000Y-92625000I-100000J0D01*
G01*
X92750000Y-92625000D01*
G75*
G02*
X92650000Y-92525000I0J100000D01*
G01*
G37*
G36*
G01*
X92650000Y-93175000D02*
X92650000Y-92975000D01*
G75*
G02*
X92750000Y-92875000I100000J0D01*
G01*
X94025000Y-92875000D01*
G75*
G02*
X94125000Y-92975000I0J-100000D01*
G01*
X94125000Y-93175000D01*
G75*
G02*
X94025000Y-93275000I-100000J0D01*
G01*
X92750000Y-93275000D01*
G75*
G02*
X92650000Y-93175000I0J100000D01*
G01*
G37*
G36*
G01*
X92650000Y-93825000D02*
X92650000Y-93625000D01*
G75*
G02*
X92750000Y-93525000I100000J0D01*
G01*
X94025000Y-93525000D01*
G75*
G02*
X94125000Y-93625000I0J-100000D01*
G01*
X94125000Y-93825000D01*
G75*
G02*
X94025000Y-93925000I-100000J0D01*
G01*
X92750000Y-93925000D01*
G75*
G02*
X92650000Y-93825000I0J100000D01*
G01*
G37*
G36*
G01*
X92650000Y-94475000D02*
X92650000Y-94275000D01*
G75*
G02*
X92750000Y-94175000I100000J0D01*
G01*
X94025000Y-94175000D01*
G75*
G02*
X94125000Y-94275000I0J-100000D01*
G01*
X94125000Y-94475000D01*
G75*
G02*
X94025000Y-94575000I-100000J0D01*
G01*
X92750000Y-94575000D01*
G75*
G02*
X92650000Y-94475000I0J100000D01*
G01*
G37*
G36*
G01*
X92650000Y-95125000D02*
X92650000Y-94925000D01*
G75*
G02*
X92750000Y-94825000I100000J0D01*
G01*
X94025000Y-94825000D01*
G75*
G02*
X94125000Y-94925000I0J-100000D01*
G01*
X94125000Y-95125000D01*
G75*
G02*
X94025000Y-95225000I-100000J0D01*
G01*
X92750000Y-95225000D01*
G75*
G02*
X92650000Y-95125000I0J100000D01*
G01*
G37*
G36*
G01*
X92650000Y-95775000D02*
X92650000Y-95575000D01*
G75*
G02*
X92750000Y-95475000I100000J0D01*
G01*
X94025000Y-95475000D01*
G75*
G02*
X94125000Y-95575000I0J-100000D01*
G01*
X94125000Y-95775000D01*
G75*
G02*
X94025000Y-95875000I-100000J0D01*
G01*
X92750000Y-95875000D01*
G75*
G02*
X92650000Y-95775000I0J100000D01*
G01*
G37*
G36*
G01*
X98375000Y-95775000D02*
X98375000Y-95575000D01*
G75*
G02*
X98475000Y-95475000I100000J0D01*
G01*
X99750000Y-95475000D01*
G75*
G02*
X99850000Y-95575000I0J-100000D01*
G01*
X99850000Y-95775000D01*
G75*
G02*
X99750000Y-95875000I-100000J0D01*
G01*
X98475000Y-95875000D01*
G75*
G02*
X98375000Y-95775000I0J100000D01*
G01*
G37*
G36*
G01*
X98375000Y-95125000D02*
X98375000Y-94925000D01*
G75*
G02*
X98475000Y-94825000I100000J0D01*
G01*
X99750000Y-94825000D01*
G75*
G02*
X99850000Y-94925000I0J-100000D01*
G01*
X99850000Y-95125000D01*
G75*
G02*
X99750000Y-95225000I-100000J0D01*
G01*
X98475000Y-95225000D01*
G75*
G02*
X98375000Y-95125000I0J100000D01*
G01*
G37*
G36*
G01*
X98375000Y-94475000D02*
X98375000Y-94275000D01*
G75*
G02*
X98475000Y-94175000I100000J0D01*
G01*
X99750000Y-94175000D01*
G75*
G02*
X99850000Y-94275000I0J-100000D01*
G01*
X99850000Y-94475000D01*
G75*
G02*
X99750000Y-94575000I-100000J0D01*
G01*
X98475000Y-94575000D01*
G75*
G02*
X98375000Y-94475000I0J100000D01*
G01*
G37*
G36*
G01*
X98375000Y-93825000D02*
X98375000Y-93625000D01*
G75*
G02*
X98475000Y-93525000I100000J0D01*
G01*
X99750000Y-93525000D01*
G75*
G02*
X99850000Y-93625000I0J-100000D01*
G01*
X99850000Y-93825000D01*
G75*
G02*
X99750000Y-93925000I-100000J0D01*
G01*
X98475000Y-93925000D01*
G75*
G02*
X98375000Y-93825000I0J100000D01*
G01*
G37*
G36*
G01*
X98375000Y-93175000D02*
X98375000Y-92975000D01*
G75*
G02*
X98475000Y-92875000I100000J0D01*
G01*
X99750000Y-92875000D01*
G75*
G02*
X99850000Y-92975000I0J-100000D01*
G01*
X99850000Y-93175000D01*
G75*
G02*
X99750000Y-93275000I-100000J0D01*
G01*
X98475000Y-93275000D01*
G75*
G02*
X98375000Y-93175000I0J100000D01*
G01*
G37*
G36*
G01*
X98375000Y-92525000D02*
X98375000Y-92325000D01*
G75*
G02*
X98475000Y-92225000I100000J0D01*
G01*
X99750000Y-92225000D01*
G75*
G02*
X99850000Y-92325000I0J-100000D01*
G01*
X99850000Y-92525000D01*
G75*
G02*
X99750000Y-92625000I-100000J0D01*
G01*
X98475000Y-92625000D01*
G75*
G02*
X98375000Y-92525000I0J100000D01*
G01*
G37*
G36*
G01*
X98375000Y-91875000D02*
X98375000Y-91675000D01*
G75*
G02*
X98475000Y-91575000I100000J0D01*
G01*
X99750000Y-91575000D01*
G75*
G02*
X99850000Y-91675000I0J-100000D01*
G01*
X99850000Y-91875000D01*
G75*
G02*
X99750000Y-91975000I-100000J0D01*
G01*
X98475000Y-91975000D01*
G75*
G02*
X98375000Y-91875000I0J100000D01*
G01*
G37*
G36*
G01*
X98375000Y-91225000D02*
X98375000Y-91025000D01*
G75*
G02*
X98475000Y-90925000I100000J0D01*
G01*
X99750000Y-90925000D01*
G75*
G02*
X99850000Y-91025000I0J-100000D01*
G01*
X99850000Y-91225000D01*
G75*
G02*
X99750000Y-91325000I-100000J0D01*
G01*
X98475000Y-91325000D01*
G75*
G02*
X98375000Y-91225000I0J100000D01*
G01*
G37*
G36*
G01*
X98375000Y-90575000D02*
X98375000Y-90375000D01*
G75*
G02*
X98475000Y-90275000I100000J0D01*
G01*
X99750000Y-90275000D01*
G75*
G02*
X99850000Y-90375000I0J-100000D01*
G01*
X99850000Y-90575000D01*
G75*
G02*
X99750000Y-90675000I-100000J0D01*
G01*
X98475000Y-90675000D01*
G75*
G02*
X98375000Y-90575000I0J100000D01*
G01*
G37*
G36*
G01*
X98375000Y-89925000D02*
X98375000Y-89725000D01*
G75*
G02*
X98475000Y-89625000I100000J0D01*
G01*
X99750000Y-89625000D01*
G75*
G02*
X99850000Y-89725000I0J-100000D01*
G01*
X99850000Y-89925000D01*
G75*
G02*
X99750000Y-90025000I-100000J0D01*
G01*
X98475000Y-90025000D01*
G75*
G02*
X98375000Y-89925000I0J100000D01*
G01*
G37*
%TD*%
M02*
