M48
; DRILL file {KiCad (5.1.10)-1} date 10/19/21 17:14:24
; FORMAT={-:-/ absolute / metric / decimal}
; #@! TF.CreationDate,2021-10-19T17:14:24+03:00
; #@! TF.GenerationSoftware,Kicad,Pcbnew,(5.1.10)-1
; #@! TF.FileFunction,Plated,1,2,PTH
FMAT,2
METRIC
T1C0.400
T2C1.000
%
G90
G05
T1
X88.816Y-85.951
X89.098Y-93.899
X89.177Y-111.638
X89.367Y-90.49
X89.388Y-96.413
X89.601Y-80.0
X89.632Y-98.524
X90.0Y-95.481
X90.957Y-103.365
X91.056Y-95.987
X92.212Y-96.558
X92.768Y-112.834
X93.071Y-84.171
X93.124Y-88.433
X93.233Y-86.586
X95.288Y-102.238
X95.682Y-110.708
X95.763Y-105.247
X96.253Y-84.082
X96.556Y-98.59
X96.685Y-90.668
X96.846Y-108.0
X96.995Y-94.6
X97.401Y-93.208
X97.419Y-101.785
X97.424Y-91.585
X99.355Y-84.244
X99.451Y-87.432
X99.461Y-86.246
X100.206Y-88.618
X100.874Y-89.502
X100.889Y-112.712
X101.006Y-92.248
X101.006Y-96.459
X101.204Y-85.509
X102.298Y-103.172
X102.5Y-80.0
X102.555Y-100.988
X102.979Y-83.198
X102.989Y-104.049
X103.25Y-85.25
X103.337Y-96.464
X103.431Y-86.322
X105.588Y-108.311
T2
X87.0Y-82.0
X87.0Y-84.54
X87.0Y-87.08
X87.0Y-89.62
X87.0Y-92.16
X87.0Y-94.7
X87.0Y-97.24
X87.0Y-99.78
X87.0Y-102.32
X87.0Y-104.86
X94.76Y-115.672
X97.3Y-115.672
X99.84Y-115.672
X102.38Y-115.672
X105.0Y-82.0
X105.0Y-84.54
X105.0Y-87.08
X105.0Y-89.62
X105.0Y-92.16
X105.0Y-94.7
X105.0Y-97.24
X105.0Y-99.78
X105.0Y-102.32
X105.0Y-104.86
T0
M30
