%TF.GenerationSoftware,KiCad,Pcbnew,(5.1.10)-1*%
%TF.CreationDate,2021-10-19T17:14:30+03:00*%
%TF.ProjectId,msp,6d73702e-6b69-4636-9164-5f7063625858,rev?*%
%TF.SameCoordinates,Original*%
%TF.FileFunction,Copper,L1,Top*%
%TF.FilePolarity,Positive*%
%FSLAX46Y46*%
G04 Gerber Fmt 4.6, Leading zero omitted, Abs format (unit mm)*
G04 Created by KiCad (PCBNEW (5.1.10)-1) date 2021-10-19 17:14:30*
%MOMM*%
%LPD*%
G01*
G04 APERTURE LIST*
%TA.AperFunction,ComponentPad*%
%ADD10R,1.700000X1.700000*%
%TD*%
%TA.AperFunction,ComponentPad*%
%ADD11O,1.700000X1.700000*%
%TD*%
%TA.AperFunction,SMDPad,CuDef*%
%ADD12R,2.000000X3.800000*%
%TD*%
%TA.AperFunction,SMDPad,CuDef*%
%ADD13R,2.000000X1.500000*%
%TD*%
%TA.AperFunction,SMDPad,CuDef*%
%ADD14R,1.300000X1.550000*%
%TD*%
%TA.AperFunction,SMDPad,CuDef*%
%ADD15R,1.400000X1.200000*%
%TD*%
%TA.AperFunction,ViaPad*%
%ADD16C,0.800000*%
%TD*%
%TA.AperFunction,Conductor*%
%ADD17C,0.250000*%
%TD*%
%TA.AperFunction,Conductor*%
%ADD18C,0.254000*%
%TD*%
%TA.AperFunction,Conductor*%
%ADD19C,0.100000*%
%TD*%
G04 APERTURE END LIST*
%TO.P,C1,2*%
%TO.N,GND*%
%TA.AperFunction,SMDPad,CuDef*%
G36*
G01*
X100573820Y-82428500D02*
X101523820Y-82428500D01*
G75*
G02*
X101773820Y-82678500I0J-250000D01*
G01*
X101773820Y-83178500D01*
G75*
G02*
X101523820Y-83428500I-250000J0D01*
G01*
X100573820Y-83428500D01*
G75*
G02*
X100323820Y-83178500I0J250000D01*
G01*
X100323820Y-82678500D01*
G75*
G02*
X100573820Y-82428500I250000J0D01*
G01*
G37*
%TD.AperFunction*%
%TO.P,C1,1*%
%TO.N,Net-(C1-Pad1)*%
%TA.AperFunction,SMDPad,CuDef*%
G36*
G01*
X100573820Y-80528500D02*
X101523820Y-80528500D01*
G75*
G02*
X101773820Y-80778500I0J-250000D01*
G01*
X101773820Y-81278500D01*
G75*
G02*
X101523820Y-81528500I-250000J0D01*
G01*
X100573820Y-81528500D01*
G75*
G02*
X100323820Y-81278500I0J250000D01*
G01*
X100323820Y-80778500D01*
G75*
G02*
X100573820Y-80528500I250000J0D01*
G01*
G37*
%TD.AperFunction*%
%TD*%
%TO.P,C2,1*%
%TO.N,Net-(C2-Pad1)*%
%TA.AperFunction,SMDPad,CuDef*%
G36*
G01*
X92219800Y-83288800D02*
X91269800Y-83288800D01*
G75*
G02*
X91019800Y-83038800I0J250000D01*
G01*
X91019800Y-82538800D01*
G75*
G02*
X91269800Y-82288800I250000J0D01*
G01*
X92219800Y-82288800D01*
G75*
G02*
X92469800Y-82538800I0J-250000D01*
G01*
X92469800Y-83038800D01*
G75*
G02*
X92219800Y-83288800I-250000J0D01*
G01*
G37*
%TD.AperFunction*%
%TO.P,C2,2*%
%TO.N,GND*%
%TA.AperFunction,SMDPad,CuDef*%
G36*
G01*
X92219800Y-81388800D02*
X91269800Y-81388800D01*
G75*
G02*
X91019800Y-81138800I0J250000D01*
G01*
X91019800Y-80638800D01*
G75*
G02*
X91269800Y-80388800I250000J0D01*
G01*
X92219800Y-80388800D01*
G75*
G02*
X92469800Y-80638800I0J-250000D01*
G01*
X92469800Y-81138800D01*
G75*
G02*
X92219800Y-81388800I-250000J0D01*
G01*
G37*
%TD.AperFunction*%
%TD*%
%TO.P,C3,1*%
%TO.N,GND*%
%TA.AperFunction,SMDPad,CuDef*%
G36*
G01*
X91125020Y-84871900D02*
X92075020Y-84871900D01*
G75*
G02*
X92325020Y-85121900I0J-250000D01*
G01*
X92325020Y-85621900D01*
G75*
G02*
X92075020Y-85871900I-250000J0D01*
G01*
X91125020Y-85871900D01*
G75*
G02*
X90875020Y-85621900I0J250000D01*
G01*
X90875020Y-85121900D01*
G75*
G02*
X91125020Y-84871900I250000J0D01*
G01*
G37*
%TD.AperFunction*%
%TO.P,C3,2*%
%TO.N,+3V3*%
%TA.AperFunction,SMDPad,CuDef*%
G36*
G01*
X91125020Y-86771900D02*
X92075020Y-86771900D01*
G75*
G02*
X92325020Y-87021900I0J-250000D01*
G01*
X92325020Y-87521900D01*
G75*
G02*
X92075020Y-87771900I-250000J0D01*
G01*
X91125020Y-87771900D01*
G75*
G02*
X90875020Y-87521900I0J250000D01*
G01*
X90875020Y-87021900D01*
G75*
G02*
X91125020Y-86771900I250000J0D01*
G01*
G37*
%TD.AperFunction*%
%TD*%
%TO.P,C4,2*%
%TO.N,GND*%
%TA.AperFunction,SMDPad,CuDef*%
G36*
G01*
X99575200Y-102689640D02*
X99575200Y-103639640D01*
G75*
G02*
X99325200Y-103889640I-250000J0D01*
G01*
X98825200Y-103889640D01*
G75*
G02*
X98575200Y-103639640I0J250000D01*
G01*
X98575200Y-102689640D01*
G75*
G02*
X98825200Y-102439640I250000J0D01*
G01*
X99325200Y-102439640D01*
G75*
G02*
X99575200Y-102689640I0J-250000D01*
G01*
G37*
%TD.AperFunction*%
%TO.P,C4,1*%
%TO.N,+5V*%
%TA.AperFunction,SMDPad,CuDef*%
G36*
G01*
X101475200Y-102689640D02*
X101475200Y-103639640D01*
G75*
G02*
X101225200Y-103889640I-250000J0D01*
G01*
X100725200Y-103889640D01*
G75*
G02*
X100475200Y-103639640I0J250000D01*
G01*
X100475200Y-102689640D01*
G75*
G02*
X100725200Y-102439640I250000J0D01*
G01*
X101225200Y-102439640D01*
G75*
G02*
X101475200Y-102689640I0J-250000D01*
G01*
G37*
%TD.AperFunction*%
%TD*%
%TO.P,C5,1*%
%TO.N,+3V3*%
%TA.AperFunction,SMDPad,CuDef*%
G36*
G01*
X103263720Y-108472900D02*
X102313720Y-108472900D01*
G75*
G02*
X102063720Y-108222900I0J250000D01*
G01*
X102063720Y-107722900D01*
G75*
G02*
X102313720Y-107472900I250000J0D01*
G01*
X103263720Y-107472900D01*
G75*
G02*
X103513720Y-107722900I0J-250000D01*
G01*
X103513720Y-108222900D01*
G75*
G02*
X103263720Y-108472900I-250000J0D01*
G01*
G37*
%TD.AperFunction*%
%TO.P,C5,2*%
%TO.N,GND*%
%TA.AperFunction,SMDPad,CuDef*%
G36*
G01*
X103263720Y-106572900D02*
X102313720Y-106572900D01*
G75*
G02*
X102063720Y-106322900I0J250000D01*
G01*
X102063720Y-105822900D01*
G75*
G02*
X102313720Y-105572900I250000J0D01*
G01*
X103263720Y-105572900D01*
G75*
G02*
X103513720Y-105822900I0J-250000D01*
G01*
X103513720Y-106322900D01*
G75*
G02*
X103263720Y-106572900I-250000J0D01*
G01*
G37*
%TD.AperFunction*%
%TD*%
D10*
%TO.P,J1,1*%
%TO.N,GND*%
X94759780Y-115671600D03*
D11*
%TO.P,J1,2*%
%TO.N,+3V3*%
X97299780Y-115671600D03*
%TO.P,J1,3*%
%TO.N,/TEST*%
X99839780Y-115671600D03*
%TO.P,J1,4*%
%TO.N,/RST*%
X102379780Y-115671600D03*
%TD*%
D10*
%TO.P,J2,1*%
%TO.N,+5V*%
X105000000Y-82000000D03*
D11*
%TO.P,J2,2*%
%TO.N,/X2*%
X105000000Y-84540000D03*
%TO.P,J2,3*%
%TO.N,/X1*%
X105000000Y-87080000D03*
%TO.P,J2,4*%
%TO.N,Net-(J2-Pad4)*%
X105000000Y-89620000D03*
%TO.P,J2,5*%
%TO.N,Net-(J2-Pad5)*%
X105000000Y-92160000D03*
%TO.P,J2,6*%
%TO.N,Net-(J2-Pad6)*%
X105000000Y-94700000D03*
%TO.P,J2,7*%
%TO.N,Net-(J2-Pad7)*%
X105000000Y-97240000D03*
%TO.P,J2,8*%
%TO.N,Net-(J2-Pad8)*%
X105000000Y-99780000D03*
%TO.P,J2,9*%
%TO.N,Net-(J2-Pad9)*%
X105000000Y-102320000D03*
%TO.P,J2,10*%
%TO.N,/RST*%
X105000000Y-104860000D03*
%TD*%
%TO.P,J3,10*%
%TO.N,GND*%
X87000000Y-104860000D03*
%TO.P,J3,9*%
%TO.N,+3V3*%
X87000000Y-102320000D03*
%TO.P,J3,8*%
%TO.N,Net-(J3-Pad8)*%
X87000000Y-99780000D03*
%TO.P,J3,7*%
%TO.N,Net-(J3-Pad7)*%
X87000000Y-97240000D03*
%TO.P,J3,6*%
%TO.N,Net-(J3-Pad6)*%
X87000000Y-94700000D03*
%TO.P,J3,5*%
%TO.N,Net-(J3-Pad5)*%
X87000000Y-92160000D03*
%TO.P,J3,4*%
%TO.N,Net-(J3-Pad4)*%
X87000000Y-89620000D03*
%TO.P,J3,3*%
%TO.N,Net-(J3-Pad3)*%
X87000000Y-87080000D03*
%TO.P,J3,2*%
%TO.N,Net-(J3-Pad2)*%
X87000000Y-84540000D03*
D10*
%TO.P,J3,1*%
%TO.N,Net-(J3-Pad1)*%
X87000000Y-82000000D03*
%TD*%
%TO.P,R1,1*%
%TO.N,/X1*%
%TA.AperFunction,SMDPad,CuDef*%
G36*
G01*
X98189202Y-87683400D02*
X97289198Y-87683400D01*
G75*
G02*
X97039200Y-87433402I0J249998D01*
G01*
X97039200Y-86908398D01*
G75*
G02*
X97289198Y-86658400I249998J0D01*
G01*
X98189202Y-86658400D01*
G75*
G02*
X98439200Y-86908398I0J-249998D01*
G01*
X98439200Y-87433402D01*
G75*
G02*
X98189202Y-87683400I-249998J0D01*
G01*
G37*
%TD.AperFunction*%
%TO.P,R1,2*%
%TO.N,Net-(C1-Pad1)*%
%TA.AperFunction,SMDPad,CuDef*%
G36*
G01*
X98189202Y-85858400D02*
X97289198Y-85858400D01*
G75*
G02*
X97039200Y-85608402I0J249998D01*
G01*
X97039200Y-85083398D01*
G75*
G02*
X97289198Y-84833400I249998J0D01*
G01*
X98189202Y-84833400D01*
G75*
G02*
X98439200Y-85083398I0J-249998D01*
G01*
X98439200Y-85608402D01*
G75*
G02*
X98189202Y-85858400I-249998J0D01*
G01*
G37*
%TD.AperFunction*%
%TD*%
%TO.P,R2,2*%
%TO.N,Net-(C2-Pad1)*%
%TA.AperFunction,SMDPad,CuDef*%
G36*
G01*
X95293602Y-85909200D02*
X94393598Y-85909200D01*
G75*
G02*
X94143600Y-85659202I0J249998D01*
G01*
X94143600Y-85134198D01*
G75*
G02*
X94393598Y-84884200I249998J0D01*
G01*
X95293602Y-84884200D01*
G75*
G02*
X95543600Y-85134198I0J-249998D01*
G01*
X95543600Y-85659202D01*
G75*
G02*
X95293602Y-85909200I-249998J0D01*
G01*
G37*
%TD.AperFunction*%
%TO.P,R2,1*%
%TO.N,/X2*%
%TA.AperFunction,SMDPad,CuDef*%
G36*
G01*
X95293602Y-87734200D02*
X94393598Y-87734200D01*
G75*
G02*
X94143600Y-87484202I0J249998D01*
G01*
X94143600Y-86959198D01*
G75*
G02*
X94393598Y-86709200I249998J0D01*
G01*
X95293602Y-86709200D01*
G75*
G02*
X95543600Y-86959198I0J-249998D01*
G01*
X95543600Y-87484202D01*
G75*
G02*
X95293602Y-87734200I-249998J0D01*
G01*
G37*
%TD.AperFunction*%
%TD*%
%TO.P,R3,2*%
%TO.N,+3V3*%
%TA.AperFunction,SMDPad,CuDef*%
G36*
G01*
X102944980Y-109796158D02*
X102944980Y-110696162D01*
G75*
G02*
X102694982Y-110946160I-249998J0D01*
G01*
X102169978Y-110946160D01*
G75*
G02*
X101919980Y-110696162I0J249998D01*
G01*
X101919980Y-109796158D01*
G75*
G02*
X102169978Y-109546160I249998J0D01*
G01*
X102694982Y-109546160D01*
G75*
G02*
X102944980Y-109796158I0J-249998D01*
G01*
G37*
%TD.AperFunction*%
%TO.P,R3,1*%
%TO.N,Net-(D1-Pad2)*%
%TA.AperFunction,SMDPad,CuDef*%
G36*
G01*
X104769980Y-109796158D02*
X104769980Y-110696162D01*
G75*
G02*
X104519982Y-110946160I-249998J0D01*
G01*
X103994978Y-110946160D01*
G75*
G02*
X103744980Y-110696162I0J249998D01*
G01*
X103744980Y-109796158D01*
G75*
G02*
X103994978Y-109546160I249998J0D01*
G01*
X104519982Y-109546160D01*
G75*
G02*
X104769980Y-109796158I0J-249998D01*
G01*
G37*
%TD.AperFunction*%
%TD*%
%TO.P,R4,1*%
%TO.N,+3V3*%
%TA.AperFunction,SMDPad,CuDef*%
G36*
G01*
X98546860Y-98295882D02*
X98546860Y-97395878D01*
G75*
G02*
X98796858Y-97145880I249998J0D01*
G01*
X99321862Y-97145880D01*
G75*
G02*
X99571860Y-97395878I0J-249998D01*
G01*
X99571860Y-98295882D01*
G75*
G02*
X99321862Y-98545880I-249998J0D01*
G01*
X98796858Y-98545880D01*
G75*
G02*
X98546860Y-98295882I0J249998D01*
G01*
G37*
%TD.AperFunction*%
%TO.P,R4,2*%
%TO.N,/RST*%
%TA.AperFunction,SMDPad,CuDef*%
G36*
G01*
X100371860Y-98295882D02*
X100371860Y-97395878D01*
G75*
G02*
X100621858Y-97145880I249998J0D01*
G01*
X101146862Y-97145880D01*
G75*
G02*
X101396860Y-97395878I0J-249998D01*
G01*
X101396860Y-98295882D01*
G75*
G02*
X101146862Y-98545880I-249998J0D01*
G01*
X100621858Y-98545880D01*
G75*
G02*
X100371860Y-98295882I0J249998D01*
G01*
G37*
%TD.AperFunction*%
%TD*%
%TO.P,R5,1*%
%TO.N,Net-(D2-Pad2)*%
%TA.AperFunction,SMDPad,CuDef*%
G36*
G01*
X94579500Y-97472078D02*
X94579500Y-98372082D01*
G75*
G02*
X94329502Y-98622080I-249998J0D01*
G01*
X93804498Y-98622080D01*
G75*
G02*
X93554500Y-98372082I0J249998D01*
G01*
X93554500Y-97472078D01*
G75*
G02*
X93804498Y-97222080I249998J0D01*
G01*
X94329502Y-97222080D01*
G75*
G02*
X94579500Y-97472078I0J-249998D01*
G01*
G37*
%TD.AperFunction*%
%TO.P,R5,2*%
%TO.N,Net-(J3-Pad1)*%
%TA.AperFunction,SMDPad,CuDef*%
G36*
G01*
X92754500Y-97472078D02*
X92754500Y-98372082D01*
G75*
G02*
X92504502Y-98622080I-249998J0D01*
G01*
X91979498Y-98622080D01*
G75*
G02*
X91729500Y-98372082I0J249998D01*
G01*
X91729500Y-97472078D01*
G75*
G02*
X91979498Y-97222080I249998J0D01*
G01*
X92504502Y-97222080D01*
G75*
G02*
X92754500Y-97472078I0J-249998D01*
G01*
G37*
%TD.AperFunction*%
%TD*%
D12*
%TO.P,U2,2*%
%TO.N,+3V3*%
X93786560Y-107916980D03*
D13*
X100086560Y-107916980D03*
%TO.P,U2,3*%
%TO.N,+5V*%
X100086560Y-105616980D03*
%TO.P,U2,1*%
%TO.N,GND*%
X100086560Y-110216980D03*
%TD*%
%TO.P,D1,1*%
%TO.N,GND*%
%TA.AperFunction,SMDPad,CuDef*%
G36*
G01*
X105696070Y-114381340D02*
X104783570Y-114381340D01*
G75*
G02*
X104539820Y-114137590I0J243750D01*
G01*
X104539820Y-113650090D01*
G75*
G02*
X104783570Y-113406340I243750J0D01*
G01*
X105696070Y-113406340D01*
G75*
G02*
X105939820Y-113650090I0J-243750D01*
G01*
X105939820Y-114137590D01*
G75*
G02*
X105696070Y-114381340I-243750J0D01*
G01*
G37*
%TD.AperFunction*%
%TO.P,D1,2*%
%TO.N,Net-(D1-Pad2)*%
%TA.AperFunction,SMDPad,CuDef*%
G36*
G01*
X105696070Y-112506340D02*
X104783570Y-112506340D01*
G75*
G02*
X104539820Y-112262590I0J243750D01*
G01*
X104539820Y-111775090D01*
G75*
G02*
X104783570Y-111531340I243750J0D01*
G01*
X105696070Y-111531340D01*
G75*
G02*
X105939820Y-111775090I0J-243750D01*
G01*
X105939820Y-112262590D01*
G75*
G02*
X105696070Y-112506340I-243750J0D01*
G01*
G37*
%TD.AperFunction*%
%TD*%
%TO.P,D2,2*%
%TO.N,Net-(D2-Pad2)*%
%TA.AperFunction,SMDPad,CuDef*%
G36*
G01*
X93744200Y-100984370D02*
X93744200Y-100071870D01*
G75*
G02*
X93987950Y-99828120I243750J0D01*
G01*
X94475450Y-99828120D01*
G75*
G02*
X94719200Y-100071870I0J-243750D01*
G01*
X94719200Y-100984370D01*
G75*
G02*
X94475450Y-101228120I-243750J0D01*
G01*
X93987950Y-101228120D01*
G75*
G02*
X93744200Y-100984370I0J243750D01*
G01*
G37*
%TD.AperFunction*%
%TO.P,D2,1*%
%TO.N,GND*%
%TA.AperFunction,SMDPad,CuDef*%
G36*
G01*
X91869200Y-100984370D02*
X91869200Y-100071870D01*
G75*
G02*
X92112950Y-99828120I243750J0D01*
G01*
X92600450Y-99828120D01*
G75*
G02*
X92844200Y-100071870I0J-243750D01*
G01*
X92844200Y-100984370D01*
G75*
G02*
X92600450Y-101228120I-243750J0D01*
G01*
X92112950Y-101228120D01*
G75*
G02*
X91869200Y-100984370I0J243750D01*
G01*
G37*
%TD.AperFunction*%
%TD*%
%TO.P,C6,1*%
%TO.N,GND*%
%TA.AperFunction,SMDPad,CuDef*%
G36*
G01*
X98615840Y-100977720D02*
X98615840Y-100027720D01*
G75*
G02*
X98865840Y-99777720I250000J0D01*
G01*
X99365840Y-99777720D01*
G75*
G02*
X99615840Y-100027720I0J-250000D01*
G01*
X99615840Y-100977720D01*
G75*
G02*
X99365840Y-101227720I-250000J0D01*
G01*
X98865840Y-101227720D01*
G75*
G02*
X98615840Y-100977720I0J250000D01*
G01*
G37*
%TD.AperFunction*%
%TO.P,C6,2*%
%TO.N,/RST*%
%TA.AperFunction,SMDPad,CuDef*%
G36*
G01*
X100515840Y-100977720D02*
X100515840Y-100027720D01*
G75*
G02*
X100765840Y-99777720I250000J0D01*
G01*
X101265840Y-99777720D01*
G75*
G02*
X101515840Y-100027720I0J-250000D01*
G01*
X101515840Y-100977720D01*
G75*
G02*
X101265840Y-101227720I-250000J0D01*
G01*
X100765840Y-101227720D01*
G75*
G02*
X100515840Y-100977720I0J250000D01*
G01*
G37*
%TD.AperFunction*%
%TD*%
D14*
%TO.P,SW1,2*%
%TO.N,/RST*%
X91378600Y-115663880D03*
%TO.P,SW1,1*%
%TO.N,GND*%
X86878600Y-115663880D03*
X86878600Y-107713880D03*
%TO.P,SW1,2*%
%TO.N,/RST*%
X91378600Y-107713880D03*
%TD*%
D15*
%TO.P,Y1,1*%
%TO.N,Net-(C1-Pad1)*%
X97317740Y-80971020D03*
%TO.P,Y1,2*%
%TO.N,GND*%
X95117740Y-80971020D03*
%TO.P,Y1,3*%
%TO.N,Net-(C2-Pad1)*%
X95117740Y-82671020D03*
%TO.P,Y1,4*%
%TO.N,GND*%
X97317740Y-82671020D03*
%TD*%
%TO.P,U1,1*%
%TO.N,+3V3*%
%TA.AperFunction,SMDPad,CuDef*%
G36*
G01*
X92650000Y-89925000D02*
X92650000Y-89725000D01*
G75*
G02*
X92750000Y-89625000I100000J0D01*
G01*
X94025000Y-89625000D01*
G75*
G02*
X94125000Y-89725000I0J-100000D01*
G01*
X94125000Y-89925000D01*
G75*
G02*
X94025000Y-90025000I-100000J0D01*
G01*
X92750000Y-90025000D01*
G75*
G02*
X92650000Y-89925000I0J100000D01*
G01*
G37*
%TD.AperFunction*%
%TO.P,U1,2*%
%TO.N,Net-(J3-Pad1)*%
%TA.AperFunction,SMDPad,CuDef*%
G36*
G01*
X92650000Y-90575000D02*
X92650000Y-90375000D01*
G75*
G02*
X92750000Y-90275000I100000J0D01*
G01*
X94025000Y-90275000D01*
G75*
G02*
X94125000Y-90375000I0J-100000D01*
G01*
X94125000Y-90575000D01*
G75*
G02*
X94025000Y-90675000I-100000J0D01*
G01*
X92750000Y-90675000D01*
G75*
G02*
X92650000Y-90575000I0J100000D01*
G01*
G37*
%TD.AperFunction*%
%TO.P,U1,3*%
%TO.N,Net-(J3-Pad2)*%
%TA.AperFunction,SMDPad,CuDef*%
G36*
G01*
X92650000Y-91225000D02*
X92650000Y-91025000D01*
G75*
G02*
X92750000Y-90925000I100000J0D01*
G01*
X94025000Y-90925000D01*
G75*
G02*
X94125000Y-91025000I0J-100000D01*
G01*
X94125000Y-91225000D01*
G75*
G02*
X94025000Y-91325000I-100000J0D01*
G01*
X92750000Y-91325000D01*
G75*
G02*
X92650000Y-91225000I0J100000D01*
G01*
G37*
%TD.AperFunction*%
%TO.P,U1,4*%
%TO.N,Net-(J3-Pad3)*%
%TA.AperFunction,SMDPad,CuDef*%
G36*
G01*
X92650000Y-91875000D02*
X92650000Y-91675000D01*
G75*
G02*
X92750000Y-91575000I100000J0D01*
G01*
X94025000Y-91575000D01*
G75*
G02*
X94125000Y-91675000I0J-100000D01*
G01*
X94125000Y-91875000D01*
G75*
G02*
X94025000Y-91975000I-100000J0D01*
G01*
X92750000Y-91975000D01*
G75*
G02*
X92650000Y-91875000I0J100000D01*
G01*
G37*
%TD.AperFunction*%
%TO.P,U1,5*%
%TO.N,Net-(J3-Pad4)*%
%TA.AperFunction,SMDPad,CuDef*%
G36*
G01*
X92650000Y-92525000D02*
X92650000Y-92325000D01*
G75*
G02*
X92750000Y-92225000I100000J0D01*
G01*
X94025000Y-92225000D01*
G75*
G02*
X94125000Y-92325000I0J-100000D01*
G01*
X94125000Y-92525000D01*
G75*
G02*
X94025000Y-92625000I-100000J0D01*
G01*
X92750000Y-92625000D01*
G75*
G02*
X92650000Y-92525000I0J100000D01*
G01*
G37*
%TD.AperFunction*%
%TO.P,U1,6*%
%TO.N,Net-(J3-Pad5)*%
%TA.AperFunction,SMDPad,CuDef*%
G36*
G01*
X92650000Y-93175000D02*
X92650000Y-92975000D01*
G75*
G02*
X92750000Y-92875000I100000J0D01*
G01*
X94025000Y-92875000D01*
G75*
G02*
X94125000Y-92975000I0J-100000D01*
G01*
X94125000Y-93175000D01*
G75*
G02*
X94025000Y-93275000I-100000J0D01*
G01*
X92750000Y-93275000D01*
G75*
G02*
X92650000Y-93175000I0J100000D01*
G01*
G37*
%TD.AperFunction*%
%TO.P,U1,7*%
%TO.N,Net-(J3-Pad6)*%
%TA.AperFunction,SMDPad,CuDef*%
G36*
G01*
X92650000Y-93825000D02*
X92650000Y-93625000D01*
G75*
G02*
X92750000Y-93525000I100000J0D01*
G01*
X94025000Y-93525000D01*
G75*
G02*
X94125000Y-93625000I0J-100000D01*
G01*
X94125000Y-93825000D01*
G75*
G02*
X94025000Y-93925000I-100000J0D01*
G01*
X92750000Y-93925000D01*
G75*
G02*
X92650000Y-93825000I0J100000D01*
G01*
G37*
%TD.AperFunction*%
%TO.P,U1,8*%
%TO.N,Net-(J2-Pad9)*%
%TA.AperFunction,SMDPad,CuDef*%
G36*
G01*
X92650000Y-94475000D02*
X92650000Y-94275000D01*
G75*
G02*
X92750000Y-94175000I100000J0D01*
G01*
X94025000Y-94175000D01*
G75*
G02*
X94125000Y-94275000I0J-100000D01*
G01*
X94125000Y-94475000D01*
G75*
G02*
X94025000Y-94575000I-100000J0D01*
G01*
X92750000Y-94575000D01*
G75*
G02*
X92650000Y-94475000I0J100000D01*
G01*
G37*
%TD.AperFunction*%
%TO.P,U1,9*%
%TO.N,Net-(J2-Pad8)*%
%TA.AperFunction,SMDPad,CuDef*%
G36*
G01*
X92650000Y-95125000D02*
X92650000Y-94925000D01*
G75*
G02*
X92750000Y-94825000I100000J0D01*
G01*
X94025000Y-94825000D01*
G75*
G02*
X94125000Y-94925000I0J-100000D01*
G01*
X94125000Y-95125000D01*
G75*
G02*
X94025000Y-95225000I-100000J0D01*
G01*
X92750000Y-95225000D01*
G75*
G02*
X92650000Y-95125000I0J100000D01*
G01*
G37*
%TD.AperFunction*%
%TO.P,U1,10*%
%TO.N,Net-(J2-Pad7)*%
%TA.AperFunction,SMDPad,CuDef*%
G36*
G01*
X92650000Y-95775000D02*
X92650000Y-95575000D01*
G75*
G02*
X92750000Y-95475000I100000J0D01*
G01*
X94025000Y-95475000D01*
G75*
G02*
X94125000Y-95575000I0J-100000D01*
G01*
X94125000Y-95775000D01*
G75*
G02*
X94025000Y-95875000I-100000J0D01*
G01*
X92750000Y-95875000D01*
G75*
G02*
X92650000Y-95775000I0J100000D01*
G01*
G37*
%TD.AperFunction*%
%TO.P,U1,11*%
%TO.N,Net-(J2-Pad6)*%
%TA.AperFunction,SMDPad,CuDef*%
G36*
G01*
X98375000Y-95775000D02*
X98375000Y-95575000D01*
G75*
G02*
X98475000Y-95475000I100000J0D01*
G01*
X99750000Y-95475000D01*
G75*
G02*
X99850000Y-95575000I0J-100000D01*
G01*
X99850000Y-95775000D01*
G75*
G02*
X99750000Y-95875000I-100000J0D01*
G01*
X98475000Y-95875000D01*
G75*
G02*
X98375000Y-95775000I0J100000D01*
G01*
G37*
%TD.AperFunction*%
%TO.P,U1,12*%
%TO.N,Net-(J2-Pad5)*%
%TA.AperFunction,SMDPad,CuDef*%
G36*
G01*
X98375000Y-95125000D02*
X98375000Y-94925000D01*
G75*
G02*
X98475000Y-94825000I100000J0D01*
G01*
X99750000Y-94825000D01*
G75*
G02*
X99850000Y-94925000I0J-100000D01*
G01*
X99850000Y-95125000D01*
G75*
G02*
X99750000Y-95225000I-100000J0D01*
G01*
X98475000Y-95225000D01*
G75*
G02*
X98375000Y-95125000I0J100000D01*
G01*
G37*
%TD.AperFunction*%
%TO.P,U1,13*%
%TO.N,Net-(J2-Pad4)*%
%TA.AperFunction,SMDPad,CuDef*%
G36*
G01*
X98375000Y-94475000D02*
X98375000Y-94275000D01*
G75*
G02*
X98475000Y-94175000I100000J0D01*
G01*
X99750000Y-94175000D01*
G75*
G02*
X99850000Y-94275000I0J-100000D01*
G01*
X99850000Y-94475000D01*
G75*
G02*
X99750000Y-94575000I-100000J0D01*
G01*
X98475000Y-94575000D01*
G75*
G02*
X98375000Y-94475000I0J100000D01*
G01*
G37*
%TD.AperFunction*%
%TO.P,U1,14*%
%TO.N,Net-(J3-Pad7)*%
%TA.AperFunction,SMDPad,CuDef*%
G36*
G01*
X98375000Y-93825000D02*
X98375000Y-93625000D01*
G75*
G02*
X98475000Y-93525000I100000J0D01*
G01*
X99750000Y-93525000D01*
G75*
G02*
X99850000Y-93625000I0J-100000D01*
G01*
X99850000Y-93825000D01*
G75*
G02*
X99750000Y-93925000I-100000J0D01*
G01*
X98475000Y-93925000D01*
G75*
G02*
X98375000Y-93825000I0J100000D01*
G01*
G37*
%TD.AperFunction*%
%TO.P,U1,15*%
%TO.N,Net-(J3-Pad8)*%
%TA.AperFunction,SMDPad,CuDef*%
G36*
G01*
X98375000Y-93175000D02*
X98375000Y-92975000D01*
G75*
G02*
X98475000Y-92875000I100000J0D01*
G01*
X99750000Y-92875000D01*
G75*
G02*
X99850000Y-92975000I0J-100000D01*
G01*
X99850000Y-93175000D01*
G75*
G02*
X99750000Y-93275000I-100000J0D01*
G01*
X98475000Y-93275000D01*
G75*
G02*
X98375000Y-93175000I0J100000D01*
G01*
G37*
%TD.AperFunction*%
%TO.P,U1,16*%
%TO.N,/RST*%
%TA.AperFunction,SMDPad,CuDef*%
G36*
G01*
X98375000Y-92525000D02*
X98375000Y-92325000D01*
G75*
G02*
X98475000Y-92225000I100000J0D01*
G01*
X99750000Y-92225000D01*
G75*
G02*
X99850000Y-92325000I0J-100000D01*
G01*
X99850000Y-92525000D01*
G75*
G02*
X99750000Y-92625000I-100000J0D01*
G01*
X98475000Y-92625000D01*
G75*
G02*
X98375000Y-92525000I0J100000D01*
G01*
G37*
%TD.AperFunction*%
%TO.P,U1,17*%
%TO.N,/TEST*%
%TA.AperFunction,SMDPad,CuDef*%
G36*
G01*
X98375000Y-91875000D02*
X98375000Y-91675000D01*
G75*
G02*
X98475000Y-91575000I100000J0D01*
G01*
X99750000Y-91575000D01*
G75*
G02*
X99850000Y-91675000I0J-100000D01*
G01*
X99850000Y-91875000D01*
G75*
G02*
X99750000Y-91975000I-100000J0D01*
G01*
X98475000Y-91975000D01*
G75*
G02*
X98375000Y-91875000I0J100000D01*
G01*
G37*
%TD.AperFunction*%
%TO.P,U1,18*%
%TO.N,/X2*%
%TA.AperFunction,SMDPad,CuDef*%
G36*
G01*
X98375000Y-91225000D02*
X98375000Y-91025000D01*
G75*
G02*
X98475000Y-90925000I100000J0D01*
G01*
X99750000Y-90925000D01*
G75*
G02*
X99850000Y-91025000I0J-100000D01*
G01*
X99850000Y-91225000D01*
G75*
G02*
X99750000Y-91325000I-100000J0D01*
G01*
X98475000Y-91325000D01*
G75*
G02*
X98375000Y-91225000I0J100000D01*
G01*
G37*
%TD.AperFunction*%
%TO.P,U1,19*%
%TO.N,/X1*%
%TA.AperFunction,SMDPad,CuDef*%
G36*
G01*
X98375000Y-90575000D02*
X98375000Y-90375000D01*
G75*
G02*
X98475000Y-90275000I100000J0D01*
G01*
X99750000Y-90275000D01*
G75*
G02*
X99850000Y-90375000I0J-100000D01*
G01*
X99850000Y-90575000D01*
G75*
G02*
X99750000Y-90675000I-100000J0D01*
G01*
X98475000Y-90675000D01*
G75*
G02*
X98375000Y-90575000I0J100000D01*
G01*
G37*
%TD.AperFunction*%
%TO.P,U1,20*%
%TO.N,GND*%
%TA.AperFunction,SMDPad,CuDef*%
G36*
G01*
X98375000Y-89925000D02*
X98375000Y-89725000D01*
G75*
G02*
X98475000Y-89625000I100000J0D01*
G01*
X99750000Y-89625000D01*
G75*
G02*
X99850000Y-89725000I0J-100000D01*
G01*
X99850000Y-89925000D01*
G75*
G02*
X99750000Y-90025000I-100000J0D01*
G01*
X98475000Y-90025000D01*
G75*
G02*
X98375000Y-89925000I0J100000D01*
G01*
G37*
%TD.AperFunction*%
%TD*%
D16*
%TO.N,GND*%
X96253300Y-84081620D03*
X103337360Y-96464120D03*
X89387680Y-96413320D03*
X92212160Y-96558100D03*
X89631520Y-98524060D03*
X96555560Y-98590100D03*
X90957400Y-103365300D03*
X97419160Y-101785420D03*
X100888800Y-112712500D03*
X92768420Y-112834420D03*
X95681800Y-110708440D03*
X95763080Y-105247440D03*
X102989380Y-104048560D03*
X89601040Y-80000000D03*
X102500000Y-80000000D03*
X100873560Y-89501980D03*
X102979220Y-83197700D03*
X93124020Y-88432640D03*
X96685100Y-90667840D03*
X93070680Y-84170520D03*
X88816180Y-85951060D03*
X89367360Y-90490040D03*
X102555040Y-100987860D03*
X105587800Y-108310680D03*
X95288100Y-102237540D03*
X89176860Y-111638080D03*
%TO.N,+3V3*%
X96845920Y-108000000D03*
%TO.N,+5V*%
X102298500Y-103172260D03*
%TO.N,/TEST*%
X97424240Y-91584780D03*
%TO.N,/RST*%
X101005640Y-92247720D03*
X101005640Y-96459040D03*
%TO.N,/X2*%
X99354640Y-84244180D03*
X93233240Y-86586060D03*
%TO.N,Net-(J2-Pad7)*%
X103431340Y-86321900D03*
X91056460Y-95986600D03*
X100205540Y-88618060D03*
%TO.N,Net-(J2-Pad8)*%
X103250000Y-85250000D03*
X89999820Y-95481140D03*
X99451160Y-87431880D03*
%TO.N,Net-(J2-Pad9)*%
X101203760Y-85509100D03*
X89098120Y-93898720D03*
X99461320Y-86245700D03*
%TO.N,Net-(J3-Pad8)*%
X96994980Y-94599760D03*
%TO.N,Net-(J3-Pad7)*%
X97401380Y-93207840D03*
%TD*%
D17*
%TO.N,GND*%
X100873560Y-89501980D02*
X100523040Y-89501980D01*
X100200020Y-89825000D02*
X99112500Y-89825000D01*
X100523040Y-89501980D02*
X100200020Y-89825000D01*
X102788720Y-104249220D02*
X102989380Y-104048560D01*
X102788720Y-106072900D02*
X102788720Y-104249220D01*
X102555040Y-97246440D02*
X103337360Y-96464120D01*
X102555040Y-100987860D02*
X102555040Y-97246440D01*
X91956941Y-96813319D02*
X92212160Y-96558100D01*
X89787679Y-96813319D02*
X91956941Y-96813319D01*
X89387680Y-96413320D02*
X89787679Y-96813319D01*
X95517740Y-80971020D02*
X95117740Y-80971020D01*
X97317740Y-82671020D02*
X97217740Y-82671020D01*
X96253300Y-83735460D02*
X97317740Y-82671020D01*
X96253300Y-84081620D02*
X96253300Y-83735460D01*
%TO.N,Net-(C1-Pad1)*%
X100991340Y-80971020D02*
X101048820Y-81028500D01*
X97317740Y-80971020D02*
X100991340Y-80971020D01*
X101498400Y-80990400D02*
X101196800Y-80688800D01*
X100695800Y-80990400D02*
X101498400Y-80990400D01*
X97739200Y-84244180D02*
X99466400Y-82516980D01*
X97739200Y-84338120D02*
X97739200Y-84696300D01*
X101048820Y-81028500D02*
X97739200Y-84338120D01*
X97739200Y-84696300D02*
X97739200Y-84244180D01*
X97739200Y-85345900D02*
X97739200Y-84696300D01*
%TO.N,Net-(C2-Pad1)*%
X91862580Y-82671020D02*
X91744800Y-82788800D01*
X95117740Y-82671020D02*
X91862580Y-82671020D01*
X94843600Y-82945160D02*
X95117740Y-82671020D01*
X94843600Y-85396700D02*
X94843600Y-82945160D01*
%TO.N,+3V3*%
X91600020Y-87271900D02*
X91600020Y-88719660D01*
X92781560Y-89901200D02*
X93657500Y-89901200D01*
X91600020Y-88719660D02*
X92781560Y-89901200D01*
X99150000Y-108000000D02*
X96845920Y-108000000D01*
X102457760Y-108000000D02*
X102765860Y-108308100D01*
X99150000Y-108000000D02*
X102457760Y-108000000D01*
X99150000Y-108000000D02*
X98490240Y-108000000D01*
X98490240Y-108000000D02*
X96746060Y-106255820D01*
X96746060Y-100159180D02*
X99059360Y-97845880D01*
X96746060Y-106255820D02*
X96746060Y-100159180D01*
X94368620Y-108499040D02*
X93786560Y-107916980D01*
X88079180Y-102209600D02*
X93786560Y-107916980D01*
X87000000Y-102209600D02*
X88079180Y-102209600D01*
X102432480Y-108329140D02*
X102788720Y-107972900D01*
X102432480Y-110246160D02*
X102432480Y-108329140D01*
X96762900Y-107916980D02*
X96845920Y-108000000D01*
X93786560Y-107916980D02*
X96762900Y-107916980D01*
X95258060Y-89825000D02*
X93387500Y-89825000D01*
X95780860Y-90347800D02*
X95258060Y-89825000D01*
X95780860Y-95796100D02*
X95780860Y-90347800D01*
X97830640Y-97845880D02*
X95780860Y-95796100D01*
X99059360Y-97845880D02*
X97830640Y-97845880D01*
%TO.N,+5V*%
X102290880Y-103164640D02*
X102298500Y-103172260D01*
X100975200Y-103164640D02*
X102290880Y-103164640D01*
X100086560Y-104053280D02*
X100975200Y-103164640D01*
X100086560Y-105616980D02*
X100086560Y-104053280D01*
%TO.N,Net-(D1-Pad2)*%
X104257480Y-110246160D02*
X104597200Y-110246160D01*
X105239820Y-110888780D02*
X105239820Y-112018840D01*
X104597200Y-110246160D02*
X105239820Y-110888780D01*
%TO.N,Net-(D2-Pad2)*%
X94231700Y-98086780D02*
X94067000Y-97922080D01*
X94231700Y-100528120D02*
X94231700Y-98086780D01*
%TO.N,/TEST*%
X97607820Y-91401200D02*
X97424240Y-91584780D01*
X97614460Y-91775000D02*
X97424240Y-91584780D01*
X99112500Y-91775000D02*
X97614460Y-91775000D01*
%TO.N,/RST*%
X100884360Y-100744360D02*
X105000000Y-104860000D01*
X100884360Y-97845880D02*
X100884360Y-100744360D01*
X101005640Y-92247720D02*
X101005640Y-92247720D01*
X101005640Y-97724600D02*
X100884360Y-97845880D01*
X101005640Y-96459040D02*
X101005640Y-97724600D01*
X91378600Y-115663880D02*
X91953180Y-115663880D01*
X91953180Y-115663880D02*
X93764100Y-113852960D01*
X91378600Y-107713880D02*
X91378600Y-115663880D01*
X102379780Y-115671600D02*
X100561140Y-113852960D01*
X100561140Y-113852960D02*
X100238560Y-113852960D01*
X93764100Y-113852960D02*
X100238560Y-113852960D01*
X100828360Y-92425000D02*
X101005640Y-92247720D01*
X99112500Y-92425000D02*
X100828360Y-92425000D01*
%TO.N,/X2*%
X94843600Y-87661890D02*
X94843600Y-87221700D01*
X98306710Y-91125000D02*
X94843600Y-87661890D01*
X99112500Y-91125000D02*
X98306710Y-91125000D01*
X94843600Y-87221700D02*
X95028380Y-87221700D01*
X105000000Y-84540000D02*
X104564480Y-84104480D01*
X104564480Y-84104480D02*
X100693220Y-84104480D01*
X100693220Y-84104480D02*
X99494340Y-84104480D01*
X99494340Y-84104480D02*
X99354640Y-84244180D01*
X99354640Y-84244180D02*
X99354640Y-84244180D01*
X93868880Y-87221700D02*
X93233240Y-86586060D01*
X94843600Y-87221700D02*
X93868880Y-87221700D01*
%TO.N,/X1*%
X102793800Y-89286200D02*
X105000000Y-87080000D01*
X98579298Y-90401200D02*
X99382500Y-90401200D01*
X97739200Y-87170900D02*
X97739200Y-89561102D01*
X97739200Y-86894818D02*
X97739200Y-87170900D01*
X101605000Y-90475000D02*
X102089010Y-89990990D01*
X99112500Y-90475000D02*
X101605000Y-90475000D01*
X102089010Y-89990990D02*
X102793800Y-89286200D01*
X99112500Y-90475000D02*
X98293120Y-90475000D01*
X97739200Y-89921080D02*
X97739200Y-89561102D01*
X98293120Y-90475000D02*
X97739200Y-89921080D01*
%TO.N,Net-(J2-Pad4)*%
X101218800Y-93401200D02*
X105000000Y-89620000D01*
X100245000Y-94375000D02*
X101218800Y-93401200D01*
X99112500Y-94375000D02*
X100245000Y-94375000D01*
%TO.N,Net-(J2-Pad5)*%
X102135000Y-95025000D02*
X103529190Y-93630810D01*
X99112500Y-95025000D02*
X102135000Y-95025000D01*
X103529190Y-93630810D02*
X105000000Y-92160000D01*
X103258800Y-93901200D02*
X103529190Y-93630810D01*
%TO.N,Net-(J2-Pad6)*%
X104701200Y-94401200D02*
X105000000Y-94700000D01*
X103719720Y-94700000D02*
X105000000Y-94700000D01*
X102744720Y-95675000D02*
X103719720Y-94700000D01*
X99112500Y-95675000D02*
X102744720Y-95675000D01*
%TO.N,Net-(J2-Pad7)*%
X101963220Y-86860380D02*
X100205540Y-88618060D01*
X100205540Y-88618060D02*
X100205540Y-88618060D01*
X102501700Y-86321900D02*
X101963220Y-86860380D01*
X103431340Y-86321900D02*
X102501700Y-86321900D01*
X91368060Y-95675000D02*
X91056460Y-95986600D01*
X93387500Y-95675000D02*
X91368060Y-95675000D01*
%TO.N,Net-(J2-Pad8)*%
X99451160Y-87431880D02*
X99451160Y-87431880D01*
X100591620Y-87431880D02*
X102235000Y-85788500D01*
X99451160Y-87431880D02*
X100591620Y-87431880D01*
X102235000Y-85788500D02*
X102247700Y-85788500D01*
X102786200Y-85250000D02*
X103250000Y-85250000D01*
X102247700Y-85788500D02*
X102786200Y-85250000D01*
X90455960Y-95025000D02*
X89999820Y-95481140D01*
X93387500Y-95025000D02*
X90455960Y-95025000D01*
%TO.N,Net-(J2-Pad9)*%
X93657500Y-94391560D02*
X93657500Y-94401200D01*
X93642150Y-94376210D02*
X93657500Y-94391560D01*
X89098120Y-93898720D02*
X89098120Y-93898720D01*
X99461320Y-86245700D02*
X99461320Y-86245700D01*
X100467160Y-86245700D02*
X101203760Y-85509100D01*
X99461320Y-86245700D02*
X100467160Y-86245700D01*
X89574400Y-94375000D02*
X89098120Y-93898720D01*
X93387500Y-94375000D02*
X89574400Y-94375000D01*
%TO.N,Net-(J3-Pad8)*%
X96994980Y-94599760D02*
X96994980Y-94599760D01*
X96492060Y-94096840D02*
X96994980Y-94599760D01*
X96492060Y-92786200D02*
X96492060Y-94096840D01*
X96931480Y-92346780D02*
X96492060Y-92786200D01*
X97695722Y-92346780D02*
X96931480Y-92346780D01*
X98423942Y-93075000D02*
X97695722Y-92346780D01*
X99112500Y-93075000D02*
X98423942Y-93075000D01*
%TO.N,Net-(J3-Pad7)*%
X97918540Y-93725000D02*
X97401380Y-93207840D01*
X99112500Y-93725000D02*
X97918540Y-93725000D01*
%TO.N,Net-(J3-Pad6)*%
X88738540Y-92961460D02*
X87000000Y-94700000D01*
X89928700Y-92961460D02*
X88738540Y-92961460D01*
X90692240Y-93725000D02*
X89928700Y-92961460D01*
X93387500Y-93725000D02*
X90692240Y-93725000D01*
%TO.N,Net-(J3-Pad5)*%
X87376590Y-92426190D02*
X87000000Y-92049600D01*
X90417560Y-92160000D02*
X87000000Y-92160000D01*
X91332560Y-93075000D02*
X90417560Y-92160000D01*
X93387500Y-93075000D02*
X91332560Y-93075000D01*
%TO.N,Net-(J3-Pad4)*%
X93657500Y-92422900D02*
X93654210Y-92426190D01*
X93657500Y-92401200D02*
X93657500Y-92422900D01*
X88790740Y-91300340D02*
X87000000Y-89509600D01*
X90604380Y-91300340D02*
X88790740Y-91300340D01*
X91729040Y-92425000D02*
X90604380Y-91300340D01*
X93387500Y-92425000D02*
X91729040Y-92425000D01*
%TO.N,Net-(J3-Pad3)*%
X87370920Y-86969600D02*
X87000000Y-86969600D01*
X92176320Y-91775000D02*
X87370920Y-86969600D01*
X93387500Y-91775000D02*
X92176320Y-91775000D01*
%TO.N,Net-(J3-Pad2)*%
X88874600Y-84429600D02*
X87000000Y-84429600D01*
X89542620Y-85097620D02*
X88874600Y-84429600D01*
X89542620Y-88379300D02*
X89542620Y-85097620D01*
X92288320Y-91125000D02*
X89542620Y-88379300D01*
X93387500Y-91125000D02*
X92288320Y-91125000D01*
%TO.N,Net-(J3-Pad1)*%
X92242000Y-97922080D02*
X92242000Y-97577280D01*
X94688660Y-96591120D02*
X95201740Y-96078040D01*
X95201740Y-96078040D02*
X95201740Y-90944700D01*
X92242000Y-97601262D02*
X93252142Y-96591120D01*
X93252142Y-96591120D02*
X94688660Y-96591120D01*
X92242000Y-97922080D02*
X92242000Y-97601262D01*
X94732040Y-90475000D02*
X95201740Y-90944700D01*
X93387500Y-90475000D02*
X94732040Y-90475000D01*
X88104980Y-81889600D02*
X87000000Y-81889600D01*
X90063320Y-83847940D02*
X88104980Y-81889600D01*
X90063320Y-87962740D02*
X90063320Y-83847940D01*
X92575580Y-90475000D02*
X90063320Y-87962740D01*
X93387500Y-90475000D02*
X92575580Y-90475000D01*
%TD*%
D18*
%TO.N,GND*%
X91095586Y-106300808D02*
X90728600Y-106300808D01*
X90604118Y-106313068D01*
X90484420Y-106349378D01*
X90374106Y-106408343D01*
X90277415Y-106487695D01*
X90198063Y-106584386D01*
X90139098Y-106694700D01*
X90102788Y-106814398D01*
X90090528Y-106938880D01*
X90090528Y-108488880D01*
X90102788Y-108613362D01*
X90139098Y-108733060D01*
X90198063Y-108843374D01*
X90277415Y-108940065D01*
X90374106Y-109019417D01*
X90484420Y-109078382D01*
X90604118Y-109114692D01*
X90618600Y-109116118D01*
X90618601Y-114261642D01*
X90604118Y-114263068D01*
X90484420Y-114299378D01*
X90374106Y-114358343D01*
X90277415Y-114437695D01*
X90198063Y-114534386D01*
X90139098Y-114644700D01*
X90102788Y-114764398D01*
X90090528Y-114888880D01*
X90090528Y-116438880D01*
X90102788Y-116563362D01*
X90139098Y-116683060D01*
X90198063Y-116793374D01*
X90277415Y-116890065D01*
X90374106Y-116969417D01*
X90484420Y-117028382D01*
X90604118Y-117064692D01*
X90728600Y-117076952D01*
X92028600Y-117076952D01*
X92153082Y-117064692D01*
X92272780Y-117028382D01*
X92383094Y-116969417D01*
X92479785Y-116890065D01*
X92559137Y-116793374D01*
X92618102Y-116683060D01*
X92654412Y-116563362D01*
X92658525Y-116521600D01*
X93271708Y-116521600D01*
X93283968Y-116646082D01*
X93320278Y-116765780D01*
X93379243Y-116876094D01*
X93458595Y-116972785D01*
X93555286Y-117052137D01*
X93665600Y-117111102D01*
X93785298Y-117147412D01*
X93909780Y-117159672D01*
X94474030Y-117156600D01*
X94632780Y-116997850D01*
X94632780Y-115798600D01*
X93433530Y-115798600D01*
X93274780Y-115957350D01*
X93271708Y-116521600D01*
X92658525Y-116521600D01*
X92666672Y-116438880D01*
X92666672Y-116025189D01*
X93290396Y-115401466D01*
X93433530Y-115544600D01*
X94632780Y-115544600D01*
X94632780Y-115524600D01*
X94886780Y-115524600D01*
X94886780Y-115544600D01*
X94906780Y-115544600D01*
X94906780Y-115798600D01*
X94886780Y-115798600D01*
X94886780Y-116997850D01*
X95045530Y-117156600D01*
X95609780Y-117159672D01*
X95734262Y-117147412D01*
X95853960Y-117111102D01*
X95964274Y-117052137D01*
X96060965Y-116972785D01*
X96140317Y-116876094D01*
X96199282Y-116765780D01*
X96221293Y-116693220D01*
X96353148Y-116825075D01*
X96596369Y-116987590D01*
X96866622Y-117099532D01*
X97153520Y-117156600D01*
X97446040Y-117156600D01*
X97732938Y-117099532D01*
X98003191Y-116987590D01*
X98246412Y-116825075D01*
X98453255Y-116618232D01*
X98569780Y-116443840D01*
X98686305Y-116618232D01*
X98893148Y-116825075D01*
X99136369Y-116987590D01*
X99406622Y-117099532D01*
X99693520Y-117156600D01*
X99986040Y-117156600D01*
X100272938Y-117099532D01*
X100543191Y-116987590D01*
X100786412Y-116825075D01*
X100993255Y-116618232D01*
X101109780Y-116443840D01*
X101226305Y-116618232D01*
X101433148Y-116825075D01*
X101676369Y-116987590D01*
X101946622Y-117099532D01*
X102233520Y-117156600D01*
X102526040Y-117156600D01*
X102812938Y-117099532D01*
X103083191Y-116987590D01*
X103326412Y-116825075D01*
X103533255Y-116618232D01*
X103695770Y-116375011D01*
X103807712Y-116104758D01*
X103864780Y-115817860D01*
X103864780Y-115525340D01*
X103807712Y-115238442D01*
X103695770Y-114968189D01*
X103533255Y-114724968D01*
X103326412Y-114518125D01*
X103121699Y-114381340D01*
X103901748Y-114381340D01*
X103914008Y-114505822D01*
X103950318Y-114625520D01*
X104009283Y-114735834D01*
X104088635Y-114832525D01*
X104185326Y-114911877D01*
X104295640Y-114970842D01*
X104415338Y-115007152D01*
X104539820Y-115019412D01*
X104954070Y-115016340D01*
X105112820Y-114857590D01*
X105112820Y-114020840D01*
X104063570Y-114020840D01*
X103904820Y-114179590D01*
X103901748Y-114381340D01*
X103121699Y-114381340D01*
X103083191Y-114355610D01*
X102812938Y-114243668D01*
X102526040Y-114186600D01*
X102233520Y-114186600D01*
X102013372Y-114230390D01*
X101124944Y-113341963D01*
X101101141Y-113312959D01*
X100985416Y-113217986D01*
X100853387Y-113147414D01*
X100710126Y-113103957D01*
X100598473Y-113092960D01*
X100598462Y-113092960D01*
X100561140Y-113089284D01*
X100523818Y-113092960D01*
X93801433Y-113092960D01*
X93764100Y-113089283D01*
X93726767Y-113092960D01*
X93615114Y-113103957D01*
X93471853Y-113147414D01*
X93339824Y-113217986D01*
X93224099Y-113312959D01*
X93200301Y-113341957D01*
X92249839Y-114292419D01*
X92153082Y-114263068D01*
X92138600Y-114261642D01*
X92138600Y-110966980D01*
X98448488Y-110966980D01*
X98460748Y-111091462D01*
X98497058Y-111211160D01*
X98556023Y-111321474D01*
X98635375Y-111418165D01*
X98732066Y-111497517D01*
X98842380Y-111556482D01*
X98962078Y-111592792D01*
X99086560Y-111605052D01*
X99800810Y-111601980D01*
X99959560Y-111443230D01*
X99959560Y-110343980D01*
X98610310Y-110343980D01*
X98451560Y-110502730D01*
X98448488Y-110966980D01*
X92138600Y-110966980D01*
X92138600Y-109116118D01*
X92148488Y-109115144D01*
X92148488Y-109816980D01*
X92160748Y-109941462D01*
X92197058Y-110061160D01*
X92256023Y-110171474D01*
X92335375Y-110268165D01*
X92432066Y-110347517D01*
X92542380Y-110406482D01*
X92662078Y-110442792D01*
X92786560Y-110455052D01*
X94786560Y-110455052D01*
X94911042Y-110442792D01*
X95030740Y-110406482D01*
X95141054Y-110347517D01*
X95237745Y-110268165D01*
X95317097Y-110171474D01*
X95376062Y-110061160D01*
X95412372Y-109941462D01*
X95424632Y-109816980D01*
X95424632Y-108676980D01*
X96059189Y-108676980D01*
X96186146Y-108803937D01*
X96355664Y-108917205D01*
X96544022Y-108995226D01*
X96743981Y-109035000D01*
X96947859Y-109035000D01*
X97147818Y-108995226D01*
X97336176Y-108917205D01*
X97505694Y-108803937D01*
X97549631Y-108760000D01*
X98452917Y-108760000D01*
X98457696Y-108760471D01*
X98460748Y-108791462D01*
X98497058Y-108911160D01*
X98556023Y-109021474D01*
X98593369Y-109066980D01*
X98556023Y-109112486D01*
X98497058Y-109222800D01*
X98460748Y-109342498D01*
X98448488Y-109466980D01*
X98451560Y-109931230D01*
X98610310Y-110089980D01*
X99959560Y-110089980D01*
X99959560Y-110069980D01*
X100213560Y-110069980D01*
X100213560Y-110089980D01*
X100233560Y-110089980D01*
X100233560Y-110343980D01*
X100213560Y-110343980D01*
X100213560Y-111443230D01*
X100372310Y-111601980D01*
X101086560Y-111605052D01*
X101211042Y-111592792D01*
X101330740Y-111556482D01*
X101441054Y-111497517D01*
X101537745Y-111418165D01*
X101585583Y-111359875D01*
X101676593Y-111434565D01*
X101830128Y-111516632D01*
X101996724Y-111567168D01*
X102169978Y-111584232D01*
X102694982Y-111584232D01*
X102868236Y-111567168D01*
X103034832Y-111516632D01*
X103188367Y-111434565D01*
X103322942Y-111324122D01*
X103344980Y-111297269D01*
X103367018Y-111324122D01*
X103501593Y-111434565D01*
X103655128Y-111516632D01*
X103821724Y-111567168D01*
X103926449Y-111577483D01*
X103918692Y-111603055D01*
X103901748Y-111775090D01*
X103901748Y-112262590D01*
X103918692Y-112434625D01*
X103968873Y-112600049D01*
X104050362Y-112752504D01*
X104160028Y-112886132D01*
X104166384Y-112891348D01*
X104088635Y-112955155D01*
X104009283Y-113051846D01*
X103950318Y-113162160D01*
X103914008Y-113281858D01*
X103901748Y-113406340D01*
X103904820Y-113608090D01*
X104063570Y-113766840D01*
X105112820Y-113766840D01*
X105112820Y-113746840D01*
X105366820Y-113746840D01*
X105366820Y-113766840D01*
X105386820Y-113766840D01*
X105386820Y-114020840D01*
X105366820Y-114020840D01*
X105366820Y-114857590D01*
X105525570Y-115016340D01*
X105939820Y-115019412D01*
X106064302Y-115007152D01*
X106184000Y-114970842D01*
X106294314Y-114911877D01*
X106340000Y-114874384D01*
X106340000Y-115967721D01*
X106311375Y-116259660D01*
X106235965Y-116509429D01*
X106113477Y-116739794D01*
X105948579Y-116941979D01*
X105747546Y-117108288D01*
X105518046Y-117232378D01*
X105268805Y-117309531D01*
X104978911Y-117340000D01*
X87032279Y-117340000D01*
X86740340Y-117311375D01*
X86490571Y-117235965D01*
X86260206Y-117113477D01*
X86213612Y-117075476D01*
X86228600Y-117076952D01*
X86592850Y-117073880D01*
X86751600Y-116915130D01*
X86751600Y-115790880D01*
X87005600Y-115790880D01*
X87005600Y-116915130D01*
X87164350Y-117073880D01*
X87528600Y-117076952D01*
X87653082Y-117064692D01*
X87772780Y-117028382D01*
X87883094Y-116969417D01*
X87979785Y-116890065D01*
X88059137Y-116793374D01*
X88118102Y-116683060D01*
X88154412Y-116563362D01*
X88166672Y-116438880D01*
X88163600Y-115949630D01*
X88004850Y-115790880D01*
X87005600Y-115790880D01*
X86751600Y-115790880D01*
X86731600Y-115790880D01*
X86731600Y-115536880D01*
X86751600Y-115536880D01*
X86751600Y-114412630D01*
X87005600Y-114412630D01*
X87005600Y-115536880D01*
X88004850Y-115536880D01*
X88163600Y-115378130D01*
X88166672Y-114888880D01*
X88154412Y-114764398D01*
X88118102Y-114644700D01*
X88059137Y-114534386D01*
X87979785Y-114437695D01*
X87883094Y-114358343D01*
X87772780Y-114299378D01*
X87653082Y-114263068D01*
X87528600Y-114250808D01*
X87164350Y-114253880D01*
X87005600Y-114412630D01*
X86751600Y-114412630D01*
X86592850Y-114253880D01*
X86228600Y-114250808D01*
X86104118Y-114263068D01*
X85984420Y-114299378D01*
X85874106Y-114358343D01*
X85777415Y-114437695D01*
X85698063Y-114534386D01*
X85660000Y-114605596D01*
X85660000Y-108772164D01*
X85698063Y-108843374D01*
X85777415Y-108940065D01*
X85874106Y-109019417D01*
X85984420Y-109078382D01*
X86104118Y-109114692D01*
X86228600Y-109126952D01*
X86592850Y-109123880D01*
X86751600Y-108965130D01*
X86751600Y-107840880D01*
X87005600Y-107840880D01*
X87005600Y-108965130D01*
X87164350Y-109123880D01*
X87528600Y-109126952D01*
X87653082Y-109114692D01*
X87772780Y-109078382D01*
X87883094Y-109019417D01*
X87979785Y-108940065D01*
X88059137Y-108843374D01*
X88118102Y-108733060D01*
X88154412Y-108613362D01*
X88166672Y-108488880D01*
X88163600Y-107999630D01*
X88004850Y-107840880D01*
X87005600Y-107840880D01*
X86751600Y-107840880D01*
X86731600Y-107840880D01*
X86731600Y-107586880D01*
X86751600Y-107586880D01*
X86751600Y-106462630D01*
X87005600Y-106462630D01*
X87005600Y-107586880D01*
X88004850Y-107586880D01*
X88163600Y-107428130D01*
X88166672Y-106938880D01*
X88154412Y-106814398D01*
X88118102Y-106694700D01*
X88059137Y-106584386D01*
X87979785Y-106487695D01*
X87883094Y-106408343D01*
X87772780Y-106349378D01*
X87653082Y-106313068D01*
X87528600Y-106300808D01*
X87164350Y-106303880D01*
X87005600Y-106462630D01*
X86751600Y-106462630D01*
X86592850Y-106303880D01*
X86228600Y-106300808D01*
X86104118Y-106313068D01*
X85984420Y-106349378D01*
X85874106Y-106408343D01*
X85777415Y-106487695D01*
X85698063Y-106584386D01*
X85660000Y-106655596D01*
X85660000Y-105483402D01*
X85728359Y-105626920D01*
X85902412Y-105860269D01*
X86118645Y-106055178D01*
X86368748Y-106204157D01*
X86643109Y-106301481D01*
X86873000Y-106180814D01*
X86873000Y-104987000D01*
X87127000Y-104987000D01*
X87127000Y-106180814D01*
X87356891Y-106301481D01*
X87631252Y-106204157D01*
X87881355Y-106055178D01*
X88097588Y-105860269D01*
X88271641Y-105626920D01*
X88396825Y-105364099D01*
X88441476Y-105216890D01*
X88320155Y-104987000D01*
X87127000Y-104987000D01*
X86873000Y-104987000D01*
X86853000Y-104987000D01*
X86853000Y-104733000D01*
X86873000Y-104733000D01*
X86873000Y-104713000D01*
X87127000Y-104713000D01*
X87127000Y-104733000D01*
X88320155Y-104733000D01*
X88441476Y-104503110D01*
X88396825Y-104355901D01*
X88271641Y-104093080D01*
X88097588Y-103859731D01*
X87881355Y-103664822D01*
X87764466Y-103595195D01*
X87946632Y-103473475D01*
X88107443Y-103312664D01*
X91095586Y-106300808D01*
%TA.AperFunction,Conductor*%
D19*
G36*
X91095586Y-106300808D02*
G01*
X90728600Y-106300808D01*
X90604118Y-106313068D01*
X90484420Y-106349378D01*
X90374106Y-106408343D01*
X90277415Y-106487695D01*
X90198063Y-106584386D01*
X90139098Y-106694700D01*
X90102788Y-106814398D01*
X90090528Y-106938880D01*
X90090528Y-108488880D01*
X90102788Y-108613362D01*
X90139098Y-108733060D01*
X90198063Y-108843374D01*
X90277415Y-108940065D01*
X90374106Y-109019417D01*
X90484420Y-109078382D01*
X90604118Y-109114692D01*
X90618600Y-109116118D01*
X90618601Y-114261642D01*
X90604118Y-114263068D01*
X90484420Y-114299378D01*
X90374106Y-114358343D01*
X90277415Y-114437695D01*
X90198063Y-114534386D01*
X90139098Y-114644700D01*
X90102788Y-114764398D01*
X90090528Y-114888880D01*
X90090528Y-116438880D01*
X90102788Y-116563362D01*
X90139098Y-116683060D01*
X90198063Y-116793374D01*
X90277415Y-116890065D01*
X90374106Y-116969417D01*
X90484420Y-117028382D01*
X90604118Y-117064692D01*
X90728600Y-117076952D01*
X92028600Y-117076952D01*
X92153082Y-117064692D01*
X92272780Y-117028382D01*
X92383094Y-116969417D01*
X92479785Y-116890065D01*
X92559137Y-116793374D01*
X92618102Y-116683060D01*
X92654412Y-116563362D01*
X92658525Y-116521600D01*
X93271708Y-116521600D01*
X93283968Y-116646082D01*
X93320278Y-116765780D01*
X93379243Y-116876094D01*
X93458595Y-116972785D01*
X93555286Y-117052137D01*
X93665600Y-117111102D01*
X93785298Y-117147412D01*
X93909780Y-117159672D01*
X94474030Y-117156600D01*
X94632780Y-116997850D01*
X94632780Y-115798600D01*
X93433530Y-115798600D01*
X93274780Y-115957350D01*
X93271708Y-116521600D01*
X92658525Y-116521600D01*
X92666672Y-116438880D01*
X92666672Y-116025189D01*
X93290396Y-115401466D01*
X93433530Y-115544600D01*
X94632780Y-115544600D01*
X94632780Y-115524600D01*
X94886780Y-115524600D01*
X94886780Y-115544600D01*
X94906780Y-115544600D01*
X94906780Y-115798600D01*
X94886780Y-115798600D01*
X94886780Y-116997850D01*
X95045530Y-117156600D01*
X95609780Y-117159672D01*
X95734262Y-117147412D01*
X95853960Y-117111102D01*
X95964274Y-117052137D01*
X96060965Y-116972785D01*
X96140317Y-116876094D01*
X96199282Y-116765780D01*
X96221293Y-116693220D01*
X96353148Y-116825075D01*
X96596369Y-116987590D01*
X96866622Y-117099532D01*
X97153520Y-117156600D01*
X97446040Y-117156600D01*
X97732938Y-117099532D01*
X98003191Y-116987590D01*
X98246412Y-116825075D01*
X98453255Y-116618232D01*
X98569780Y-116443840D01*
X98686305Y-116618232D01*
X98893148Y-116825075D01*
X99136369Y-116987590D01*
X99406622Y-117099532D01*
X99693520Y-117156600D01*
X99986040Y-117156600D01*
X100272938Y-117099532D01*
X100543191Y-116987590D01*
X100786412Y-116825075D01*
X100993255Y-116618232D01*
X101109780Y-116443840D01*
X101226305Y-116618232D01*
X101433148Y-116825075D01*
X101676369Y-116987590D01*
X101946622Y-117099532D01*
X102233520Y-117156600D01*
X102526040Y-117156600D01*
X102812938Y-117099532D01*
X103083191Y-116987590D01*
X103326412Y-116825075D01*
X103533255Y-116618232D01*
X103695770Y-116375011D01*
X103807712Y-116104758D01*
X103864780Y-115817860D01*
X103864780Y-115525340D01*
X103807712Y-115238442D01*
X103695770Y-114968189D01*
X103533255Y-114724968D01*
X103326412Y-114518125D01*
X103121699Y-114381340D01*
X103901748Y-114381340D01*
X103914008Y-114505822D01*
X103950318Y-114625520D01*
X104009283Y-114735834D01*
X104088635Y-114832525D01*
X104185326Y-114911877D01*
X104295640Y-114970842D01*
X104415338Y-115007152D01*
X104539820Y-115019412D01*
X104954070Y-115016340D01*
X105112820Y-114857590D01*
X105112820Y-114020840D01*
X104063570Y-114020840D01*
X103904820Y-114179590D01*
X103901748Y-114381340D01*
X103121699Y-114381340D01*
X103083191Y-114355610D01*
X102812938Y-114243668D01*
X102526040Y-114186600D01*
X102233520Y-114186600D01*
X102013372Y-114230390D01*
X101124944Y-113341963D01*
X101101141Y-113312959D01*
X100985416Y-113217986D01*
X100853387Y-113147414D01*
X100710126Y-113103957D01*
X100598473Y-113092960D01*
X100598462Y-113092960D01*
X100561140Y-113089284D01*
X100523818Y-113092960D01*
X93801433Y-113092960D01*
X93764100Y-113089283D01*
X93726767Y-113092960D01*
X93615114Y-113103957D01*
X93471853Y-113147414D01*
X93339824Y-113217986D01*
X93224099Y-113312959D01*
X93200301Y-113341957D01*
X92249839Y-114292419D01*
X92153082Y-114263068D01*
X92138600Y-114261642D01*
X92138600Y-110966980D01*
X98448488Y-110966980D01*
X98460748Y-111091462D01*
X98497058Y-111211160D01*
X98556023Y-111321474D01*
X98635375Y-111418165D01*
X98732066Y-111497517D01*
X98842380Y-111556482D01*
X98962078Y-111592792D01*
X99086560Y-111605052D01*
X99800810Y-111601980D01*
X99959560Y-111443230D01*
X99959560Y-110343980D01*
X98610310Y-110343980D01*
X98451560Y-110502730D01*
X98448488Y-110966980D01*
X92138600Y-110966980D01*
X92138600Y-109116118D01*
X92148488Y-109115144D01*
X92148488Y-109816980D01*
X92160748Y-109941462D01*
X92197058Y-110061160D01*
X92256023Y-110171474D01*
X92335375Y-110268165D01*
X92432066Y-110347517D01*
X92542380Y-110406482D01*
X92662078Y-110442792D01*
X92786560Y-110455052D01*
X94786560Y-110455052D01*
X94911042Y-110442792D01*
X95030740Y-110406482D01*
X95141054Y-110347517D01*
X95237745Y-110268165D01*
X95317097Y-110171474D01*
X95376062Y-110061160D01*
X95412372Y-109941462D01*
X95424632Y-109816980D01*
X95424632Y-108676980D01*
X96059189Y-108676980D01*
X96186146Y-108803937D01*
X96355664Y-108917205D01*
X96544022Y-108995226D01*
X96743981Y-109035000D01*
X96947859Y-109035000D01*
X97147818Y-108995226D01*
X97336176Y-108917205D01*
X97505694Y-108803937D01*
X97549631Y-108760000D01*
X98452917Y-108760000D01*
X98457696Y-108760471D01*
X98460748Y-108791462D01*
X98497058Y-108911160D01*
X98556023Y-109021474D01*
X98593369Y-109066980D01*
X98556023Y-109112486D01*
X98497058Y-109222800D01*
X98460748Y-109342498D01*
X98448488Y-109466980D01*
X98451560Y-109931230D01*
X98610310Y-110089980D01*
X99959560Y-110089980D01*
X99959560Y-110069980D01*
X100213560Y-110069980D01*
X100213560Y-110089980D01*
X100233560Y-110089980D01*
X100233560Y-110343980D01*
X100213560Y-110343980D01*
X100213560Y-111443230D01*
X100372310Y-111601980D01*
X101086560Y-111605052D01*
X101211042Y-111592792D01*
X101330740Y-111556482D01*
X101441054Y-111497517D01*
X101537745Y-111418165D01*
X101585583Y-111359875D01*
X101676593Y-111434565D01*
X101830128Y-111516632D01*
X101996724Y-111567168D01*
X102169978Y-111584232D01*
X102694982Y-111584232D01*
X102868236Y-111567168D01*
X103034832Y-111516632D01*
X103188367Y-111434565D01*
X103322942Y-111324122D01*
X103344980Y-111297269D01*
X103367018Y-111324122D01*
X103501593Y-111434565D01*
X103655128Y-111516632D01*
X103821724Y-111567168D01*
X103926449Y-111577483D01*
X103918692Y-111603055D01*
X103901748Y-111775090D01*
X103901748Y-112262590D01*
X103918692Y-112434625D01*
X103968873Y-112600049D01*
X104050362Y-112752504D01*
X104160028Y-112886132D01*
X104166384Y-112891348D01*
X104088635Y-112955155D01*
X104009283Y-113051846D01*
X103950318Y-113162160D01*
X103914008Y-113281858D01*
X103901748Y-113406340D01*
X103904820Y-113608090D01*
X104063570Y-113766840D01*
X105112820Y-113766840D01*
X105112820Y-113746840D01*
X105366820Y-113746840D01*
X105366820Y-113766840D01*
X105386820Y-113766840D01*
X105386820Y-114020840D01*
X105366820Y-114020840D01*
X105366820Y-114857590D01*
X105525570Y-115016340D01*
X105939820Y-115019412D01*
X106064302Y-115007152D01*
X106184000Y-114970842D01*
X106294314Y-114911877D01*
X106340000Y-114874384D01*
X106340000Y-115967721D01*
X106311375Y-116259660D01*
X106235965Y-116509429D01*
X106113477Y-116739794D01*
X105948579Y-116941979D01*
X105747546Y-117108288D01*
X105518046Y-117232378D01*
X105268805Y-117309531D01*
X104978911Y-117340000D01*
X87032279Y-117340000D01*
X86740340Y-117311375D01*
X86490571Y-117235965D01*
X86260206Y-117113477D01*
X86213612Y-117075476D01*
X86228600Y-117076952D01*
X86592850Y-117073880D01*
X86751600Y-116915130D01*
X86751600Y-115790880D01*
X87005600Y-115790880D01*
X87005600Y-116915130D01*
X87164350Y-117073880D01*
X87528600Y-117076952D01*
X87653082Y-117064692D01*
X87772780Y-117028382D01*
X87883094Y-116969417D01*
X87979785Y-116890065D01*
X88059137Y-116793374D01*
X88118102Y-116683060D01*
X88154412Y-116563362D01*
X88166672Y-116438880D01*
X88163600Y-115949630D01*
X88004850Y-115790880D01*
X87005600Y-115790880D01*
X86751600Y-115790880D01*
X86731600Y-115790880D01*
X86731600Y-115536880D01*
X86751600Y-115536880D01*
X86751600Y-114412630D01*
X87005600Y-114412630D01*
X87005600Y-115536880D01*
X88004850Y-115536880D01*
X88163600Y-115378130D01*
X88166672Y-114888880D01*
X88154412Y-114764398D01*
X88118102Y-114644700D01*
X88059137Y-114534386D01*
X87979785Y-114437695D01*
X87883094Y-114358343D01*
X87772780Y-114299378D01*
X87653082Y-114263068D01*
X87528600Y-114250808D01*
X87164350Y-114253880D01*
X87005600Y-114412630D01*
X86751600Y-114412630D01*
X86592850Y-114253880D01*
X86228600Y-114250808D01*
X86104118Y-114263068D01*
X85984420Y-114299378D01*
X85874106Y-114358343D01*
X85777415Y-114437695D01*
X85698063Y-114534386D01*
X85660000Y-114605596D01*
X85660000Y-108772164D01*
X85698063Y-108843374D01*
X85777415Y-108940065D01*
X85874106Y-109019417D01*
X85984420Y-109078382D01*
X86104118Y-109114692D01*
X86228600Y-109126952D01*
X86592850Y-109123880D01*
X86751600Y-108965130D01*
X86751600Y-107840880D01*
X87005600Y-107840880D01*
X87005600Y-108965130D01*
X87164350Y-109123880D01*
X87528600Y-109126952D01*
X87653082Y-109114692D01*
X87772780Y-109078382D01*
X87883094Y-109019417D01*
X87979785Y-108940065D01*
X88059137Y-108843374D01*
X88118102Y-108733060D01*
X88154412Y-108613362D01*
X88166672Y-108488880D01*
X88163600Y-107999630D01*
X88004850Y-107840880D01*
X87005600Y-107840880D01*
X86751600Y-107840880D01*
X86731600Y-107840880D01*
X86731600Y-107586880D01*
X86751600Y-107586880D01*
X86751600Y-106462630D01*
X87005600Y-106462630D01*
X87005600Y-107586880D01*
X88004850Y-107586880D01*
X88163600Y-107428130D01*
X88166672Y-106938880D01*
X88154412Y-106814398D01*
X88118102Y-106694700D01*
X88059137Y-106584386D01*
X87979785Y-106487695D01*
X87883094Y-106408343D01*
X87772780Y-106349378D01*
X87653082Y-106313068D01*
X87528600Y-106300808D01*
X87164350Y-106303880D01*
X87005600Y-106462630D01*
X86751600Y-106462630D01*
X86592850Y-106303880D01*
X86228600Y-106300808D01*
X86104118Y-106313068D01*
X85984420Y-106349378D01*
X85874106Y-106408343D01*
X85777415Y-106487695D01*
X85698063Y-106584386D01*
X85660000Y-106655596D01*
X85660000Y-105483402D01*
X85728359Y-105626920D01*
X85902412Y-105860269D01*
X86118645Y-106055178D01*
X86368748Y-106204157D01*
X86643109Y-106301481D01*
X86873000Y-106180814D01*
X86873000Y-104987000D01*
X87127000Y-104987000D01*
X87127000Y-106180814D01*
X87356891Y-106301481D01*
X87631252Y-106204157D01*
X87881355Y-106055178D01*
X88097588Y-105860269D01*
X88271641Y-105626920D01*
X88396825Y-105364099D01*
X88441476Y-105216890D01*
X88320155Y-104987000D01*
X87127000Y-104987000D01*
X86873000Y-104987000D01*
X86853000Y-104987000D01*
X86853000Y-104733000D01*
X86873000Y-104733000D01*
X86873000Y-104713000D01*
X87127000Y-104713000D01*
X87127000Y-104733000D01*
X88320155Y-104733000D01*
X88441476Y-104503110D01*
X88396825Y-104355901D01*
X88271641Y-104093080D01*
X88097588Y-103859731D01*
X87881355Y-103664822D01*
X87764466Y-103595195D01*
X87946632Y-103473475D01*
X88107443Y-103312664D01*
X91095586Y-106300808D01*
G37*
%TD.AperFunction*%
D18*
X106340000Y-111176391D02*
X106319612Y-111151548D01*
X106185984Y-111041882D01*
X106033529Y-110960393D01*
X105999820Y-110950167D01*
X105999820Y-110926103D01*
X106003496Y-110888780D01*
X105999820Y-110851457D01*
X105999820Y-110851447D01*
X105988823Y-110739794D01*
X105945366Y-110596533D01*
X105874795Y-110464505D01*
X105874794Y-110464503D01*
X105803619Y-110377777D01*
X105779821Y-110348779D01*
X105750824Y-110324982D01*
X105408052Y-109982211D01*
X105408052Y-109796158D01*
X105390988Y-109622904D01*
X105340452Y-109456308D01*
X105258385Y-109302773D01*
X105147942Y-109168198D01*
X105013367Y-109057755D01*
X104859832Y-108975688D01*
X104693236Y-108925152D01*
X104519982Y-108908088D01*
X103994978Y-108908088D01*
X103821724Y-108925152D01*
X103789100Y-108935048D01*
X103891682Y-108850862D01*
X104002125Y-108716286D01*
X104084192Y-108562750D01*
X104134728Y-108396154D01*
X104151792Y-108222900D01*
X104151792Y-107722900D01*
X104134728Y-107549646D01*
X104084192Y-107383050D01*
X104002125Y-107229514D01*
X103891682Y-107094938D01*
X103885126Y-107089558D01*
X103964905Y-107024085D01*
X104044257Y-106927394D01*
X104103222Y-106817080D01*
X104139532Y-106697382D01*
X104151792Y-106572900D01*
X104148720Y-106358650D01*
X103989972Y-106199902D01*
X104148720Y-106199902D01*
X104148720Y-106077187D01*
X104296589Y-106175990D01*
X104566842Y-106287932D01*
X104853740Y-106345000D01*
X105146260Y-106345000D01*
X105433158Y-106287932D01*
X105703411Y-106175990D01*
X105946632Y-106013475D01*
X106153475Y-105806632D01*
X106315990Y-105563411D01*
X106340000Y-105505445D01*
X106340000Y-111176391D01*
%TA.AperFunction,Conductor*%
D19*
G36*
X106340000Y-111176391D02*
G01*
X106319612Y-111151548D01*
X106185984Y-111041882D01*
X106033529Y-110960393D01*
X105999820Y-110950167D01*
X105999820Y-110926103D01*
X106003496Y-110888780D01*
X105999820Y-110851457D01*
X105999820Y-110851447D01*
X105988823Y-110739794D01*
X105945366Y-110596533D01*
X105874795Y-110464505D01*
X105874794Y-110464503D01*
X105803619Y-110377777D01*
X105779821Y-110348779D01*
X105750824Y-110324982D01*
X105408052Y-109982211D01*
X105408052Y-109796158D01*
X105390988Y-109622904D01*
X105340452Y-109456308D01*
X105258385Y-109302773D01*
X105147942Y-109168198D01*
X105013367Y-109057755D01*
X104859832Y-108975688D01*
X104693236Y-108925152D01*
X104519982Y-108908088D01*
X103994978Y-108908088D01*
X103821724Y-108925152D01*
X103789100Y-108935048D01*
X103891682Y-108850862D01*
X104002125Y-108716286D01*
X104084192Y-108562750D01*
X104134728Y-108396154D01*
X104151792Y-108222900D01*
X104151792Y-107722900D01*
X104134728Y-107549646D01*
X104084192Y-107383050D01*
X104002125Y-107229514D01*
X103891682Y-107094938D01*
X103885126Y-107089558D01*
X103964905Y-107024085D01*
X104044257Y-106927394D01*
X104103222Y-106817080D01*
X104139532Y-106697382D01*
X104151792Y-106572900D01*
X104148720Y-106358650D01*
X103989972Y-106199902D01*
X104148720Y-106199902D01*
X104148720Y-106077187D01*
X104296589Y-106175990D01*
X104566842Y-106287932D01*
X104853740Y-106345000D01*
X105146260Y-106345000D01*
X105433158Y-106287932D01*
X105703411Y-106175990D01*
X105946632Y-106013475D01*
X106153475Y-105806632D01*
X106315990Y-105563411D01*
X106340000Y-105505445D01*
X106340000Y-111176391D01*
G37*
%TD.AperFunction*%
D18*
X88607864Y-94815925D02*
X88796222Y-94893946D01*
X88996181Y-94933720D01*
X89057208Y-94933720D01*
X89098286Y-94967431D01*
X89082615Y-94990884D01*
X89004594Y-95179242D01*
X88964820Y-95379201D01*
X88964820Y-95583079D01*
X89004594Y-95783038D01*
X89082615Y-95971396D01*
X89195883Y-96140914D01*
X89340046Y-96285077D01*
X89509564Y-96398345D01*
X89697922Y-96476366D01*
X89897881Y-96516140D01*
X90101759Y-96516140D01*
X90158025Y-96504948D01*
X90252523Y-96646374D01*
X90396686Y-96790537D01*
X90566204Y-96903805D01*
X90754562Y-96981826D01*
X90954521Y-97021600D01*
X91158399Y-97021600D01*
X91225270Y-97008299D01*
X91159028Y-97132228D01*
X91108492Y-97298824D01*
X91091428Y-97472078D01*
X91091428Y-98372082D01*
X91108492Y-98545336D01*
X91159028Y-98711932D01*
X91241095Y-98865467D01*
X91351538Y-99000042D01*
X91486113Y-99110485D01*
X91639648Y-99192552D01*
X91708264Y-99213366D01*
X91625020Y-99238618D01*
X91514706Y-99297583D01*
X91418015Y-99376935D01*
X91338663Y-99473626D01*
X91279698Y-99583940D01*
X91243388Y-99703638D01*
X91231128Y-99828120D01*
X91234200Y-100242370D01*
X91392950Y-100401120D01*
X92229700Y-100401120D01*
X92229700Y-100381120D01*
X92483700Y-100381120D01*
X92483700Y-100401120D01*
X92503700Y-100401120D01*
X92503700Y-100655120D01*
X92483700Y-100655120D01*
X92483700Y-101704370D01*
X92642450Y-101863120D01*
X92844200Y-101866192D01*
X92968682Y-101853932D01*
X93088380Y-101817622D01*
X93198694Y-101758657D01*
X93295385Y-101679305D01*
X93359192Y-101601556D01*
X93364408Y-101607912D01*
X93498036Y-101717578D01*
X93650491Y-101799067D01*
X93815915Y-101849248D01*
X93987950Y-101866192D01*
X94475450Y-101866192D01*
X94647485Y-101849248D01*
X94812909Y-101799067D01*
X94965364Y-101717578D01*
X95098992Y-101607912D01*
X95208658Y-101474284D01*
X95290147Y-101321829D01*
X95340328Y-101156405D01*
X95357272Y-100984370D01*
X95357272Y-100071870D01*
X95340328Y-99899835D01*
X95290147Y-99734411D01*
X95208658Y-99581956D01*
X95098992Y-99448328D01*
X94991700Y-99360275D01*
X94991700Y-98958323D01*
X95067905Y-98865467D01*
X95149972Y-98711932D01*
X95200508Y-98545336D01*
X95217572Y-98372082D01*
X95217572Y-97472078D01*
X95200508Y-97298824D01*
X95165388Y-97183048D01*
X95228661Y-97131121D01*
X95252463Y-97102118D01*
X95632270Y-96722311D01*
X97266841Y-98356883D01*
X97290639Y-98385881D01*
X97375178Y-98455260D01*
X96235058Y-99595381D01*
X96206060Y-99619179D01*
X96182262Y-99648177D01*
X96182261Y-99648178D01*
X96111086Y-99734904D01*
X96040514Y-99866934D01*
X96010240Y-99966738D01*
X96001559Y-99995358D01*
X95997058Y-100010195D01*
X95982384Y-100159180D01*
X95986061Y-100196512D01*
X95986060Y-106218497D01*
X95982384Y-106255820D01*
X95986060Y-106293142D01*
X95986060Y-106293152D01*
X95997057Y-106404805D01*
X96014598Y-106462630D01*
X96040514Y-106548066D01*
X96111086Y-106680096D01*
X96150931Y-106728646D01*
X96206059Y-106795821D01*
X96235063Y-106819624D01*
X96456476Y-107041037D01*
X96355664Y-107082795D01*
X96244638Y-107156980D01*
X95424632Y-107156980D01*
X95424632Y-106016980D01*
X95412372Y-105892498D01*
X95376062Y-105772800D01*
X95317097Y-105662486D01*
X95237745Y-105565795D01*
X95141054Y-105486443D01*
X95030740Y-105427478D01*
X94911042Y-105391168D01*
X94786560Y-105378908D01*
X92786560Y-105378908D01*
X92662078Y-105391168D01*
X92542380Y-105427478D01*
X92432066Y-105486443D01*
X92431384Y-105487003D01*
X88642984Y-101698603D01*
X88619181Y-101669599D01*
X88503456Y-101574626D01*
X88371427Y-101504054D01*
X88228166Y-101460597D01*
X88210604Y-101458867D01*
X88153475Y-101373368D01*
X88008227Y-101228120D01*
X91231128Y-101228120D01*
X91243388Y-101352602D01*
X91279698Y-101472300D01*
X91338663Y-101582614D01*
X91418015Y-101679305D01*
X91514706Y-101758657D01*
X91625020Y-101817622D01*
X91744718Y-101853932D01*
X91869200Y-101866192D01*
X92070950Y-101863120D01*
X92229700Y-101704370D01*
X92229700Y-100655120D01*
X91392950Y-100655120D01*
X91234200Y-100813870D01*
X91231128Y-101228120D01*
X88008227Y-101228120D01*
X87946632Y-101166525D01*
X87772240Y-101050000D01*
X87946632Y-100933475D01*
X88153475Y-100726632D01*
X88315990Y-100483411D01*
X88427932Y-100213158D01*
X88485000Y-99926260D01*
X88485000Y-99633740D01*
X88427932Y-99346842D01*
X88315990Y-99076589D01*
X88153475Y-98833368D01*
X87946632Y-98626525D01*
X87772240Y-98510000D01*
X87946632Y-98393475D01*
X88153475Y-98186632D01*
X88315990Y-97943411D01*
X88427932Y-97673158D01*
X88485000Y-97386260D01*
X88485000Y-97093740D01*
X88427932Y-96806842D01*
X88315990Y-96536589D01*
X88153475Y-96293368D01*
X87946632Y-96086525D01*
X87772240Y-95970000D01*
X87946632Y-95853475D01*
X88153475Y-95646632D01*
X88315990Y-95403411D01*
X88427932Y-95133158D01*
X88485000Y-94846260D01*
X88485000Y-94733830D01*
X88607864Y-94815925D01*
%TA.AperFunction,Conductor*%
D19*
G36*
X88607864Y-94815925D02*
G01*
X88796222Y-94893946D01*
X88996181Y-94933720D01*
X89057208Y-94933720D01*
X89098286Y-94967431D01*
X89082615Y-94990884D01*
X89004594Y-95179242D01*
X88964820Y-95379201D01*
X88964820Y-95583079D01*
X89004594Y-95783038D01*
X89082615Y-95971396D01*
X89195883Y-96140914D01*
X89340046Y-96285077D01*
X89509564Y-96398345D01*
X89697922Y-96476366D01*
X89897881Y-96516140D01*
X90101759Y-96516140D01*
X90158025Y-96504948D01*
X90252523Y-96646374D01*
X90396686Y-96790537D01*
X90566204Y-96903805D01*
X90754562Y-96981826D01*
X90954521Y-97021600D01*
X91158399Y-97021600D01*
X91225270Y-97008299D01*
X91159028Y-97132228D01*
X91108492Y-97298824D01*
X91091428Y-97472078D01*
X91091428Y-98372082D01*
X91108492Y-98545336D01*
X91159028Y-98711932D01*
X91241095Y-98865467D01*
X91351538Y-99000042D01*
X91486113Y-99110485D01*
X91639648Y-99192552D01*
X91708264Y-99213366D01*
X91625020Y-99238618D01*
X91514706Y-99297583D01*
X91418015Y-99376935D01*
X91338663Y-99473626D01*
X91279698Y-99583940D01*
X91243388Y-99703638D01*
X91231128Y-99828120D01*
X91234200Y-100242370D01*
X91392950Y-100401120D01*
X92229700Y-100401120D01*
X92229700Y-100381120D01*
X92483700Y-100381120D01*
X92483700Y-100401120D01*
X92503700Y-100401120D01*
X92503700Y-100655120D01*
X92483700Y-100655120D01*
X92483700Y-101704370D01*
X92642450Y-101863120D01*
X92844200Y-101866192D01*
X92968682Y-101853932D01*
X93088380Y-101817622D01*
X93198694Y-101758657D01*
X93295385Y-101679305D01*
X93359192Y-101601556D01*
X93364408Y-101607912D01*
X93498036Y-101717578D01*
X93650491Y-101799067D01*
X93815915Y-101849248D01*
X93987950Y-101866192D01*
X94475450Y-101866192D01*
X94647485Y-101849248D01*
X94812909Y-101799067D01*
X94965364Y-101717578D01*
X95098992Y-101607912D01*
X95208658Y-101474284D01*
X95290147Y-101321829D01*
X95340328Y-101156405D01*
X95357272Y-100984370D01*
X95357272Y-100071870D01*
X95340328Y-99899835D01*
X95290147Y-99734411D01*
X95208658Y-99581956D01*
X95098992Y-99448328D01*
X94991700Y-99360275D01*
X94991700Y-98958323D01*
X95067905Y-98865467D01*
X95149972Y-98711932D01*
X95200508Y-98545336D01*
X95217572Y-98372082D01*
X95217572Y-97472078D01*
X95200508Y-97298824D01*
X95165388Y-97183048D01*
X95228661Y-97131121D01*
X95252463Y-97102118D01*
X95632270Y-96722311D01*
X97266841Y-98356883D01*
X97290639Y-98385881D01*
X97375178Y-98455260D01*
X96235058Y-99595381D01*
X96206060Y-99619179D01*
X96182262Y-99648177D01*
X96182261Y-99648178D01*
X96111086Y-99734904D01*
X96040514Y-99866934D01*
X96010240Y-99966738D01*
X96001559Y-99995358D01*
X95997058Y-100010195D01*
X95982384Y-100159180D01*
X95986061Y-100196512D01*
X95986060Y-106218497D01*
X95982384Y-106255820D01*
X95986060Y-106293142D01*
X95986060Y-106293152D01*
X95997057Y-106404805D01*
X96014598Y-106462630D01*
X96040514Y-106548066D01*
X96111086Y-106680096D01*
X96150931Y-106728646D01*
X96206059Y-106795821D01*
X96235063Y-106819624D01*
X96456476Y-107041037D01*
X96355664Y-107082795D01*
X96244638Y-107156980D01*
X95424632Y-107156980D01*
X95424632Y-106016980D01*
X95412372Y-105892498D01*
X95376062Y-105772800D01*
X95317097Y-105662486D01*
X95237745Y-105565795D01*
X95141054Y-105486443D01*
X95030740Y-105427478D01*
X94911042Y-105391168D01*
X94786560Y-105378908D01*
X92786560Y-105378908D01*
X92662078Y-105391168D01*
X92542380Y-105427478D01*
X92432066Y-105486443D01*
X92431384Y-105487003D01*
X88642984Y-101698603D01*
X88619181Y-101669599D01*
X88503456Y-101574626D01*
X88371427Y-101504054D01*
X88228166Y-101460597D01*
X88210604Y-101458867D01*
X88153475Y-101373368D01*
X88008227Y-101228120D01*
X91231128Y-101228120D01*
X91243388Y-101352602D01*
X91279698Y-101472300D01*
X91338663Y-101582614D01*
X91418015Y-101679305D01*
X91514706Y-101758657D01*
X91625020Y-101817622D01*
X91744718Y-101853932D01*
X91869200Y-101866192D01*
X92070950Y-101863120D01*
X92229700Y-101704370D01*
X92229700Y-100655120D01*
X91392950Y-100655120D01*
X91234200Y-100813870D01*
X91231128Y-101228120D01*
X88008227Y-101228120D01*
X87946632Y-101166525D01*
X87772240Y-101050000D01*
X87946632Y-100933475D01*
X88153475Y-100726632D01*
X88315990Y-100483411D01*
X88427932Y-100213158D01*
X88485000Y-99926260D01*
X88485000Y-99633740D01*
X88427932Y-99346842D01*
X88315990Y-99076589D01*
X88153475Y-98833368D01*
X87946632Y-98626525D01*
X87772240Y-98510000D01*
X87946632Y-98393475D01*
X88153475Y-98186632D01*
X88315990Y-97943411D01*
X88427932Y-97673158D01*
X88485000Y-97386260D01*
X88485000Y-97093740D01*
X88427932Y-96806842D01*
X88315990Y-96536589D01*
X88153475Y-96293368D01*
X87946632Y-96086525D01*
X87772240Y-95970000D01*
X87946632Y-95853475D01*
X88153475Y-95646632D01*
X88315990Y-95403411D01*
X88427932Y-95133158D01*
X88485000Y-94846260D01*
X88485000Y-94733830D01*
X88607864Y-94815925D01*
G37*
%TD.AperFunction*%
D18*
X97980840Y-100216970D02*
X98139590Y-100375720D01*
X98988840Y-100375720D01*
X98988840Y-100355720D01*
X99242840Y-100355720D01*
X99242840Y-100375720D01*
X99262840Y-100375720D01*
X99262840Y-100629720D01*
X99242840Y-100629720D01*
X99242840Y-101703970D01*
X99352230Y-101813360D01*
X99202200Y-101963390D01*
X99202200Y-103037640D01*
X99222200Y-103037640D01*
X99222200Y-103291640D01*
X99202200Y-103291640D01*
X99202200Y-103311640D01*
X98948200Y-103311640D01*
X98948200Y-103291640D01*
X98098950Y-103291640D01*
X97940200Y-103450390D01*
X97937128Y-103889640D01*
X97949388Y-104014122D01*
X97985698Y-104133820D01*
X98044663Y-104244134D01*
X98124015Y-104340825D01*
X98220706Y-104420177D01*
X98331020Y-104479142D01*
X98450718Y-104515452D01*
X98549250Y-104525156D01*
X98497058Y-104622800D01*
X98460748Y-104742498D01*
X98448488Y-104866980D01*
X98448488Y-106366980D01*
X98460748Y-106491462D01*
X98497058Y-106611160D01*
X98556023Y-106721474D01*
X98593369Y-106766980D01*
X98556023Y-106812486D01*
X98497058Y-106922800D01*
X98494913Y-106929871D01*
X97506060Y-105941019D01*
X97506060Y-102439640D01*
X97937128Y-102439640D01*
X97940200Y-102878890D01*
X98098950Y-103037640D01*
X98948200Y-103037640D01*
X98948200Y-101963390D01*
X98838810Y-101854000D01*
X98988840Y-101703970D01*
X98988840Y-100629720D01*
X98139590Y-100629720D01*
X97980840Y-100788470D01*
X97977768Y-101227720D01*
X97990028Y-101352202D01*
X98026338Y-101471900D01*
X98085303Y-101582214D01*
X98164655Y-101678905D01*
X98261346Y-101758257D01*
X98371660Y-101817222D01*
X98405595Y-101827516D01*
X98331020Y-101850138D01*
X98220706Y-101909103D01*
X98124015Y-101988455D01*
X98044663Y-102085146D01*
X97985698Y-102195460D01*
X97949388Y-102315158D01*
X97937128Y-102439640D01*
X97506060Y-102439640D01*
X97506060Y-100473981D01*
X97979328Y-100000714D01*
X97980840Y-100216970D01*
%TA.AperFunction,Conductor*%
D19*
G36*
X97980840Y-100216970D02*
G01*
X98139590Y-100375720D01*
X98988840Y-100375720D01*
X98988840Y-100355720D01*
X99242840Y-100355720D01*
X99242840Y-100375720D01*
X99262840Y-100375720D01*
X99262840Y-100629720D01*
X99242840Y-100629720D01*
X99242840Y-101703970D01*
X99352230Y-101813360D01*
X99202200Y-101963390D01*
X99202200Y-103037640D01*
X99222200Y-103037640D01*
X99222200Y-103291640D01*
X99202200Y-103291640D01*
X99202200Y-103311640D01*
X98948200Y-103311640D01*
X98948200Y-103291640D01*
X98098950Y-103291640D01*
X97940200Y-103450390D01*
X97937128Y-103889640D01*
X97949388Y-104014122D01*
X97985698Y-104133820D01*
X98044663Y-104244134D01*
X98124015Y-104340825D01*
X98220706Y-104420177D01*
X98331020Y-104479142D01*
X98450718Y-104515452D01*
X98549250Y-104525156D01*
X98497058Y-104622800D01*
X98460748Y-104742498D01*
X98448488Y-104866980D01*
X98448488Y-106366980D01*
X98460748Y-106491462D01*
X98497058Y-106611160D01*
X98556023Y-106721474D01*
X98593369Y-106766980D01*
X98556023Y-106812486D01*
X98497058Y-106922800D01*
X98494913Y-106929871D01*
X97506060Y-105941019D01*
X97506060Y-102439640D01*
X97937128Y-102439640D01*
X97940200Y-102878890D01*
X98098950Y-103037640D01*
X98948200Y-103037640D01*
X98948200Y-101963390D01*
X98838810Y-101854000D01*
X98988840Y-101703970D01*
X98988840Y-100629720D01*
X98139590Y-100629720D01*
X97980840Y-100788470D01*
X97977768Y-101227720D01*
X97990028Y-101352202D01*
X98026338Y-101471900D01*
X98085303Y-101582214D01*
X98164655Y-101678905D01*
X98261346Y-101758257D01*
X98371660Y-101817222D01*
X98405595Y-101827516D01*
X98331020Y-101850138D01*
X98220706Y-101909103D01*
X98124015Y-101988455D01*
X98044663Y-102085146D01*
X97985698Y-102195460D01*
X97949388Y-102315158D01*
X97937128Y-102439640D01*
X97506060Y-102439640D01*
X97506060Y-100473981D01*
X97979328Y-100000714D01*
X97980840Y-100216970D01*
G37*
%TD.AperFunction*%
D18*
X103558790Y-104493592D02*
X103515000Y-104713740D01*
X103515000Y-104934954D01*
X103513720Y-104934828D01*
X103074470Y-104937900D01*
X102915720Y-105096650D01*
X102915720Y-105945900D01*
X102935720Y-105945900D01*
X102935720Y-106199900D01*
X102915720Y-106199900D01*
X102915720Y-106219900D01*
X102661720Y-106219900D01*
X102661720Y-106199900D01*
X102641720Y-106199900D01*
X102641720Y-105945900D01*
X102661720Y-105945900D01*
X102661720Y-105096650D01*
X102502970Y-104937900D01*
X102063720Y-104934828D01*
X101939238Y-104947088D01*
X101819540Y-104983398D01*
X101724632Y-105034128D01*
X101724632Y-104866980D01*
X101712372Y-104742498D01*
X101676062Y-104622800D01*
X101617097Y-104512486D01*
X101571351Y-104456744D01*
X101718586Y-104378045D01*
X101853162Y-104267602D01*
X101950870Y-104148543D01*
X101996602Y-104167486D01*
X102196561Y-104207260D01*
X102400439Y-104207260D01*
X102600398Y-104167486D01*
X102788756Y-104089465D01*
X102958274Y-103976197D01*
X102999835Y-103934636D01*
X103558790Y-104493592D01*
%TA.AperFunction,Conductor*%
D19*
G36*
X103558790Y-104493592D02*
G01*
X103515000Y-104713740D01*
X103515000Y-104934954D01*
X103513720Y-104934828D01*
X103074470Y-104937900D01*
X102915720Y-105096650D01*
X102915720Y-105945900D01*
X102935720Y-105945900D01*
X102935720Y-106199900D01*
X102915720Y-106199900D01*
X102915720Y-106219900D01*
X102661720Y-106219900D01*
X102661720Y-106199900D01*
X102641720Y-106199900D01*
X102641720Y-105945900D01*
X102661720Y-105945900D01*
X102661720Y-105096650D01*
X102502970Y-104937900D01*
X102063720Y-104934828D01*
X101939238Y-104947088D01*
X101819540Y-104983398D01*
X101724632Y-105034128D01*
X101724632Y-104866980D01*
X101712372Y-104742498D01*
X101676062Y-104622800D01*
X101617097Y-104512486D01*
X101571351Y-104456744D01*
X101718586Y-104378045D01*
X101853162Y-104267602D01*
X101950870Y-104148543D01*
X101996602Y-104167486D01*
X102196561Y-104207260D01*
X102400439Y-104207260D01*
X102600398Y-104167486D01*
X102788756Y-104089465D01*
X102958274Y-103976197D01*
X102999835Y-103934636D01*
X103558790Y-104493592D01*
G37*
%TD.AperFunction*%
D18*
X104053368Y-95853475D02*
X104227760Y-95970000D01*
X104053368Y-96086525D01*
X103846525Y-96293368D01*
X103684010Y-96536589D01*
X103572068Y-96806842D01*
X103515000Y-97093740D01*
X103515000Y-97386260D01*
X103572068Y-97673158D01*
X103684010Y-97943411D01*
X103846525Y-98186632D01*
X104053368Y-98393475D01*
X104227760Y-98510000D01*
X104053368Y-98626525D01*
X103846525Y-98833368D01*
X103684010Y-99076589D01*
X103572068Y-99346842D01*
X103515000Y-99633740D01*
X103515000Y-99926260D01*
X103572068Y-100213158D01*
X103684010Y-100483411D01*
X103846525Y-100726632D01*
X104053368Y-100933475D01*
X104227760Y-101050000D01*
X104053368Y-101166525D01*
X103846525Y-101373368D01*
X103684010Y-101616589D01*
X103572068Y-101886842D01*
X103515000Y-102173740D01*
X103515000Y-102300198D01*
X102153912Y-100939111D01*
X102153912Y-100027720D01*
X102136848Y-99854466D01*
X102086312Y-99687870D01*
X102004245Y-99534334D01*
X101893802Y-99399758D01*
X101759226Y-99289315D01*
X101644360Y-99227918D01*
X101644360Y-99030910D01*
X101774822Y-98923842D01*
X101885265Y-98789267D01*
X101967332Y-98635732D01*
X102017868Y-98469136D01*
X102034932Y-98295882D01*
X102034932Y-97395878D01*
X102017868Y-97222624D01*
X101967332Y-97056028D01*
X101915865Y-96959742D01*
X101922845Y-96949296D01*
X102000866Y-96760938D01*
X102040640Y-96560979D01*
X102040640Y-96435000D01*
X102707398Y-96435000D01*
X102744720Y-96438676D01*
X102782042Y-96435000D01*
X102782053Y-96435000D01*
X102893706Y-96424003D01*
X103036967Y-96380546D01*
X103168996Y-96309974D01*
X103284721Y-96215001D01*
X103308524Y-96185998D01*
X103847207Y-95647314D01*
X104053368Y-95853475D01*
%TA.AperFunction,Conductor*%
D19*
G36*
X104053368Y-95853475D02*
G01*
X104227760Y-95970000D01*
X104053368Y-96086525D01*
X103846525Y-96293368D01*
X103684010Y-96536589D01*
X103572068Y-96806842D01*
X103515000Y-97093740D01*
X103515000Y-97386260D01*
X103572068Y-97673158D01*
X103684010Y-97943411D01*
X103846525Y-98186632D01*
X104053368Y-98393475D01*
X104227760Y-98510000D01*
X104053368Y-98626525D01*
X103846525Y-98833368D01*
X103684010Y-99076589D01*
X103572068Y-99346842D01*
X103515000Y-99633740D01*
X103515000Y-99926260D01*
X103572068Y-100213158D01*
X103684010Y-100483411D01*
X103846525Y-100726632D01*
X104053368Y-100933475D01*
X104227760Y-101050000D01*
X104053368Y-101166525D01*
X103846525Y-101373368D01*
X103684010Y-101616589D01*
X103572068Y-101886842D01*
X103515000Y-102173740D01*
X103515000Y-102300198D01*
X102153912Y-100939111D01*
X102153912Y-100027720D01*
X102136848Y-99854466D01*
X102086312Y-99687870D01*
X102004245Y-99534334D01*
X101893802Y-99399758D01*
X101759226Y-99289315D01*
X101644360Y-99227918D01*
X101644360Y-99030910D01*
X101774822Y-98923842D01*
X101885265Y-98789267D01*
X101967332Y-98635732D01*
X102017868Y-98469136D01*
X102034932Y-98295882D01*
X102034932Y-97395878D01*
X102017868Y-97222624D01*
X101967332Y-97056028D01*
X101915865Y-96959742D01*
X101922845Y-96949296D01*
X102000866Y-96760938D01*
X102040640Y-96560979D01*
X102040640Y-96435000D01*
X102707398Y-96435000D01*
X102744720Y-96438676D01*
X102782042Y-96435000D01*
X102782053Y-96435000D01*
X102893706Y-96424003D01*
X103036967Y-96380546D01*
X103168996Y-96309974D01*
X103284721Y-96215001D01*
X103308524Y-96185998D01*
X103847207Y-95647314D01*
X104053368Y-95853475D01*
G37*
%TD.AperFunction*%
D18*
X92184453Y-96584008D02*
X91979498Y-96584008D01*
X91896614Y-96592171D01*
X91973665Y-96476856D01*
X91991002Y-96435000D01*
X92333460Y-96435000D01*
X92184453Y-96584008D01*
%TA.AperFunction,Conductor*%
D19*
G36*
X92184453Y-96584008D02*
G01*
X91979498Y-96584008D01*
X91896614Y-96592171D01*
X91973665Y-96476856D01*
X91991002Y-96435000D01*
X92333460Y-96435000D01*
X92184453Y-96584008D01*
G37*
%TD.AperFunction*%
D18*
X96838370Y-90731462D02*
X96764466Y-90780843D01*
X96620303Y-90925006D01*
X96540860Y-91043901D01*
X96540860Y-90433952D01*
X96838370Y-90731462D01*
%TA.AperFunction,Conductor*%
D19*
G36*
X96838370Y-90731462D02*
G01*
X96764466Y-90780843D01*
X96620303Y-90925006D01*
X96540860Y-91043901D01*
X96540860Y-90433952D01*
X96838370Y-90731462D01*
G37*
%TD.AperFunction*%
D18*
X89866858Y-90540340D02*
X89105542Y-90540340D01*
X88459526Y-89894325D01*
X88485000Y-89766260D01*
X88485000Y-89473740D01*
X88427932Y-89186842D01*
X88367525Y-89041007D01*
X89866858Y-90540340D01*
%TA.AperFunction,Conductor*%
D19*
G36*
X89866858Y-90540340D02*
G01*
X89105542Y-90540340D01*
X88459526Y-89894325D01*
X88485000Y-89766260D01*
X88485000Y-89473740D01*
X88427932Y-89186842D01*
X88367525Y-89041007D01*
X89866858Y-90540340D01*
G37*
%TD.AperFunction*%
D18*
X102941084Y-87239105D02*
X103129442Y-87317126D01*
X103329401Y-87356900D01*
X103533279Y-87356900D01*
X103540693Y-87355425D01*
X103558790Y-87446408D01*
X102282802Y-88722397D01*
X102282797Y-88722401D01*
X101578008Y-89427191D01*
X101290199Y-89715000D01*
X100485000Y-89715000D01*
X100485000Y-89697998D01*
X100380252Y-89697998D01*
X100454418Y-89623832D01*
X100507438Y-89613286D01*
X100695796Y-89535265D01*
X100865314Y-89421997D01*
X101009477Y-89277834D01*
X101122745Y-89108316D01*
X101200766Y-88919958D01*
X101240540Y-88719999D01*
X101240540Y-88657861D01*
X102527019Y-87371383D01*
X102527023Y-87371378D01*
X102772165Y-87126237D01*
X102941084Y-87239105D01*
%TA.AperFunction,Conductor*%
D19*
G36*
X102941084Y-87239105D02*
G01*
X103129442Y-87317126D01*
X103329401Y-87356900D01*
X103533279Y-87356900D01*
X103540693Y-87355425D01*
X103558790Y-87446408D01*
X102282802Y-88722397D01*
X102282797Y-88722401D01*
X101578008Y-89427191D01*
X101290199Y-89715000D01*
X100485000Y-89715000D01*
X100485000Y-89697998D01*
X100380252Y-89697998D01*
X100454418Y-89623832D01*
X100507438Y-89613286D01*
X100695796Y-89535265D01*
X100865314Y-89421997D01*
X101009477Y-89277834D01*
X101122745Y-89108316D01*
X101200766Y-88919958D01*
X101240540Y-88719999D01*
X101240540Y-88657861D01*
X102527019Y-87371383D01*
X102527023Y-87371378D01*
X102772165Y-87126237D01*
X102941084Y-87239105D01*
G37*
%TD.AperFunction*%
D18*
X93131301Y-87621060D02*
X93193438Y-87621060D01*
X93305080Y-87732702D01*
X93328879Y-87761701D01*
X93444604Y-87856674D01*
X93576633Y-87927246D01*
X93638283Y-87945947D01*
X93655195Y-87977587D01*
X93765638Y-88112162D01*
X93900213Y-88222605D01*
X94053748Y-88304672D01*
X94220344Y-88355208D01*
X94393598Y-88372272D01*
X94479181Y-88372272D01*
X95171909Y-89065000D01*
X94348401Y-89065000D01*
X94307448Y-89043110D01*
X94168991Y-89001110D01*
X94025000Y-88986928D01*
X92942090Y-88986928D01*
X92360020Y-88404859D01*
X92360020Y-88359010D01*
X92414870Y-88342372D01*
X92568406Y-88260305D01*
X92702982Y-88149862D01*
X92813425Y-88015286D01*
X92895492Y-87861750D01*
X92946028Y-87695154D01*
X92956745Y-87586339D01*
X93131301Y-87621060D01*
%TA.AperFunction,Conductor*%
D19*
G36*
X93131301Y-87621060D02*
G01*
X93193438Y-87621060D01*
X93305080Y-87732702D01*
X93328879Y-87761701D01*
X93444604Y-87856674D01*
X93576633Y-87927246D01*
X93638283Y-87945947D01*
X93655195Y-87977587D01*
X93765638Y-88112162D01*
X93900213Y-88222605D01*
X94053748Y-88304672D01*
X94220344Y-88355208D01*
X94393598Y-88372272D01*
X94479181Y-88372272D01*
X95171909Y-89065000D01*
X94348401Y-89065000D01*
X94307448Y-89043110D01*
X94168991Y-89001110D01*
X94025000Y-88986928D01*
X92942090Y-88986928D01*
X92360020Y-88404859D01*
X92360020Y-88359010D01*
X92414870Y-88342372D01*
X92568406Y-88260305D01*
X92702982Y-88149862D01*
X92813425Y-88015286D01*
X92895492Y-87861750D01*
X92946028Y-87695154D01*
X92956745Y-87586339D01*
X93131301Y-87621060D01*
G37*
%TD.AperFunction*%
D18*
X96263246Y-83801557D02*
X96373560Y-83860522D01*
X96493258Y-83896832D01*
X96617740Y-83909092D01*
X97031990Y-83906020D01*
X97088287Y-83849723D01*
X97033654Y-83951933D01*
X96990197Y-84095194D01*
X96979200Y-84206847D01*
X96979200Y-84206858D01*
X96975524Y-84244180D01*
X96976558Y-84254674D01*
X96949348Y-84262928D01*
X96795813Y-84344995D01*
X96661238Y-84455438D01*
X96550795Y-84590013D01*
X96468728Y-84743548D01*
X96418192Y-84910144D01*
X96401128Y-85083398D01*
X96401128Y-85608402D01*
X96418192Y-85781656D01*
X96468728Y-85948252D01*
X96550795Y-86101787D01*
X96661238Y-86236362D01*
X96688091Y-86258400D01*
X96661238Y-86280438D01*
X96550795Y-86415013D01*
X96468728Y-86568548D01*
X96418192Y-86735144D01*
X96401128Y-86908398D01*
X96401128Y-87433402D01*
X96418192Y-87606656D01*
X96468728Y-87773252D01*
X96550795Y-87926787D01*
X96661238Y-88061362D01*
X96795813Y-88171805D01*
X96949348Y-88253872D01*
X96979200Y-88262928D01*
X96979201Y-88722689D01*
X96102400Y-87845889D01*
X96114072Y-87824052D01*
X96164608Y-87657456D01*
X96181672Y-87484202D01*
X96181672Y-86959198D01*
X96164608Y-86785944D01*
X96114072Y-86619348D01*
X96032005Y-86465813D01*
X95921562Y-86331238D01*
X95894709Y-86309200D01*
X95921562Y-86287162D01*
X96032005Y-86152587D01*
X96114072Y-85999052D01*
X96164608Y-85832456D01*
X96181672Y-85659202D01*
X96181672Y-85134198D01*
X96164608Y-84960944D01*
X96114072Y-84794348D01*
X96032005Y-84640813D01*
X95921562Y-84506238D01*
X95786987Y-84395795D01*
X95633452Y-84313728D01*
X95603600Y-84304673D01*
X95603600Y-83909092D01*
X95817740Y-83909092D01*
X95942222Y-83896832D01*
X96061920Y-83860522D01*
X96172234Y-83801557D01*
X96217740Y-83764211D01*
X96263246Y-83801557D01*
%TA.AperFunction,Conductor*%
D19*
G36*
X96263246Y-83801557D02*
G01*
X96373560Y-83860522D01*
X96493258Y-83896832D01*
X96617740Y-83909092D01*
X97031990Y-83906020D01*
X97088287Y-83849723D01*
X97033654Y-83951933D01*
X96990197Y-84095194D01*
X96979200Y-84206847D01*
X96979200Y-84206858D01*
X96975524Y-84244180D01*
X96976558Y-84254674D01*
X96949348Y-84262928D01*
X96795813Y-84344995D01*
X96661238Y-84455438D01*
X96550795Y-84590013D01*
X96468728Y-84743548D01*
X96418192Y-84910144D01*
X96401128Y-85083398D01*
X96401128Y-85608402D01*
X96418192Y-85781656D01*
X96468728Y-85948252D01*
X96550795Y-86101787D01*
X96661238Y-86236362D01*
X96688091Y-86258400D01*
X96661238Y-86280438D01*
X96550795Y-86415013D01*
X96468728Y-86568548D01*
X96418192Y-86735144D01*
X96401128Y-86908398D01*
X96401128Y-87433402D01*
X96418192Y-87606656D01*
X96468728Y-87773252D01*
X96550795Y-87926787D01*
X96661238Y-88061362D01*
X96795813Y-88171805D01*
X96949348Y-88253872D01*
X96979200Y-88262928D01*
X96979201Y-88722689D01*
X96102400Y-87845889D01*
X96114072Y-87824052D01*
X96164608Y-87657456D01*
X96181672Y-87484202D01*
X96181672Y-86959198D01*
X96164608Y-86785944D01*
X96114072Y-86619348D01*
X96032005Y-86465813D01*
X95921562Y-86331238D01*
X95894709Y-86309200D01*
X95921562Y-86287162D01*
X96032005Y-86152587D01*
X96114072Y-85999052D01*
X96164608Y-85832456D01*
X96181672Y-85659202D01*
X96181672Y-85134198D01*
X96164608Y-84960944D01*
X96114072Y-84794348D01*
X96032005Y-84640813D01*
X95921562Y-84506238D01*
X95786987Y-84395795D01*
X95633452Y-84313728D01*
X95603600Y-84304673D01*
X95603600Y-83909092D01*
X95817740Y-83909092D01*
X95942222Y-83896832D01*
X96061920Y-83860522D01*
X96172234Y-83801557D01*
X96217740Y-83764211D01*
X96263246Y-83801557D01*
G37*
%TD.AperFunction*%
D18*
X88782621Y-85412423D02*
X88782620Y-87306499D01*
X88485000Y-87008879D01*
X88485000Y-86933740D01*
X88427932Y-86646842D01*
X88315990Y-86376589D01*
X88153475Y-86133368D01*
X87946632Y-85926525D01*
X87772240Y-85810000D01*
X87946632Y-85693475D01*
X88153475Y-85486632D01*
X88315990Y-85243411D01*
X88338279Y-85189600D01*
X88559799Y-85189600D01*
X88782621Y-85412423D01*
%TA.AperFunction,Conductor*%
D19*
G36*
X88782621Y-85412423D02*
G01*
X88782620Y-87306499D01*
X88485000Y-87008879D01*
X88485000Y-86933740D01*
X88427932Y-86646842D01*
X88315990Y-86376589D01*
X88153475Y-86133368D01*
X87946632Y-85926525D01*
X87772240Y-85810000D01*
X87946632Y-85693475D01*
X88153475Y-85486632D01*
X88315990Y-85243411D01*
X88338279Y-85189600D01*
X88559799Y-85189600D01*
X88782621Y-85412423D01*
G37*
%TD.AperFunction*%
D18*
X93828238Y-83515200D02*
X93887203Y-83625514D01*
X93966555Y-83722205D01*
X94063246Y-83801557D01*
X94083601Y-83812437D01*
X94083600Y-84304672D01*
X94053748Y-84313728D01*
X93900213Y-84395795D01*
X93765638Y-84506238D01*
X93655195Y-84640813D01*
X93573128Y-84794348D01*
X93522592Y-84960944D01*
X93505528Y-85134198D01*
X93505528Y-85584944D01*
X93335179Y-85551060D01*
X93131301Y-85551060D01*
X92931342Y-85590834D01*
X92904374Y-85602004D01*
X92801270Y-85498900D01*
X91727020Y-85498900D01*
X91727020Y-85518900D01*
X91473020Y-85518900D01*
X91473020Y-85498900D01*
X91453020Y-85498900D01*
X91453020Y-85244900D01*
X91473020Y-85244900D01*
X91473020Y-84395650D01*
X91727020Y-84395650D01*
X91727020Y-85244900D01*
X92801270Y-85244900D01*
X92960020Y-85086150D01*
X92963092Y-84871900D01*
X92950832Y-84747418D01*
X92914522Y-84627720D01*
X92855557Y-84517406D01*
X92776205Y-84420715D01*
X92679514Y-84341363D01*
X92569200Y-84282398D01*
X92449502Y-84246088D01*
X92325020Y-84233828D01*
X91885770Y-84236900D01*
X91727020Y-84395650D01*
X91473020Y-84395650D01*
X91314270Y-84236900D01*
X90875020Y-84233828D01*
X90823320Y-84238920D01*
X90823320Y-83885262D01*
X90826996Y-83847940D01*
X90823320Y-83810617D01*
X90823320Y-83810607D01*
X90822454Y-83801814D01*
X90929950Y-83859272D01*
X91096546Y-83909808D01*
X91269800Y-83926872D01*
X92219800Y-83926872D01*
X92393054Y-83909808D01*
X92559650Y-83859272D01*
X92713186Y-83777205D01*
X92847762Y-83666762D01*
X92958205Y-83532186D01*
X93012280Y-83431020D01*
X93802702Y-83431020D01*
X93828238Y-83515200D01*
%TA.AperFunction,Conductor*%
D19*
G36*
X93828238Y-83515200D02*
G01*
X93887203Y-83625514D01*
X93966555Y-83722205D01*
X94063246Y-83801557D01*
X94083601Y-83812437D01*
X94083600Y-84304672D01*
X94053748Y-84313728D01*
X93900213Y-84395795D01*
X93765638Y-84506238D01*
X93655195Y-84640813D01*
X93573128Y-84794348D01*
X93522592Y-84960944D01*
X93505528Y-85134198D01*
X93505528Y-85584944D01*
X93335179Y-85551060D01*
X93131301Y-85551060D01*
X92931342Y-85590834D01*
X92904374Y-85602004D01*
X92801270Y-85498900D01*
X91727020Y-85498900D01*
X91727020Y-85518900D01*
X91473020Y-85518900D01*
X91473020Y-85498900D01*
X91453020Y-85498900D01*
X91453020Y-85244900D01*
X91473020Y-85244900D01*
X91473020Y-84395650D01*
X91727020Y-84395650D01*
X91727020Y-85244900D01*
X92801270Y-85244900D01*
X92960020Y-85086150D01*
X92963092Y-84871900D01*
X92950832Y-84747418D01*
X92914522Y-84627720D01*
X92855557Y-84517406D01*
X92776205Y-84420715D01*
X92679514Y-84341363D01*
X92569200Y-84282398D01*
X92449502Y-84246088D01*
X92325020Y-84233828D01*
X91885770Y-84236900D01*
X91727020Y-84395650D01*
X91473020Y-84395650D01*
X91314270Y-84236900D01*
X90875020Y-84233828D01*
X90823320Y-84238920D01*
X90823320Y-83885262D01*
X90826996Y-83847940D01*
X90823320Y-83810617D01*
X90823320Y-83810607D01*
X90822454Y-83801814D01*
X90929950Y-83859272D01*
X91096546Y-83909808D01*
X91269800Y-83926872D01*
X92219800Y-83926872D01*
X92393054Y-83909808D01*
X92559650Y-83859272D01*
X92713186Y-83777205D01*
X92847762Y-83666762D01*
X92958205Y-83532186D01*
X93012280Y-83431020D01*
X93802702Y-83431020D01*
X93828238Y-83515200D01*
G37*
%TD.AperFunction*%
D18*
X106065424Y-78669580D02*
X106128356Y-78688580D01*
X106186405Y-78719445D01*
X106237343Y-78760989D01*
X106279248Y-78811644D01*
X106310515Y-78869471D01*
X106329956Y-78932272D01*
X106340001Y-79027845D01*
X106340001Y-80746113D01*
X106301185Y-80698815D01*
X106204494Y-80619463D01*
X106094180Y-80560498D01*
X105974482Y-80524188D01*
X105850000Y-80511928D01*
X104150000Y-80511928D01*
X104025518Y-80524188D01*
X103905820Y-80560498D01*
X103795506Y-80619463D01*
X103698815Y-80698815D01*
X103619463Y-80795506D01*
X103560498Y-80905820D01*
X103524188Y-81025518D01*
X103511928Y-81150000D01*
X103511928Y-82850000D01*
X103524188Y-82974482D01*
X103560498Y-83094180D01*
X103619463Y-83204494D01*
X103698815Y-83301185D01*
X103751570Y-83344480D01*
X102410687Y-83344480D01*
X102408820Y-83214250D01*
X102250070Y-83055500D01*
X101175820Y-83055500D01*
X101175820Y-83075500D01*
X100921820Y-83075500D01*
X100921820Y-83055500D01*
X100901820Y-83055500D01*
X100901820Y-82801500D01*
X100921820Y-82801500D01*
X100921820Y-82781500D01*
X101175820Y-82781500D01*
X101175820Y-82801500D01*
X102250070Y-82801500D01*
X102408820Y-82642750D01*
X102411892Y-82428500D01*
X102399632Y-82304018D01*
X102363322Y-82184320D01*
X102304357Y-82074006D01*
X102225005Y-81977315D01*
X102145226Y-81911842D01*
X102151782Y-81906462D01*
X102262225Y-81771886D01*
X102344292Y-81618350D01*
X102394828Y-81451754D01*
X102411892Y-81278500D01*
X102411892Y-80778500D01*
X102394828Y-80605246D01*
X102344292Y-80438650D01*
X102262225Y-80285114D01*
X102151782Y-80150538D01*
X102017206Y-80040095D01*
X101863670Y-79958028D01*
X101697074Y-79907492D01*
X101523820Y-79890428D01*
X100573820Y-79890428D01*
X100400566Y-79907492D01*
X100233970Y-79958028D01*
X100080434Y-80040095D01*
X99945858Y-80150538D01*
X99896222Y-80211020D01*
X98632778Y-80211020D01*
X98607242Y-80126840D01*
X98548277Y-80016526D01*
X98468925Y-79919835D01*
X98372234Y-79840483D01*
X98261920Y-79781518D01*
X98142222Y-79745208D01*
X98017740Y-79732948D01*
X96617740Y-79732948D01*
X96493258Y-79745208D01*
X96373560Y-79781518D01*
X96263246Y-79840483D01*
X96217740Y-79877829D01*
X96172234Y-79840483D01*
X96061920Y-79781518D01*
X95942222Y-79745208D01*
X95817740Y-79732948D01*
X95403490Y-79736020D01*
X95244740Y-79894770D01*
X95244740Y-80844020D01*
X95264740Y-80844020D01*
X95264740Y-81098020D01*
X95244740Y-81098020D01*
X95244740Y-81118020D01*
X94990740Y-81118020D01*
X94990740Y-81098020D01*
X93941490Y-81098020D01*
X93782740Y-81256770D01*
X93779668Y-81571020D01*
X93791928Y-81695502D01*
X93828238Y-81815200D01*
X93831349Y-81821020D01*
X93828238Y-81826840D01*
X93802702Y-81911020D01*
X92847911Y-81911020D01*
X92847762Y-81910838D01*
X92841206Y-81905458D01*
X92920985Y-81839985D01*
X93000337Y-81743294D01*
X93059302Y-81632980D01*
X93095612Y-81513282D01*
X93107872Y-81388800D01*
X93104800Y-81174550D01*
X92946050Y-81015800D01*
X91871800Y-81015800D01*
X91871800Y-81035800D01*
X91617800Y-81035800D01*
X91617800Y-81015800D01*
X90543550Y-81015800D01*
X90384800Y-81174550D01*
X90381728Y-81388800D01*
X90393988Y-81513282D01*
X90430298Y-81632980D01*
X90489263Y-81743294D01*
X90568615Y-81839985D01*
X90648394Y-81905458D01*
X90641838Y-81910838D01*
X90531395Y-82045414D01*
X90449328Y-82198950D01*
X90398792Y-82365546D01*
X90381728Y-82538800D01*
X90381728Y-83038800D01*
X90387491Y-83097309D01*
X88668784Y-81378603D01*
X88644981Y-81349599D01*
X88529256Y-81254626D01*
X88488072Y-81232612D01*
X88488072Y-81150000D01*
X88475812Y-81025518D01*
X88439502Y-80905820D01*
X88380537Y-80795506D01*
X88301185Y-80698815D01*
X88204494Y-80619463D01*
X88094180Y-80560498D01*
X87974482Y-80524188D01*
X87850000Y-80511928D01*
X86150000Y-80511928D01*
X86025518Y-80524188D01*
X85905820Y-80560498D01*
X85795506Y-80619463D01*
X85698815Y-80698815D01*
X85660000Y-80746111D01*
X85660000Y-80388800D01*
X90381728Y-80388800D01*
X90384800Y-80603050D01*
X90543550Y-80761800D01*
X91617800Y-80761800D01*
X91617800Y-79912550D01*
X91871800Y-79912550D01*
X91871800Y-80761800D01*
X92946050Y-80761800D01*
X93104800Y-80603050D01*
X93107872Y-80388800D01*
X93106121Y-80371020D01*
X93779668Y-80371020D01*
X93782740Y-80685270D01*
X93941490Y-80844020D01*
X94990740Y-80844020D01*
X94990740Y-79894770D01*
X94831990Y-79736020D01*
X94417740Y-79732948D01*
X94293258Y-79745208D01*
X94173560Y-79781518D01*
X94063246Y-79840483D01*
X93966555Y-79919835D01*
X93887203Y-80016526D01*
X93828238Y-80126840D01*
X93791928Y-80246538D01*
X93779668Y-80371020D01*
X93106121Y-80371020D01*
X93095612Y-80264318D01*
X93059302Y-80144620D01*
X93000337Y-80034306D01*
X92920985Y-79937615D01*
X92824294Y-79858263D01*
X92713980Y-79799298D01*
X92594282Y-79762988D01*
X92469800Y-79750728D01*
X92030550Y-79753800D01*
X91871800Y-79912550D01*
X91617800Y-79912550D01*
X91459050Y-79753800D01*
X91019800Y-79750728D01*
X90895318Y-79762988D01*
X90775620Y-79799298D01*
X90665306Y-79858263D01*
X90568615Y-79937615D01*
X90489263Y-80034306D01*
X90430298Y-80144620D01*
X90393988Y-80264318D01*
X90381728Y-80388800D01*
X85660000Y-80388800D01*
X85660000Y-79032279D01*
X85669580Y-78934576D01*
X85688580Y-78871644D01*
X85719445Y-78813595D01*
X85760989Y-78762657D01*
X85811644Y-78720752D01*
X85869471Y-78689485D01*
X85932272Y-78670044D01*
X86027835Y-78660000D01*
X105967721Y-78660000D01*
X106065424Y-78669580D01*
%TA.AperFunction,Conductor*%
D19*
G36*
X106065424Y-78669580D02*
G01*
X106128356Y-78688580D01*
X106186405Y-78719445D01*
X106237343Y-78760989D01*
X106279248Y-78811644D01*
X106310515Y-78869471D01*
X106329956Y-78932272D01*
X106340001Y-79027845D01*
X106340001Y-80746113D01*
X106301185Y-80698815D01*
X106204494Y-80619463D01*
X106094180Y-80560498D01*
X105974482Y-80524188D01*
X105850000Y-80511928D01*
X104150000Y-80511928D01*
X104025518Y-80524188D01*
X103905820Y-80560498D01*
X103795506Y-80619463D01*
X103698815Y-80698815D01*
X103619463Y-80795506D01*
X103560498Y-80905820D01*
X103524188Y-81025518D01*
X103511928Y-81150000D01*
X103511928Y-82850000D01*
X103524188Y-82974482D01*
X103560498Y-83094180D01*
X103619463Y-83204494D01*
X103698815Y-83301185D01*
X103751570Y-83344480D01*
X102410687Y-83344480D01*
X102408820Y-83214250D01*
X102250070Y-83055500D01*
X101175820Y-83055500D01*
X101175820Y-83075500D01*
X100921820Y-83075500D01*
X100921820Y-83055500D01*
X100901820Y-83055500D01*
X100901820Y-82801500D01*
X100921820Y-82801500D01*
X100921820Y-82781500D01*
X101175820Y-82781500D01*
X101175820Y-82801500D01*
X102250070Y-82801500D01*
X102408820Y-82642750D01*
X102411892Y-82428500D01*
X102399632Y-82304018D01*
X102363322Y-82184320D01*
X102304357Y-82074006D01*
X102225005Y-81977315D01*
X102145226Y-81911842D01*
X102151782Y-81906462D01*
X102262225Y-81771886D01*
X102344292Y-81618350D01*
X102394828Y-81451754D01*
X102411892Y-81278500D01*
X102411892Y-80778500D01*
X102394828Y-80605246D01*
X102344292Y-80438650D01*
X102262225Y-80285114D01*
X102151782Y-80150538D01*
X102017206Y-80040095D01*
X101863670Y-79958028D01*
X101697074Y-79907492D01*
X101523820Y-79890428D01*
X100573820Y-79890428D01*
X100400566Y-79907492D01*
X100233970Y-79958028D01*
X100080434Y-80040095D01*
X99945858Y-80150538D01*
X99896222Y-80211020D01*
X98632778Y-80211020D01*
X98607242Y-80126840D01*
X98548277Y-80016526D01*
X98468925Y-79919835D01*
X98372234Y-79840483D01*
X98261920Y-79781518D01*
X98142222Y-79745208D01*
X98017740Y-79732948D01*
X96617740Y-79732948D01*
X96493258Y-79745208D01*
X96373560Y-79781518D01*
X96263246Y-79840483D01*
X96217740Y-79877829D01*
X96172234Y-79840483D01*
X96061920Y-79781518D01*
X95942222Y-79745208D01*
X95817740Y-79732948D01*
X95403490Y-79736020D01*
X95244740Y-79894770D01*
X95244740Y-80844020D01*
X95264740Y-80844020D01*
X95264740Y-81098020D01*
X95244740Y-81098020D01*
X95244740Y-81118020D01*
X94990740Y-81118020D01*
X94990740Y-81098020D01*
X93941490Y-81098020D01*
X93782740Y-81256770D01*
X93779668Y-81571020D01*
X93791928Y-81695502D01*
X93828238Y-81815200D01*
X93831349Y-81821020D01*
X93828238Y-81826840D01*
X93802702Y-81911020D01*
X92847911Y-81911020D01*
X92847762Y-81910838D01*
X92841206Y-81905458D01*
X92920985Y-81839985D01*
X93000337Y-81743294D01*
X93059302Y-81632980D01*
X93095612Y-81513282D01*
X93107872Y-81388800D01*
X93104800Y-81174550D01*
X92946050Y-81015800D01*
X91871800Y-81015800D01*
X91871800Y-81035800D01*
X91617800Y-81035800D01*
X91617800Y-81015800D01*
X90543550Y-81015800D01*
X90384800Y-81174550D01*
X90381728Y-81388800D01*
X90393988Y-81513282D01*
X90430298Y-81632980D01*
X90489263Y-81743294D01*
X90568615Y-81839985D01*
X90648394Y-81905458D01*
X90641838Y-81910838D01*
X90531395Y-82045414D01*
X90449328Y-82198950D01*
X90398792Y-82365546D01*
X90381728Y-82538800D01*
X90381728Y-83038800D01*
X90387491Y-83097309D01*
X88668784Y-81378603D01*
X88644981Y-81349599D01*
X88529256Y-81254626D01*
X88488072Y-81232612D01*
X88488072Y-81150000D01*
X88475812Y-81025518D01*
X88439502Y-80905820D01*
X88380537Y-80795506D01*
X88301185Y-80698815D01*
X88204494Y-80619463D01*
X88094180Y-80560498D01*
X87974482Y-80524188D01*
X87850000Y-80511928D01*
X86150000Y-80511928D01*
X86025518Y-80524188D01*
X85905820Y-80560498D01*
X85795506Y-80619463D01*
X85698815Y-80698815D01*
X85660000Y-80746111D01*
X85660000Y-80388800D01*
X90381728Y-80388800D01*
X90384800Y-80603050D01*
X90543550Y-80761800D01*
X91617800Y-80761800D01*
X91617800Y-79912550D01*
X91871800Y-79912550D01*
X91871800Y-80761800D01*
X92946050Y-80761800D01*
X93104800Y-80603050D01*
X93107872Y-80388800D01*
X93106121Y-80371020D01*
X93779668Y-80371020D01*
X93782740Y-80685270D01*
X93941490Y-80844020D01*
X94990740Y-80844020D01*
X94990740Y-79894770D01*
X94831990Y-79736020D01*
X94417740Y-79732948D01*
X94293258Y-79745208D01*
X94173560Y-79781518D01*
X94063246Y-79840483D01*
X93966555Y-79919835D01*
X93887203Y-80016526D01*
X93828238Y-80126840D01*
X93791928Y-80246538D01*
X93779668Y-80371020D01*
X93106121Y-80371020D01*
X93095612Y-80264318D01*
X93059302Y-80144620D01*
X93000337Y-80034306D01*
X92920985Y-79937615D01*
X92824294Y-79858263D01*
X92713980Y-79799298D01*
X92594282Y-79762988D01*
X92469800Y-79750728D01*
X92030550Y-79753800D01*
X91871800Y-79912550D01*
X91617800Y-79912550D01*
X91459050Y-79753800D01*
X91019800Y-79750728D01*
X90895318Y-79762988D01*
X90775620Y-79799298D01*
X90665306Y-79858263D01*
X90568615Y-79937615D01*
X90489263Y-80034306D01*
X90430298Y-80144620D01*
X90393988Y-80264318D01*
X90381728Y-80388800D01*
X85660000Y-80388800D01*
X85660000Y-79032279D01*
X85669580Y-78934576D01*
X85688580Y-78871644D01*
X85719445Y-78813595D01*
X85760989Y-78762657D01*
X85811644Y-78720752D01*
X85869471Y-78689485D01*
X85932272Y-78670044D01*
X86027835Y-78660000D01*
X105967721Y-78660000D01*
X106065424Y-78669580D01*
G37*
%TD.AperFunction*%
D18*
X97444740Y-82544020D02*
X97464740Y-82544020D01*
X97464740Y-82798020D01*
X97444740Y-82798020D01*
X97444740Y-82818020D01*
X97190740Y-82818020D01*
X97190740Y-82798020D01*
X97170740Y-82798020D01*
X97170740Y-82544020D01*
X97190740Y-82544020D01*
X97190740Y-82524020D01*
X97444740Y-82524020D01*
X97444740Y-82544020D01*
%TA.AperFunction,Conductor*%
D19*
G36*
X97444740Y-82544020D02*
G01*
X97464740Y-82544020D01*
X97464740Y-82798020D01*
X97444740Y-82798020D01*
X97444740Y-82818020D01*
X97190740Y-82818020D01*
X97190740Y-82798020D01*
X97170740Y-82798020D01*
X97170740Y-82544020D01*
X97190740Y-82544020D01*
X97190740Y-82524020D01*
X97444740Y-82524020D01*
X97444740Y-82544020D01*
G37*
%TD.AperFunction*%
%TD*%
M02*
