%TF.GenerationSoftware,KiCad,Pcbnew,(5.1.10)-1*%
%TF.CreationDate,2021-10-19T17:14:30+03:00*%
%TF.ProjectId,msp,6d73702e-6b69-4636-9164-5f7063625858,rev?*%
%TF.SameCoordinates,Original*%
%TF.FileFunction,Copper,L2,Bot*%
%TF.FilePolarity,Positive*%
%FSLAX46Y46*%
G04 Gerber Fmt 4.6, Leading zero omitted, Abs format (unit mm)*
G04 Created by KiCad (PCBNEW (5.1.10)-1) date 2021-10-19 17:14:30*
%MOMM*%
%LPD*%
G01*
G04 APERTURE LIST*
%TA.AperFunction,ComponentPad*%
%ADD10R,1.700000X1.700000*%
%TD*%
%TA.AperFunction,ComponentPad*%
%ADD11O,1.700000X1.700000*%
%TD*%
%TA.AperFunction,ViaPad*%
%ADD12C,0.800000*%
%TD*%
%TA.AperFunction,Conductor*%
%ADD13C,0.250000*%
%TD*%
%TA.AperFunction,Conductor*%
%ADD14C,0.254000*%
%TD*%
%TA.AperFunction,Conductor*%
%ADD15C,0.100000*%
%TD*%
G04 APERTURE END LIST*
D10*
%TO.P,J1,1*%
%TO.N,GND*%
X94759780Y-115671600D03*
D11*
%TO.P,J1,2*%
%TO.N,+3V3*%
X97299780Y-115671600D03*
%TO.P,J1,3*%
%TO.N,/TEST*%
X99839780Y-115671600D03*
%TO.P,J1,4*%
%TO.N,/RST*%
X102379780Y-115671600D03*
%TD*%
D10*
%TO.P,J2,1*%
%TO.N,+5V*%
X105000000Y-82000000D03*
D11*
%TO.P,J2,2*%
%TO.N,/X2*%
X105000000Y-84540000D03*
%TO.P,J2,3*%
%TO.N,/X1*%
X105000000Y-87080000D03*
%TO.P,J2,4*%
%TO.N,Net-(J2-Pad4)*%
X105000000Y-89620000D03*
%TO.P,J2,5*%
%TO.N,Net-(J2-Pad5)*%
X105000000Y-92160000D03*
%TO.P,J2,6*%
%TO.N,Net-(J2-Pad6)*%
X105000000Y-94700000D03*
%TO.P,J2,7*%
%TO.N,Net-(J2-Pad7)*%
X105000000Y-97240000D03*
%TO.P,J2,8*%
%TO.N,Net-(J2-Pad8)*%
X105000000Y-99780000D03*
%TO.P,J2,9*%
%TO.N,Net-(J2-Pad9)*%
X105000000Y-102320000D03*
%TO.P,J2,10*%
%TO.N,/RST*%
X105000000Y-104860000D03*
%TD*%
%TO.P,J3,10*%
%TO.N,GND*%
X87000000Y-104860000D03*
%TO.P,J3,9*%
%TO.N,+3V3*%
X87000000Y-102320000D03*
%TO.P,J3,8*%
%TO.N,Net-(J3-Pad8)*%
X87000000Y-99780000D03*
%TO.P,J3,7*%
%TO.N,Net-(J3-Pad7)*%
X87000000Y-97240000D03*
%TO.P,J3,6*%
%TO.N,Net-(J3-Pad6)*%
X87000000Y-94700000D03*
%TO.P,J3,5*%
%TO.N,Net-(J3-Pad5)*%
X87000000Y-92160000D03*
%TO.P,J3,4*%
%TO.N,Net-(J3-Pad4)*%
X87000000Y-89620000D03*
%TO.P,J3,3*%
%TO.N,Net-(J3-Pad3)*%
X87000000Y-87080000D03*
%TO.P,J3,2*%
%TO.N,Net-(J3-Pad2)*%
X87000000Y-84540000D03*
D10*
%TO.P,J3,1*%
%TO.N,Net-(J3-Pad1)*%
X87000000Y-82000000D03*
%TD*%
D12*
%TO.N,GND*%
X96253300Y-84081620D03*
X103337360Y-96464120D03*
X89387680Y-96413320D03*
X92212160Y-96558100D03*
X89631520Y-98524060D03*
X96555560Y-98590100D03*
X90957400Y-103365300D03*
X97419160Y-101785420D03*
X100888800Y-112712500D03*
X92768420Y-112834420D03*
X95681800Y-110708440D03*
X95763080Y-105247440D03*
X102989380Y-104048560D03*
X89601040Y-80000000D03*
X102500000Y-80000000D03*
X100873560Y-89501980D03*
X102979220Y-83197700D03*
X93124020Y-88432640D03*
X96685100Y-90667840D03*
X93070680Y-84170520D03*
X88816180Y-85951060D03*
X89367360Y-90490040D03*
X102555040Y-100987860D03*
X105587800Y-108310680D03*
X95288100Y-102237540D03*
X89176860Y-111638080D03*
%TO.N,+3V3*%
X96845920Y-108000000D03*
%TO.N,+5V*%
X102298500Y-103172260D03*
%TO.N,/TEST*%
X97424240Y-91584780D03*
%TO.N,/RST*%
X101005640Y-92247720D03*
X101005640Y-96459040D03*
%TO.N,/X2*%
X99354640Y-84244180D03*
X93233240Y-86586060D03*
%TO.N,Net-(J2-Pad7)*%
X103431340Y-86321900D03*
X91056460Y-95986600D03*
X100205540Y-88618060D03*
%TO.N,Net-(J2-Pad8)*%
X103250000Y-85250000D03*
X89999820Y-95481140D03*
X99451160Y-87431880D03*
%TO.N,Net-(J2-Pad9)*%
X101203760Y-85509100D03*
X89098120Y-93898720D03*
X99461320Y-86245700D03*
%TO.N,Net-(J3-Pad8)*%
X96994980Y-94599760D03*
%TO.N,Net-(J3-Pad7)*%
X97401380Y-93207840D03*
%TD*%
D13*
%TO.N,GND*%
X88455500Y-95481140D02*
X89387680Y-96413320D01*
X88373119Y-95398759D02*
X88455500Y-95481140D01*
X88373119Y-91484281D02*
X88373119Y-95398759D01*
X89367360Y-90490040D02*
X88373119Y-91484281D01*
X103389379Y-103648561D02*
X102989380Y-104048560D01*
X103389379Y-101822199D02*
X103389379Y-103648561D01*
X102555040Y-100987860D02*
X103389379Y-101822199D01*
%TO.N,+3V3*%
X96845920Y-112728540D02*
X96845920Y-112230700D01*
X96845920Y-112230700D02*
X96845920Y-108000000D01*
X96845920Y-115217740D02*
X97299780Y-115671600D01*
X96845920Y-112728540D02*
X96845920Y-115217740D01*
%TO.N,+5V*%
X102223570Y-82475070D02*
X102223570Y-82434430D01*
X102223570Y-82434430D02*
X102658000Y-82000000D01*
X100434140Y-87480140D02*
X100434140Y-84264500D01*
X102658000Y-82000000D02*
X105000000Y-82000000D01*
X101730641Y-88776641D02*
X100434140Y-87480140D01*
X100434140Y-84264500D02*
X102223570Y-82475070D01*
X102298500Y-103172260D02*
X102298500Y-101767640D01*
X101730641Y-101236463D02*
X101730641Y-101217899D01*
X102261818Y-101767640D02*
X101730641Y-101236463D01*
X102298500Y-101767640D02*
X102261818Y-101767640D01*
X101730641Y-101217899D02*
X101730641Y-88776641D01*
%TO.N,/TEST*%
X98348800Y-92509340D02*
X97424240Y-91584780D01*
X98348800Y-112824260D02*
X98348800Y-113412410D01*
X98348800Y-112824260D02*
X98348800Y-92509340D01*
X99285355Y-115117175D02*
X99839780Y-115671600D01*
X99285355Y-114348965D02*
X99285355Y-115117175D01*
X98348800Y-113412410D02*
X99285355Y-114348965D01*
%TO.N,/RST*%
X101005640Y-92247720D02*
X101005640Y-96459040D01*
X101005640Y-96459040D02*
X101005640Y-96459040D01*
X102924670Y-106935330D02*
X105000000Y-104860000D01*
X102379780Y-115054500D02*
X102924670Y-114509610D01*
X102379780Y-115671600D02*
X102379780Y-115054500D01*
X102924670Y-106935330D02*
X102924670Y-114509610D01*
%TO.N,/X2*%
X93233240Y-86586060D02*
X93233240Y-86586060D01*
X95689420Y-86586060D02*
X98031300Y-84244180D01*
X93233240Y-86586060D02*
X95689420Y-86586060D01*
X99354640Y-84244180D02*
X98031300Y-84244180D01*
%TO.N,Net-(J2-Pad7)*%
X105000000Y-97240000D02*
X103586280Y-95826280D01*
X103586280Y-95826280D02*
X103586280Y-88541860D01*
X103586280Y-88541860D02*
X103586280Y-87711280D01*
X103586280Y-87711280D02*
X103586280Y-87322660D01*
X100205540Y-88618060D02*
X97038160Y-88618060D01*
X91056460Y-94599760D02*
X91470480Y-94185740D01*
X91056460Y-95986600D02*
X91056460Y-94599760D01*
X97038160Y-88618060D02*
X91470480Y-94185740D01*
X103586280Y-86476840D02*
X103431340Y-86321900D01*
X103586280Y-87322660D02*
X103586280Y-86476840D01*
%TO.N,Net-(J2-Pad8)*%
X101917500Y-87007700D02*
X101917500Y-86293960D01*
X102694311Y-87784511D02*
X101917500Y-87007700D01*
X102694311Y-97474311D02*
X102694311Y-87784511D01*
X105000000Y-99780000D02*
X102694311Y-97474311D01*
X99451160Y-87431880D02*
X96984820Y-87431880D01*
X89999820Y-94416880D02*
X90411300Y-94005400D01*
X89999820Y-95481140D02*
X89999820Y-94416880D01*
X96984820Y-87431880D02*
X90411300Y-94005400D01*
X103250000Y-85250000D02*
X102900500Y-85250000D01*
X101917500Y-86233000D02*
X101917500Y-86293960D01*
X102900500Y-85250000D02*
X101917500Y-86233000D01*
%TO.N,Net-(J2-Pad9)*%
X102244301Y-88223501D02*
X101201220Y-87180420D01*
X102244301Y-99564301D02*
X102244301Y-88223501D01*
X105000000Y-102320000D02*
X102244301Y-99564301D01*
X96751140Y-86245700D02*
X89098120Y-93898720D01*
X99461320Y-86245700D02*
X96751140Y-86245700D01*
X101201220Y-87180420D02*
X101201220Y-85592920D01*
%TO.N,Net-(J3-Pad8)*%
X96994980Y-94599760D02*
X96994980Y-95603060D01*
X92928440Y-99669600D02*
X87000000Y-99669600D01*
X96994980Y-95603060D02*
X92928440Y-99669600D01*
%TO.N,Net-(J3-Pad7)*%
X97401380Y-93207840D02*
X96992440Y-93207840D01*
X96992440Y-93207840D02*
X92897960Y-97302320D01*
X87172720Y-97302320D02*
X87000000Y-97129600D01*
X92897960Y-97302320D02*
X87172720Y-97302320D01*
%TD*%
D14*
%TO.N,GND*%
X97588800Y-107279169D02*
X97505694Y-107196063D01*
X97336176Y-107082795D01*
X97147818Y-107004774D01*
X96947859Y-106965000D01*
X96743981Y-106965000D01*
X96544022Y-107004774D01*
X96355664Y-107082795D01*
X96186146Y-107196063D01*
X96041983Y-107340226D01*
X95928715Y-107509744D01*
X95850694Y-107698102D01*
X95810920Y-107898061D01*
X95810920Y-108101939D01*
X95850694Y-108301898D01*
X95928715Y-108490256D01*
X96041983Y-108659774D01*
X96085921Y-108703712D01*
X96085920Y-112193367D01*
X96085920Y-112691208D01*
X96085921Y-114400824D01*
X96060965Y-114370415D01*
X95964274Y-114291063D01*
X95853960Y-114232098D01*
X95734262Y-114195788D01*
X95609780Y-114183528D01*
X95045530Y-114186600D01*
X94886780Y-114345350D01*
X94886780Y-115544600D01*
X94906780Y-115544600D01*
X94906780Y-115798600D01*
X94886780Y-115798600D01*
X94886780Y-116997850D01*
X95045530Y-117156600D01*
X95609780Y-117159672D01*
X95734262Y-117147412D01*
X95853960Y-117111102D01*
X95964274Y-117052137D01*
X96060965Y-116972785D01*
X96140317Y-116876094D01*
X96199282Y-116765780D01*
X96221293Y-116693220D01*
X96353148Y-116825075D01*
X96596369Y-116987590D01*
X96866622Y-117099532D01*
X97153520Y-117156600D01*
X97446040Y-117156600D01*
X97732938Y-117099532D01*
X98003191Y-116987590D01*
X98246412Y-116825075D01*
X98453255Y-116618232D01*
X98569780Y-116443840D01*
X98686305Y-116618232D01*
X98893148Y-116825075D01*
X99136369Y-116987590D01*
X99406622Y-117099532D01*
X99693520Y-117156600D01*
X99986040Y-117156600D01*
X100272938Y-117099532D01*
X100543191Y-116987590D01*
X100786412Y-116825075D01*
X100993255Y-116618232D01*
X101109780Y-116443840D01*
X101226305Y-116618232D01*
X101433148Y-116825075D01*
X101676369Y-116987590D01*
X101946622Y-117099532D01*
X102233520Y-117156600D01*
X102526040Y-117156600D01*
X102812938Y-117099532D01*
X103083191Y-116987590D01*
X103326412Y-116825075D01*
X103533255Y-116618232D01*
X103695770Y-116375011D01*
X103807712Y-116104758D01*
X103864780Y-115817860D01*
X103864780Y-115525340D01*
X103807712Y-115238442D01*
X103695770Y-114968189D01*
X103609956Y-114839760D01*
X103630216Y-114801857D01*
X103673673Y-114658596D01*
X103684670Y-114546943D01*
X103684670Y-114546933D01*
X103688346Y-114509610D01*
X103684670Y-114472287D01*
X103684670Y-107250131D01*
X104633592Y-106301210D01*
X104853740Y-106345000D01*
X105146260Y-106345000D01*
X105433158Y-106287932D01*
X105703411Y-106175990D01*
X105946632Y-106013475D01*
X106153475Y-105806632D01*
X106315990Y-105563411D01*
X106340000Y-105505445D01*
X106340000Y-115967721D01*
X106311375Y-116259660D01*
X106235965Y-116509429D01*
X106113477Y-116739794D01*
X105948579Y-116941979D01*
X105747546Y-117108288D01*
X105518046Y-117232378D01*
X105268805Y-117309531D01*
X104978911Y-117340000D01*
X87032279Y-117340000D01*
X86740340Y-117311375D01*
X86490571Y-117235965D01*
X86260206Y-117113477D01*
X86058021Y-116948579D01*
X85891712Y-116747546D01*
X85769544Y-116521600D01*
X93271708Y-116521600D01*
X93283968Y-116646082D01*
X93320278Y-116765780D01*
X93379243Y-116876094D01*
X93458595Y-116972785D01*
X93555286Y-117052137D01*
X93665600Y-117111102D01*
X93785298Y-117147412D01*
X93909780Y-117159672D01*
X94474030Y-117156600D01*
X94632780Y-116997850D01*
X94632780Y-115798600D01*
X93433530Y-115798600D01*
X93274780Y-115957350D01*
X93271708Y-116521600D01*
X85769544Y-116521600D01*
X85767622Y-116518046D01*
X85690469Y-116268805D01*
X85660000Y-115978911D01*
X85660000Y-114821600D01*
X93271708Y-114821600D01*
X93274780Y-115385850D01*
X93433530Y-115544600D01*
X94632780Y-115544600D01*
X94632780Y-114345350D01*
X94474030Y-114186600D01*
X93909780Y-114183528D01*
X93785298Y-114195788D01*
X93665600Y-114232098D01*
X93555286Y-114291063D01*
X93458595Y-114370415D01*
X93379243Y-114467106D01*
X93320278Y-114577420D01*
X93283968Y-114697118D01*
X93271708Y-114821600D01*
X85660000Y-114821600D01*
X85660000Y-105483402D01*
X85728359Y-105626920D01*
X85902412Y-105860269D01*
X86118645Y-106055178D01*
X86368748Y-106204157D01*
X86643109Y-106301481D01*
X86873000Y-106180814D01*
X86873000Y-104987000D01*
X87127000Y-104987000D01*
X87127000Y-106180814D01*
X87356891Y-106301481D01*
X87631252Y-106204157D01*
X87881355Y-106055178D01*
X88097588Y-105860269D01*
X88271641Y-105626920D01*
X88396825Y-105364099D01*
X88441476Y-105216890D01*
X88320155Y-104987000D01*
X87127000Y-104987000D01*
X86873000Y-104987000D01*
X86853000Y-104987000D01*
X86853000Y-104733000D01*
X86873000Y-104733000D01*
X86873000Y-104713000D01*
X87127000Y-104713000D01*
X87127000Y-104733000D01*
X88320155Y-104733000D01*
X88441476Y-104503110D01*
X88396825Y-104355901D01*
X88271641Y-104093080D01*
X88097588Y-103859731D01*
X87881355Y-103664822D01*
X87764466Y-103595195D01*
X87946632Y-103473475D01*
X88153475Y-103266632D01*
X88315990Y-103023411D01*
X88427932Y-102753158D01*
X88485000Y-102466260D01*
X88485000Y-102173740D01*
X88427932Y-101886842D01*
X88315990Y-101616589D01*
X88153475Y-101373368D01*
X87946632Y-101166525D01*
X87772240Y-101050000D01*
X87946632Y-100933475D01*
X88153475Y-100726632D01*
X88315990Y-100483411D01*
X88338279Y-100429600D01*
X92891118Y-100429600D01*
X92928440Y-100433276D01*
X92965762Y-100429600D01*
X92965773Y-100429600D01*
X93077426Y-100418603D01*
X93220687Y-100375146D01*
X93352716Y-100304574D01*
X93468441Y-100209601D01*
X93492244Y-100180597D01*
X97505983Y-96166859D01*
X97534981Y-96143061D01*
X97581379Y-96086525D01*
X97588801Y-96077482D01*
X97588800Y-107279169D01*
%TA.AperFunction,Conductor*%
D15*
G36*
X97588800Y-107279169D02*
G01*
X97505694Y-107196063D01*
X97336176Y-107082795D01*
X97147818Y-107004774D01*
X96947859Y-106965000D01*
X96743981Y-106965000D01*
X96544022Y-107004774D01*
X96355664Y-107082795D01*
X96186146Y-107196063D01*
X96041983Y-107340226D01*
X95928715Y-107509744D01*
X95850694Y-107698102D01*
X95810920Y-107898061D01*
X95810920Y-108101939D01*
X95850694Y-108301898D01*
X95928715Y-108490256D01*
X96041983Y-108659774D01*
X96085921Y-108703712D01*
X96085920Y-112193367D01*
X96085920Y-112691208D01*
X96085921Y-114400824D01*
X96060965Y-114370415D01*
X95964274Y-114291063D01*
X95853960Y-114232098D01*
X95734262Y-114195788D01*
X95609780Y-114183528D01*
X95045530Y-114186600D01*
X94886780Y-114345350D01*
X94886780Y-115544600D01*
X94906780Y-115544600D01*
X94906780Y-115798600D01*
X94886780Y-115798600D01*
X94886780Y-116997850D01*
X95045530Y-117156600D01*
X95609780Y-117159672D01*
X95734262Y-117147412D01*
X95853960Y-117111102D01*
X95964274Y-117052137D01*
X96060965Y-116972785D01*
X96140317Y-116876094D01*
X96199282Y-116765780D01*
X96221293Y-116693220D01*
X96353148Y-116825075D01*
X96596369Y-116987590D01*
X96866622Y-117099532D01*
X97153520Y-117156600D01*
X97446040Y-117156600D01*
X97732938Y-117099532D01*
X98003191Y-116987590D01*
X98246412Y-116825075D01*
X98453255Y-116618232D01*
X98569780Y-116443840D01*
X98686305Y-116618232D01*
X98893148Y-116825075D01*
X99136369Y-116987590D01*
X99406622Y-117099532D01*
X99693520Y-117156600D01*
X99986040Y-117156600D01*
X100272938Y-117099532D01*
X100543191Y-116987590D01*
X100786412Y-116825075D01*
X100993255Y-116618232D01*
X101109780Y-116443840D01*
X101226305Y-116618232D01*
X101433148Y-116825075D01*
X101676369Y-116987590D01*
X101946622Y-117099532D01*
X102233520Y-117156600D01*
X102526040Y-117156600D01*
X102812938Y-117099532D01*
X103083191Y-116987590D01*
X103326412Y-116825075D01*
X103533255Y-116618232D01*
X103695770Y-116375011D01*
X103807712Y-116104758D01*
X103864780Y-115817860D01*
X103864780Y-115525340D01*
X103807712Y-115238442D01*
X103695770Y-114968189D01*
X103609956Y-114839760D01*
X103630216Y-114801857D01*
X103673673Y-114658596D01*
X103684670Y-114546943D01*
X103684670Y-114546933D01*
X103688346Y-114509610D01*
X103684670Y-114472287D01*
X103684670Y-107250131D01*
X104633592Y-106301210D01*
X104853740Y-106345000D01*
X105146260Y-106345000D01*
X105433158Y-106287932D01*
X105703411Y-106175990D01*
X105946632Y-106013475D01*
X106153475Y-105806632D01*
X106315990Y-105563411D01*
X106340000Y-105505445D01*
X106340000Y-115967721D01*
X106311375Y-116259660D01*
X106235965Y-116509429D01*
X106113477Y-116739794D01*
X105948579Y-116941979D01*
X105747546Y-117108288D01*
X105518046Y-117232378D01*
X105268805Y-117309531D01*
X104978911Y-117340000D01*
X87032279Y-117340000D01*
X86740340Y-117311375D01*
X86490571Y-117235965D01*
X86260206Y-117113477D01*
X86058021Y-116948579D01*
X85891712Y-116747546D01*
X85769544Y-116521600D01*
X93271708Y-116521600D01*
X93283968Y-116646082D01*
X93320278Y-116765780D01*
X93379243Y-116876094D01*
X93458595Y-116972785D01*
X93555286Y-117052137D01*
X93665600Y-117111102D01*
X93785298Y-117147412D01*
X93909780Y-117159672D01*
X94474030Y-117156600D01*
X94632780Y-116997850D01*
X94632780Y-115798600D01*
X93433530Y-115798600D01*
X93274780Y-115957350D01*
X93271708Y-116521600D01*
X85769544Y-116521600D01*
X85767622Y-116518046D01*
X85690469Y-116268805D01*
X85660000Y-115978911D01*
X85660000Y-114821600D01*
X93271708Y-114821600D01*
X93274780Y-115385850D01*
X93433530Y-115544600D01*
X94632780Y-115544600D01*
X94632780Y-114345350D01*
X94474030Y-114186600D01*
X93909780Y-114183528D01*
X93785298Y-114195788D01*
X93665600Y-114232098D01*
X93555286Y-114291063D01*
X93458595Y-114370415D01*
X93379243Y-114467106D01*
X93320278Y-114577420D01*
X93283968Y-114697118D01*
X93271708Y-114821600D01*
X85660000Y-114821600D01*
X85660000Y-105483402D01*
X85728359Y-105626920D01*
X85902412Y-105860269D01*
X86118645Y-106055178D01*
X86368748Y-106204157D01*
X86643109Y-106301481D01*
X86873000Y-106180814D01*
X86873000Y-104987000D01*
X87127000Y-104987000D01*
X87127000Y-106180814D01*
X87356891Y-106301481D01*
X87631252Y-106204157D01*
X87881355Y-106055178D01*
X88097588Y-105860269D01*
X88271641Y-105626920D01*
X88396825Y-105364099D01*
X88441476Y-105216890D01*
X88320155Y-104987000D01*
X87127000Y-104987000D01*
X86873000Y-104987000D01*
X86853000Y-104987000D01*
X86853000Y-104733000D01*
X86873000Y-104733000D01*
X86873000Y-104713000D01*
X87127000Y-104713000D01*
X87127000Y-104733000D01*
X88320155Y-104733000D01*
X88441476Y-104503110D01*
X88396825Y-104355901D01*
X88271641Y-104093080D01*
X88097588Y-103859731D01*
X87881355Y-103664822D01*
X87764466Y-103595195D01*
X87946632Y-103473475D01*
X88153475Y-103266632D01*
X88315990Y-103023411D01*
X88427932Y-102753158D01*
X88485000Y-102466260D01*
X88485000Y-102173740D01*
X88427932Y-101886842D01*
X88315990Y-101616589D01*
X88153475Y-101373368D01*
X87946632Y-101166525D01*
X87772240Y-101050000D01*
X87946632Y-100933475D01*
X88153475Y-100726632D01*
X88315990Y-100483411D01*
X88338279Y-100429600D01*
X92891118Y-100429600D01*
X92928440Y-100433276D01*
X92965762Y-100429600D01*
X92965773Y-100429600D01*
X93077426Y-100418603D01*
X93220687Y-100375146D01*
X93352716Y-100304574D01*
X93468441Y-100209601D01*
X93492244Y-100180597D01*
X97505983Y-96166859D01*
X97534981Y-96143061D01*
X97581379Y-96086525D01*
X97588801Y-96077482D01*
X97588800Y-107279169D01*
G37*
%TD.AperFunction*%
D14*
X100970642Y-91212720D02*
X100903701Y-91212720D01*
X100703742Y-91252494D01*
X100515384Y-91330515D01*
X100345866Y-91443783D01*
X100201703Y-91587946D01*
X100088435Y-91757464D01*
X100010414Y-91945822D01*
X99970640Y-92145781D01*
X99970640Y-92349659D01*
X100010414Y-92549618D01*
X100088435Y-92737976D01*
X100201703Y-92907494D01*
X100245640Y-92951431D01*
X100245641Y-95755328D01*
X100201703Y-95799266D01*
X100088435Y-95968784D01*
X100010414Y-96157142D01*
X99970640Y-96357101D01*
X99970640Y-96560979D01*
X100010414Y-96760938D01*
X100088435Y-96949296D01*
X100201703Y-97118814D01*
X100345866Y-97262977D01*
X100515384Y-97376245D01*
X100703742Y-97454266D01*
X100903701Y-97494040D01*
X100970641Y-97494040D01*
X100970641Y-101199141D01*
X100966965Y-101236463D01*
X100970641Y-101273785D01*
X100970641Y-101273795D01*
X100981638Y-101385448D01*
X101008922Y-101475393D01*
X101025095Y-101528709D01*
X101095667Y-101660739D01*
X101135512Y-101709289D01*
X101190640Y-101776464D01*
X101219643Y-101800266D01*
X101538501Y-102119124D01*
X101538501Y-102468548D01*
X101494563Y-102512486D01*
X101381295Y-102682004D01*
X101303274Y-102870362D01*
X101263500Y-103070321D01*
X101263500Y-103274199D01*
X101303274Y-103474158D01*
X101381295Y-103662516D01*
X101494563Y-103832034D01*
X101638726Y-103976197D01*
X101808244Y-104089465D01*
X101996602Y-104167486D01*
X102196561Y-104207260D01*
X102400439Y-104207260D01*
X102600398Y-104167486D01*
X102788756Y-104089465D01*
X102958274Y-103976197D01*
X103102437Y-103832034D01*
X103215705Y-103662516D01*
X103293726Y-103474158D01*
X103333500Y-103274199D01*
X103333500Y-103070321D01*
X103293726Y-102870362D01*
X103215705Y-102682004D01*
X103102437Y-102512486D01*
X103058500Y-102468549D01*
X103058500Y-101804973D01*
X103062177Y-101767640D01*
X103047503Y-101618654D01*
X103004046Y-101475393D01*
X102933474Y-101343364D01*
X102864420Y-101259221D01*
X103558790Y-101953592D01*
X103515000Y-102173740D01*
X103515000Y-102466260D01*
X103572068Y-102753158D01*
X103684010Y-103023411D01*
X103846525Y-103266632D01*
X104053368Y-103473475D01*
X104227760Y-103590000D01*
X104053368Y-103706525D01*
X103846525Y-103913368D01*
X103684010Y-104156589D01*
X103572068Y-104426842D01*
X103515000Y-104713740D01*
X103515000Y-105006260D01*
X103558790Y-105226408D01*
X102413673Y-106371526D01*
X102384669Y-106395329D01*
X102329541Y-106462504D01*
X102289696Y-106511054D01*
X102219125Y-106643083D01*
X102219124Y-106643084D01*
X102175667Y-106786345D01*
X102164670Y-106897998D01*
X102164670Y-106898008D01*
X102160994Y-106935330D01*
X102164670Y-106972652D01*
X102164671Y-114194807D01*
X102157821Y-114201658D01*
X101946622Y-114243668D01*
X101676369Y-114355610D01*
X101433148Y-114518125D01*
X101226305Y-114724968D01*
X101109780Y-114899360D01*
X100993255Y-114724968D01*
X100786412Y-114518125D01*
X100543191Y-114355610D01*
X100272938Y-114243668D01*
X100033142Y-114195969D01*
X99990901Y-114056718D01*
X99920329Y-113924689D01*
X99825356Y-113808964D01*
X99796359Y-113785167D01*
X99108800Y-113097609D01*
X99108800Y-92546662D01*
X99112476Y-92509339D01*
X99108800Y-92472016D01*
X99108800Y-92472007D01*
X99097803Y-92360354D01*
X99054346Y-92217093D01*
X98983774Y-92085064D01*
X98888801Y-91969339D01*
X98859803Y-91945541D01*
X98459240Y-91544978D01*
X98459240Y-91482841D01*
X98419466Y-91282882D01*
X98341445Y-91094524D01*
X98228177Y-90925006D01*
X98084014Y-90780843D01*
X97914496Y-90667575D01*
X97726138Y-90589554D01*
X97526179Y-90549780D01*
X97322301Y-90549780D01*
X97122342Y-90589554D01*
X96933984Y-90667575D01*
X96764466Y-90780843D01*
X96620303Y-90925006D01*
X96507035Y-91094524D01*
X96429014Y-91282882D01*
X96389240Y-91482841D01*
X96389240Y-91686719D01*
X96429014Y-91886678D01*
X96507035Y-92075036D01*
X96620303Y-92244554D01*
X96764413Y-92388664D01*
X96741606Y-92403903D01*
X96597443Y-92548066D01*
X96587933Y-92562299D01*
X96568163Y-92572866D01*
X96510999Y-92619780D01*
X96452439Y-92667839D01*
X96428641Y-92696837D01*
X92583159Y-96542320D01*
X91929923Y-96542320D01*
X91973665Y-96476856D01*
X92051686Y-96288498D01*
X92091460Y-96088539D01*
X92091460Y-95884661D01*
X92051686Y-95684702D01*
X91973665Y-95496344D01*
X91860397Y-95326826D01*
X91816460Y-95282889D01*
X91816460Y-94914561D01*
X92034279Y-94696742D01*
X97352962Y-89378060D01*
X99501829Y-89378060D01*
X99545766Y-89421997D01*
X99715284Y-89535265D01*
X99903642Y-89613286D01*
X100103601Y-89653060D01*
X100307479Y-89653060D01*
X100507438Y-89613286D01*
X100695796Y-89535265D01*
X100865314Y-89421997D01*
X100970642Y-89316669D01*
X100970642Y-91212720D01*
%TA.AperFunction,Conductor*%
D15*
G36*
X100970642Y-91212720D02*
G01*
X100903701Y-91212720D01*
X100703742Y-91252494D01*
X100515384Y-91330515D01*
X100345866Y-91443783D01*
X100201703Y-91587946D01*
X100088435Y-91757464D01*
X100010414Y-91945822D01*
X99970640Y-92145781D01*
X99970640Y-92349659D01*
X100010414Y-92549618D01*
X100088435Y-92737976D01*
X100201703Y-92907494D01*
X100245640Y-92951431D01*
X100245641Y-95755328D01*
X100201703Y-95799266D01*
X100088435Y-95968784D01*
X100010414Y-96157142D01*
X99970640Y-96357101D01*
X99970640Y-96560979D01*
X100010414Y-96760938D01*
X100088435Y-96949296D01*
X100201703Y-97118814D01*
X100345866Y-97262977D01*
X100515384Y-97376245D01*
X100703742Y-97454266D01*
X100903701Y-97494040D01*
X100970641Y-97494040D01*
X100970641Y-101199141D01*
X100966965Y-101236463D01*
X100970641Y-101273785D01*
X100970641Y-101273795D01*
X100981638Y-101385448D01*
X101008922Y-101475393D01*
X101025095Y-101528709D01*
X101095667Y-101660739D01*
X101135512Y-101709289D01*
X101190640Y-101776464D01*
X101219643Y-101800266D01*
X101538501Y-102119124D01*
X101538501Y-102468548D01*
X101494563Y-102512486D01*
X101381295Y-102682004D01*
X101303274Y-102870362D01*
X101263500Y-103070321D01*
X101263500Y-103274199D01*
X101303274Y-103474158D01*
X101381295Y-103662516D01*
X101494563Y-103832034D01*
X101638726Y-103976197D01*
X101808244Y-104089465D01*
X101996602Y-104167486D01*
X102196561Y-104207260D01*
X102400439Y-104207260D01*
X102600398Y-104167486D01*
X102788756Y-104089465D01*
X102958274Y-103976197D01*
X103102437Y-103832034D01*
X103215705Y-103662516D01*
X103293726Y-103474158D01*
X103333500Y-103274199D01*
X103333500Y-103070321D01*
X103293726Y-102870362D01*
X103215705Y-102682004D01*
X103102437Y-102512486D01*
X103058500Y-102468549D01*
X103058500Y-101804973D01*
X103062177Y-101767640D01*
X103047503Y-101618654D01*
X103004046Y-101475393D01*
X102933474Y-101343364D01*
X102864420Y-101259221D01*
X103558790Y-101953592D01*
X103515000Y-102173740D01*
X103515000Y-102466260D01*
X103572068Y-102753158D01*
X103684010Y-103023411D01*
X103846525Y-103266632D01*
X104053368Y-103473475D01*
X104227760Y-103590000D01*
X104053368Y-103706525D01*
X103846525Y-103913368D01*
X103684010Y-104156589D01*
X103572068Y-104426842D01*
X103515000Y-104713740D01*
X103515000Y-105006260D01*
X103558790Y-105226408D01*
X102413673Y-106371526D01*
X102384669Y-106395329D01*
X102329541Y-106462504D01*
X102289696Y-106511054D01*
X102219125Y-106643083D01*
X102219124Y-106643084D01*
X102175667Y-106786345D01*
X102164670Y-106897998D01*
X102164670Y-106898008D01*
X102160994Y-106935330D01*
X102164670Y-106972652D01*
X102164671Y-114194807D01*
X102157821Y-114201658D01*
X101946622Y-114243668D01*
X101676369Y-114355610D01*
X101433148Y-114518125D01*
X101226305Y-114724968D01*
X101109780Y-114899360D01*
X100993255Y-114724968D01*
X100786412Y-114518125D01*
X100543191Y-114355610D01*
X100272938Y-114243668D01*
X100033142Y-114195969D01*
X99990901Y-114056718D01*
X99920329Y-113924689D01*
X99825356Y-113808964D01*
X99796359Y-113785167D01*
X99108800Y-113097609D01*
X99108800Y-92546662D01*
X99112476Y-92509339D01*
X99108800Y-92472016D01*
X99108800Y-92472007D01*
X99097803Y-92360354D01*
X99054346Y-92217093D01*
X98983774Y-92085064D01*
X98888801Y-91969339D01*
X98859803Y-91945541D01*
X98459240Y-91544978D01*
X98459240Y-91482841D01*
X98419466Y-91282882D01*
X98341445Y-91094524D01*
X98228177Y-90925006D01*
X98084014Y-90780843D01*
X97914496Y-90667575D01*
X97726138Y-90589554D01*
X97526179Y-90549780D01*
X97322301Y-90549780D01*
X97122342Y-90589554D01*
X96933984Y-90667575D01*
X96764466Y-90780843D01*
X96620303Y-90925006D01*
X96507035Y-91094524D01*
X96429014Y-91282882D01*
X96389240Y-91482841D01*
X96389240Y-91686719D01*
X96429014Y-91886678D01*
X96507035Y-92075036D01*
X96620303Y-92244554D01*
X96764413Y-92388664D01*
X96741606Y-92403903D01*
X96597443Y-92548066D01*
X96587933Y-92562299D01*
X96568163Y-92572866D01*
X96510999Y-92619780D01*
X96452439Y-92667839D01*
X96428641Y-92696837D01*
X92583159Y-96542320D01*
X91929923Y-96542320D01*
X91973665Y-96476856D01*
X92051686Y-96288498D01*
X92091460Y-96088539D01*
X92091460Y-95884661D01*
X92051686Y-95684702D01*
X91973665Y-95496344D01*
X91860397Y-95326826D01*
X91816460Y-95282889D01*
X91816460Y-94914561D01*
X92034279Y-94696742D01*
X97352962Y-89378060D01*
X99501829Y-89378060D01*
X99545766Y-89421997D01*
X99715284Y-89535265D01*
X99903642Y-89613286D01*
X100103601Y-89653060D01*
X100307479Y-89653060D01*
X100507438Y-89613286D01*
X100695796Y-89535265D01*
X100865314Y-89421997D01*
X100970642Y-89316669D01*
X100970642Y-91212720D01*
G37*
%TD.AperFunction*%
D14*
X102806919Y-101201720D02*
X102722776Y-101132666D01*
X102677382Y-101108402D01*
X102490641Y-100921662D01*
X102490641Y-100885442D01*
X102806919Y-101201720D01*
%TA.AperFunction,Conductor*%
D15*
G36*
X102806919Y-101201720D02*
G01*
X102722776Y-101132666D01*
X102677382Y-101108402D01*
X102490641Y-100921662D01*
X102490641Y-100885442D01*
X102806919Y-101201720D01*
G37*
%TD.AperFunction*%
D14*
X96191043Y-95259534D02*
X96227374Y-95295865D01*
X92613639Y-98909600D01*
X88204412Y-98909600D01*
X88153475Y-98833368D01*
X87946632Y-98626525D01*
X87772240Y-98510000D01*
X87946632Y-98393475D01*
X88153475Y-98186632D01*
X88236538Y-98062320D01*
X92860638Y-98062320D01*
X92897960Y-98065996D01*
X92935282Y-98062320D01*
X92935293Y-98062320D01*
X93046946Y-98051323D01*
X93190207Y-98007866D01*
X93322236Y-97937294D01*
X93437961Y-97842321D01*
X93461764Y-97813317D01*
X96120750Y-95154332D01*
X96191043Y-95259534D01*
%TA.AperFunction,Conductor*%
D15*
G36*
X96191043Y-95259534D02*
G01*
X96227374Y-95295865D01*
X92613639Y-98909600D01*
X88204412Y-98909600D01*
X88153475Y-98833368D01*
X87946632Y-98626525D01*
X87772240Y-98510000D01*
X87946632Y-98393475D01*
X88153475Y-98186632D01*
X88236538Y-98062320D01*
X92860638Y-98062320D01*
X92897960Y-98065996D01*
X92935282Y-98062320D01*
X92935293Y-98062320D01*
X93046946Y-98051323D01*
X93190207Y-98007866D01*
X93322236Y-97937294D01*
X93437961Y-97842321D01*
X93461764Y-97813317D01*
X96120750Y-95154332D01*
X96191043Y-95259534D01*
G37*
%TD.AperFunction*%
D14*
X88607864Y-94815925D02*
X88796222Y-94893946D01*
X88996181Y-94933720D01*
X89120811Y-94933720D01*
X89082615Y-94990884D01*
X89004594Y-95179242D01*
X88964820Y-95379201D01*
X88964820Y-95583079D01*
X89004594Y-95783038D01*
X89082615Y-95971396D01*
X89195883Y-96140914D01*
X89340046Y-96285077D01*
X89509564Y-96398345D01*
X89697922Y-96476366D01*
X89897881Y-96516140D01*
X90101759Y-96516140D01*
X90158025Y-96504948D01*
X90182997Y-96542320D01*
X88318364Y-96542320D01*
X88315990Y-96536589D01*
X88153475Y-96293368D01*
X87946632Y-96086525D01*
X87772240Y-95970000D01*
X87946632Y-95853475D01*
X88153475Y-95646632D01*
X88315990Y-95403411D01*
X88427932Y-95133158D01*
X88485000Y-94846260D01*
X88485000Y-94733830D01*
X88607864Y-94815925D01*
%TA.AperFunction,Conductor*%
D15*
G36*
X88607864Y-94815925D02*
G01*
X88796222Y-94893946D01*
X88996181Y-94933720D01*
X89120811Y-94933720D01*
X89082615Y-94990884D01*
X89004594Y-95179242D01*
X88964820Y-95379201D01*
X88964820Y-95583079D01*
X89004594Y-95783038D01*
X89082615Y-95971396D01*
X89195883Y-96140914D01*
X89340046Y-96285077D01*
X89509564Y-96398345D01*
X89697922Y-96476366D01*
X89897881Y-96516140D01*
X90101759Y-96516140D01*
X90158025Y-96504948D01*
X90182997Y-96542320D01*
X88318364Y-96542320D01*
X88315990Y-96536589D01*
X88153475Y-96293368D01*
X87946632Y-96086525D01*
X87772240Y-95970000D01*
X87946632Y-95853475D01*
X88153475Y-95646632D01*
X88315990Y-95403411D01*
X88427932Y-95133158D01*
X88485000Y-94846260D01*
X88485000Y-94733830D01*
X88607864Y-94815925D01*
G37*
%TD.AperFunction*%
D14*
X106065424Y-78669580D02*
X106128356Y-78688580D01*
X106186405Y-78719445D01*
X106237343Y-78760989D01*
X106279248Y-78811644D01*
X106310515Y-78869471D01*
X106329956Y-78932272D01*
X106340001Y-79027845D01*
X106340001Y-80746113D01*
X106301185Y-80698815D01*
X106204494Y-80619463D01*
X106094180Y-80560498D01*
X105974482Y-80524188D01*
X105850000Y-80511928D01*
X104150000Y-80511928D01*
X104025518Y-80524188D01*
X103905820Y-80560498D01*
X103795506Y-80619463D01*
X103698815Y-80698815D01*
X103619463Y-80795506D01*
X103560498Y-80905820D01*
X103524188Y-81025518D01*
X103511928Y-81150000D01*
X103511928Y-81240000D01*
X102695325Y-81240000D01*
X102658000Y-81236324D01*
X102620675Y-81240000D01*
X102620667Y-81240000D01*
X102509014Y-81250997D01*
X102365753Y-81294454D01*
X102233724Y-81365026D01*
X102117999Y-81459999D01*
X102094196Y-81489003D01*
X101712572Y-81870627D01*
X101683569Y-81894429D01*
X101588596Y-82010154D01*
X101559787Y-82064051D01*
X100099005Y-83524834D01*
X100014414Y-83440243D01*
X99844896Y-83326975D01*
X99656538Y-83248954D01*
X99456579Y-83209180D01*
X99252701Y-83209180D01*
X99052742Y-83248954D01*
X98864384Y-83326975D01*
X98694866Y-83440243D01*
X98650929Y-83484180D01*
X98068622Y-83484180D01*
X98031299Y-83480504D01*
X97993976Y-83484180D01*
X97993967Y-83484180D01*
X97882314Y-83495177D01*
X97739053Y-83538634D01*
X97607024Y-83609206D01*
X97607022Y-83609207D01*
X97607023Y-83609207D01*
X97520296Y-83680381D01*
X97520292Y-83680385D01*
X97491299Y-83704179D01*
X97467505Y-83733172D01*
X95374619Y-85826060D01*
X93936951Y-85826060D01*
X93893014Y-85782123D01*
X93723496Y-85668855D01*
X93535138Y-85590834D01*
X93335179Y-85551060D01*
X93131301Y-85551060D01*
X92931342Y-85590834D01*
X92742984Y-85668855D01*
X92573466Y-85782123D01*
X92429303Y-85926286D01*
X92316035Y-86095804D01*
X92238014Y-86284162D01*
X92198240Y-86484121D01*
X92198240Y-86687999D01*
X92238014Y-86887958D01*
X92316035Y-87076316D01*
X92429303Y-87245834D01*
X92573466Y-87389997D01*
X92742984Y-87503265D01*
X92931342Y-87581286D01*
X93131301Y-87621060D01*
X93335179Y-87621060D01*
X93535138Y-87581286D01*
X93723496Y-87503265D01*
X93893014Y-87389997D01*
X93936951Y-87346060D01*
X94575978Y-87346060D01*
X89058319Y-92863720D01*
X88996181Y-92863720D01*
X88796222Y-92903494D01*
X88607864Y-92981515D01*
X88438346Y-93094783D01*
X88294183Y-93238946D01*
X88180915Y-93408464D01*
X88102894Y-93596822D01*
X88085313Y-93685206D01*
X87946632Y-93546525D01*
X87772240Y-93430000D01*
X87946632Y-93313475D01*
X88153475Y-93106632D01*
X88315990Y-92863411D01*
X88427932Y-92593158D01*
X88485000Y-92306260D01*
X88485000Y-92013740D01*
X88427932Y-91726842D01*
X88315990Y-91456589D01*
X88153475Y-91213368D01*
X87946632Y-91006525D01*
X87772240Y-90890000D01*
X87946632Y-90773475D01*
X88153475Y-90566632D01*
X88315990Y-90323411D01*
X88427932Y-90053158D01*
X88485000Y-89766260D01*
X88485000Y-89473740D01*
X88427932Y-89186842D01*
X88315990Y-88916589D01*
X88153475Y-88673368D01*
X87946632Y-88466525D01*
X87772240Y-88350000D01*
X87946632Y-88233475D01*
X88153475Y-88026632D01*
X88315990Y-87783411D01*
X88427932Y-87513158D01*
X88485000Y-87226260D01*
X88485000Y-86933740D01*
X88427932Y-86646842D01*
X88315990Y-86376589D01*
X88153475Y-86133368D01*
X87946632Y-85926525D01*
X87772240Y-85810000D01*
X87946632Y-85693475D01*
X88153475Y-85486632D01*
X88315990Y-85243411D01*
X88427932Y-84973158D01*
X88485000Y-84686260D01*
X88485000Y-84393740D01*
X88427932Y-84106842D01*
X88315990Y-83836589D01*
X88153475Y-83593368D01*
X88021620Y-83461513D01*
X88094180Y-83439502D01*
X88204494Y-83380537D01*
X88301185Y-83301185D01*
X88380537Y-83204494D01*
X88439502Y-83094180D01*
X88475812Y-82974482D01*
X88488072Y-82850000D01*
X88488072Y-81150000D01*
X88475812Y-81025518D01*
X88439502Y-80905820D01*
X88380537Y-80795506D01*
X88301185Y-80698815D01*
X88204494Y-80619463D01*
X88094180Y-80560498D01*
X87974482Y-80524188D01*
X87850000Y-80511928D01*
X86150000Y-80511928D01*
X86025518Y-80524188D01*
X85905820Y-80560498D01*
X85795506Y-80619463D01*
X85698815Y-80698815D01*
X85660000Y-80746111D01*
X85660000Y-79032279D01*
X85669580Y-78934576D01*
X85688580Y-78871644D01*
X85719445Y-78813595D01*
X85760989Y-78762657D01*
X85811644Y-78720752D01*
X85869471Y-78689485D01*
X85932272Y-78670044D01*
X86027835Y-78660000D01*
X105967721Y-78660000D01*
X106065424Y-78669580D01*
%TA.AperFunction,Conductor*%
D15*
G36*
X106065424Y-78669580D02*
G01*
X106128356Y-78688580D01*
X106186405Y-78719445D01*
X106237343Y-78760989D01*
X106279248Y-78811644D01*
X106310515Y-78869471D01*
X106329956Y-78932272D01*
X106340001Y-79027845D01*
X106340001Y-80746113D01*
X106301185Y-80698815D01*
X106204494Y-80619463D01*
X106094180Y-80560498D01*
X105974482Y-80524188D01*
X105850000Y-80511928D01*
X104150000Y-80511928D01*
X104025518Y-80524188D01*
X103905820Y-80560498D01*
X103795506Y-80619463D01*
X103698815Y-80698815D01*
X103619463Y-80795506D01*
X103560498Y-80905820D01*
X103524188Y-81025518D01*
X103511928Y-81150000D01*
X103511928Y-81240000D01*
X102695325Y-81240000D01*
X102658000Y-81236324D01*
X102620675Y-81240000D01*
X102620667Y-81240000D01*
X102509014Y-81250997D01*
X102365753Y-81294454D01*
X102233724Y-81365026D01*
X102117999Y-81459999D01*
X102094196Y-81489003D01*
X101712572Y-81870627D01*
X101683569Y-81894429D01*
X101588596Y-82010154D01*
X101559787Y-82064051D01*
X100099005Y-83524834D01*
X100014414Y-83440243D01*
X99844896Y-83326975D01*
X99656538Y-83248954D01*
X99456579Y-83209180D01*
X99252701Y-83209180D01*
X99052742Y-83248954D01*
X98864384Y-83326975D01*
X98694866Y-83440243D01*
X98650929Y-83484180D01*
X98068622Y-83484180D01*
X98031299Y-83480504D01*
X97993976Y-83484180D01*
X97993967Y-83484180D01*
X97882314Y-83495177D01*
X97739053Y-83538634D01*
X97607024Y-83609206D01*
X97607022Y-83609207D01*
X97607023Y-83609207D01*
X97520296Y-83680381D01*
X97520292Y-83680385D01*
X97491299Y-83704179D01*
X97467505Y-83733172D01*
X95374619Y-85826060D01*
X93936951Y-85826060D01*
X93893014Y-85782123D01*
X93723496Y-85668855D01*
X93535138Y-85590834D01*
X93335179Y-85551060D01*
X93131301Y-85551060D01*
X92931342Y-85590834D01*
X92742984Y-85668855D01*
X92573466Y-85782123D01*
X92429303Y-85926286D01*
X92316035Y-86095804D01*
X92238014Y-86284162D01*
X92198240Y-86484121D01*
X92198240Y-86687999D01*
X92238014Y-86887958D01*
X92316035Y-87076316D01*
X92429303Y-87245834D01*
X92573466Y-87389997D01*
X92742984Y-87503265D01*
X92931342Y-87581286D01*
X93131301Y-87621060D01*
X93335179Y-87621060D01*
X93535138Y-87581286D01*
X93723496Y-87503265D01*
X93893014Y-87389997D01*
X93936951Y-87346060D01*
X94575978Y-87346060D01*
X89058319Y-92863720D01*
X88996181Y-92863720D01*
X88796222Y-92903494D01*
X88607864Y-92981515D01*
X88438346Y-93094783D01*
X88294183Y-93238946D01*
X88180915Y-93408464D01*
X88102894Y-93596822D01*
X88085313Y-93685206D01*
X87946632Y-93546525D01*
X87772240Y-93430000D01*
X87946632Y-93313475D01*
X88153475Y-93106632D01*
X88315990Y-92863411D01*
X88427932Y-92593158D01*
X88485000Y-92306260D01*
X88485000Y-92013740D01*
X88427932Y-91726842D01*
X88315990Y-91456589D01*
X88153475Y-91213368D01*
X87946632Y-91006525D01*
X87772240Y-90890000D01*
X87946632Y-90773475D01*
X88153475Y-90566632D01*
X88315990Y-90323411D01*
X88427932Y-90053158D01*
X88485000Y-89766260D01*
X88485000Y-89473740D01*
X88427932Y-89186842D01*
X88315990Y-88916589D01*
X88153475Y-88673368D01*
X87946632Y-88466525D01*
X87772240Y-88350000D01*
X87946632Y-88233475D01*
X88153475Y-88026632D01*
X88315990Y-87783411D01*
X88427932Y-87513158D01*
X88485000Y-87226260D01*
X88485000Y-86933740D01*
X88427932Y-86646842D01*
X88315990Y-86376589D01*
X88153475Y-86133368D01*
X87946632Y-85926525D01*
X87772240Y-85810000D01*
X87946632Y-85693475D01*
X88153475Y-85486632D01*
X88315990Y-85243411D01*
X88427932Y-84973158D01*
X88485000Y-84686260D01*
X88485000Y-84393740D01*
X88427932Y-84106842D01*
X88315990Y-83836589D01*
X88153475Y-83593368D01*
X88021620Y-83461513D01*
X88094180Y-83439502D01*
X88204494Y-83380537D01*
X88301185Y-83301185D01*
X88380537Y-83204494D01*
X88439502Y-83094180D01*
X88475812Y-82974482D01*
X88488072Y-82850000D01*
X88488072Y-81150000D01*
X88475812Y-81025518D01*
X88439502Y-80905820D01*
X88380537Y-80795506D01*
X88301185Y-80698815D01*
X88204494Y-80619463D01*
X88094180Y-80560498D01*
X87974482Y-80524188D01*
X87850000Y-80511928D01*
X86150000Y-80511928D01*
X86025518Y-80524188D01*
X85905820Y-80560498D01*
X85795506Y-80619463D01*
X85698815Y-80698815D01*
X85660000Y-80746111D01*
X85660000Y-79032279D01*
X85669580Y-78934576D01*
X85688580Y-78871644D01*
X85719445Y-78813595D01*
X85760989Y-78762657D01*
X85811644Y-78720752D01*
X85869471Y-78689485D01*
X85932272Y-78670044D01*
X86027835Y-78660000D01*
X105967721Y-78660000D01*
X106065424Y-78669580D01*
G37*
%TD.AperFunction*%
D14*
X103511928Y-82850000D02*
X103524188Y-82974482D01*
X103560498Y-83094180D01*
X103619463Y-83204494D01*
X103698815Y-83301185D01*
X103795506Y-83380537D01*
X103905820Y-83439502D01*
X103978380Y-83461513D01*
X103846525Y-83593368D01*
X103684010Y-83836589D01*
X103572068Y-84106842D01*
X103542995Y-84253003D01*
X103351939Y-84215000D01*
X103148061Y-84215000D01*
X102948102Y-84254774D01*
X102759744Y-84332795D01*
X102590226Y-84446063D01*
X102446063Y-84590226D01*
X102372753Y-84699942D01*
X102360499Y-84709999D01*
X102336701Y-84738997D01*
X102095286Y-84980412D01*
X102007697Y-84849326D01*
X101863534Y-84705163D01*
X101694016Y-84591895D01*
X101505658Y-84513874D01*
X101305699Y-84474100D01*
X101299341Y-84474100D01*
X102734574Y-83038868D01*
X102763571Y-83015071D01*
X102858544Y-82899346D01*
X102887354Y-82845447D01*
X102972801Y-82760000D01*
X103511928Y-82760000D01*
X103511928Y-82850000D01*
%TA.AperFunction,Conductor*%
D15*
G36*
X103511928Y-82850000D02*
G01*
X103524188Y-82974482D01*
X103560498Y-83094180D01*
X103619463Y-83204494D01*
X103698815Y-83301185D01*
X103795506Y-83380537D01*
X103905820Y-83439502D01*
X103978380Y-83461513D01*
X103846525Y-83593368D01*
X103684010Y-83836589D01*
X103572068Y-84106842D01*
X103542995Y-84253003D01*
X103351939Y-84215000D01*
X103148061Y-84215000D01*
X102948102Y-84254774D01*
X102759744Y-84332795D01*
X102590226Y-84446063D01*
X102446063Y-84590226D01*
X102372753Y-84699942D01*
X102360499Y-84709999D01*
X102336701Y-84738997D01*
X102095286Y-84980412D01*
X102007697Y-84849326D01*
X101863534Y-84705163D01*
X101694016Y-84591895D01*
X101505658Y-84513874D01*
X101305699Y-84474100D01*
X101299341Y-84474100D01*
X102734574Y-83038868D01*
X102763571Y-83015071D01*
X102858544Y-82899346D01*
X102887354Y-82845447D01*
X102972801Y-82760000D01*
X103511928Y-82760000D01*
X103511928Y-82850000D01*
G37*
%TD.AperFunction*%
%TD*%
M02*
