%TF.GenerationSoftware,KiCad,Pcbnew,(5.1.10)-1*%
%TF.CreationDate,2021-10-19T17:14:30+03:00*%
%TF.ProjectId,msp,6d73702e-6b69-4636-9164-5f7063625858,rev?*%
%TF.SameCoordinates,Original*%
%TF.FileFunction,Legend,Top*%
%TF.FilePolarity,Positive*%
%FSLAX46Y46*%
G04 Gerber Fmt 4.6, Leading zero omitted, Abs format (unit mm)*
G04 Created by KiCad (PCBNEW (5.1.10)-1) date 2021-10-19 17:14:30*
%MOMM*%
%LPD*%
G01*
G04 APERTURE LIST*
%ADD10C,0.125000*%
%ADD11C,0.120000*%
G04 APERTURE END LIST*
D10*
X101602789Y-87306190D02*
X101602789Y-86806190D01*
X101793265Y-86806190D01*
X101840884Y-86830000D01*
X101864694Y-86853809D01*
X101888503Y-86901428D01*
X101888503Y-86972857D01*
X101864694Y-87020476D01*
X101840884Y-87044285D01*
X101793265Y-87068095D01*
X101602789Y-87068095D01*
X102078980Y-86853809D02*
X102102789Y-86830000D01*
X102150408Y-86806190D01*
X102269456Y-86806190D01*
X102317075Y-86830000D01*
X102340884Y-86853809D01*
X102364694Y-86901428D01*
X102364694Y-86949047D01*
X102340884Y-87020476D01*
X102055170Y-87306190D01*
X102364694Y-87306190D01*
X102578980Y-87258571D02*
X102602789Y-87282380D01*
X102578980Y-87306190D01*
X102555170Y-87282380D01*
X102578980Y-87258571D01*
X102578980Y-87306190D01*
X103031360Y-86806190D02*
X102936122Y-86806190D01*
X102888503Y-86830000D01*
X102864694Y-86853809D01*
X102817075Y-86925238D01*
X102793265Y-87020476D01*
X102793265Y-87210952D01*
X102817075Y-87258571D01*
X102840884Y-87282380D01*
X102888503Y-87306190D01*
X102983741Y-87306190D01*
X103031360Y-87282380D01*
X103055170Y-87258571D01*
X103078980Y-87210952D01*
X103078980Y-87091904D01*
X103055170Y-87044285D01*
X103031360Y-87020476D01*
X102983741Y-86996666D01*
X102888503Y-86996666D01*
X102840884Y-87020476D01*
X102817075Y-87044285D01*
X102793265Y-87091904D01*
X101567229Y-89846190D02*
X101567229Y-89346190D01*
X101757705Y-89346190D01*
X101805324Y-89370000D01*
X101829134Y-89393809D01*
X101852943Y-89441428D01*
X101852943Y-89512857D01*
X101829134Y-89560476D01*
X101805324Y-89584285D01*
X101757705Y-89608095D01*
X101567229Y-89608095D01*
X102043420Y-89393809D02*
X102067229Y-89370000D01*
X102114848Y-89346190D01*
X102233896Y-89346190D01*
X102281515Y-89370000D01*
X102305324Y-89393809D01*
X102329134Y-89441428D01*
X102329134Y-89489047D01*
X102305324Y-89560476D01*
X102019610Y-89846190D01*
X102329134Y-89846190D01*
X102543420Y-89798571D02*
X102567229Y-89822380D01*
X102543420Y-89846190D01*
X102519610Y-89822380D01*
X102543420Y-89798571D01*
X102543420Y-89846190D01*
X103019610Y-89346190D02*
X102781515Y-89346190D01*
X102757705Y-89584285D01*
X102781515Y-89560476D01*
X102829134Y-89536666D01*
X102948181Y-89536666D01*
X102995800Y-89560476D01*
X103019610Y-89584285D01*
X103043420Y-89631904D01*
X103043420Y-89750952D01*
X103019610Y-89798571D01*
X102995800Y-89822380D01*
X102948181Y-89846190D01*
X102829134Y-89846190D01*
X102781515Y-89822380D01*
X102757705Y-89798571D01*
X101585009Y-92386190D02*
X101585009Y-91886190D01*
X101775485Y-91886190D01*
X101823104Y-91910000D01*
X101846914Y-91933809D01*
X101870723Y-91981428D01*
X101870723Y-92052857D01*
X101846914Y-92100476D01*
X101823104Y-92124285D01*
X101775485Y-92148095D01*
X101585009Y-92148095D01*
X102061200Y-91933809D02*
X102085009Y-91910000D01*
X102132628Y-91886190D01*
X102251676Y-91886190D01*
X102299295Y-91910000D01*
X102323104Y-91933809D01*
X102346914Y-91981428D01*
X102346914Y-92029047D01*
X102323104Y-92100476D01*
X102037390Y-92386190D01*
X102346914Y-92386190D01*
X102561200Y-92338571D02*
X102585009Y-92362380D01*
X102561200Y-92386190D01*
X102537390Y-92362380D01*
X102561200Y-92338571D01*
X102561200Y-92386190D01*
X103013580Y-92052857D02*
X103013580Y-92386190D01*
X102894533Y-91862380D02*
X102775485Y-92219523D01*
X103085009Y-92219523D01*
X101602789Y-94926190D02*
X101602789Y-94426190D01*
X101793265Y-94426190D01*
X101840884Y-94450000D01*
X101864694Y-94473809D01*
X101888503Y-94521428D01*
X101888503Y-94592857D01*
X101864694Y-94640476D01*
X101840884Y-94664285D01*
X101793265Y-94688095D01*
X101602789Y-94688095D01*
X102078980Y-94473809D02*
X102102789Y-94450000D01*
X102150408Y-94426190D01*
X102269456Y-94426190D01*
X102317075Y-94450000D01*
X102340884Y-94473809D01*
X102364694Y-94521428D01*
X102364694Y-94569047D01*
X102340884Y-94640476D01*
X102055170Y-94926190D01*
X102364694Y-94926190D01*
X102578980Y-94878571D02*
X102602789Y-94902380D01*
X102578980Y-94926190D01*
X102555170Y-94902380D01*
X102578980Y-94878571D01*
X102578980Y-94926190D01*
X102769456Y-94426190D02*
X103078980Y-94426190D01*
X102912313Y-94616666D01*
X102983741Y-94616666D01*
X103031360Y-94640476D01*
X103055170Y-94664285D01*
X103078980Y-94711904D01*
X103078980Y-94830952D01*
X103055170Y-94878571D01*
X103031360Y-94902380D01*
X102983741Y-94926190D01*
X102840884Y-94926190D01*
X102793265Y-94902380D01*
X102769456Y-94878571D01*
X101582469Y-97466190D02*
X101582469Y-96966190D01*
X101772945Y-96966190D01*
X101820564Y-96990000D01*
X101844374Y-97013809D01*
X101868183Y-97061428D01*
X101868183Y-97132857D01*
X101844374Y-97180476D01*
X101820564Y-97204285D01*
X101772945Y-97228095D01*
X101582469Y-97228095D01*
X102058660Y-97013809D02*
X102082469Y-96990000D01*
X102130088Y-96966190D01*
X102249136Y-96966190D01*
X102296755Y-96990000D01*
X102320564Y-97013809D01*
X102344374Y-97061428D01*
X102344374Y-97109047D01*
X102320564Y-97180476D01*
X102034850Y-97466190D01*
X102344374Y-97466190D01*
X102558660Y-97418571D02*
X102582469Y-97442380D01*
X102558660Y-97466190D01*
X102534850Y-97442380D01*
X102558660Y-97418571D01*
X102558660Y-97466190D01*
X102772945Y-97013809D02*
X102796755Y-96990000D01*
X102844374Y-96966190D01*
X102963421Y-96966190D01*
X103011040Y-96990000D01*
X103034850Y-97013809D01*
X103058660Y-97061428D01*
X103058660Y-97109047D01*
X103034850Y-97180476D01*
X102749136Y-97466190D01*
X103058660Y-97466190D01*
X101585009Y-100006190D02*
X101585009Y-99506190D01*
X101775485Y-99506190D01*
X101823104Y-99530000D01*
X101846914Y-99553809D01*
X101870723Y-99601428D01*
X101870723Y-99672857D01*
X101846914Y-99720476D01*
X101823104Y-99744285D01*
X101775485Y-99768095D01*
X101585009Y-99768095D01*
X102061200Y-99553809D02*
X102085009Y-99530000D01*
X102132628Y-99506190D01*
X102251676Y-99506190D01*
X102299295Y-99530000D01*
X102323104Y-99553809D01*
X102346914Y-99601428D01*
X102346914Y-99649047D01*
X102323104Y-99720476D01*
X102037390Y-100006190D01*
X102346914Y-100006190D01*
X102561200Y-99958571D02*
X102585009Y-99982380D01*
X102561200Y-100006190D01*
X102537390Y-99982380D01*
X102561200Y-99958571D01*
X102561200Y-100006190D01*
X103061200Y-100006190D02*
X102775485Y-100006190D01*
X102918342Y-100006190D02*
X102918342Y-99506190D01*
X102870723Y-99577619D01*
X102823104Y-99625238D01*
X102775485Y-99649047D01*
X101564689Y-102546190D02*
X101564689Y-102046190D01*
X101755165Y-102046190D01*
X101802784Y-102070000D01*
X101826594Y-102093809D01*
X101850403Y-102141428D01*
X101850403Y-102212857D01*
X101826594Y-102260476D01*
X101802784Y-102284285D01*
X101755165Y-102308095D01*
X101564689Y-102308095D01*
X102040880Y-102093809D02*
X102064689Y-102070000D01*
X102112308Y-102046190D01*
X102231356Y-102046190D01*
X102278975Y-102070000D01*
X102302784Y-102093809D01*
X102326594Y-102141428D01*
X102326594Y-102189047D01*
X102302784Y-102260476D01*
X102017070Y-102546190D01*
X102326594Y-102546190D01*
X102540880Y-102498571D02*
X102564689Y-102522380D01*
X102540880Y-102546190D01*
X102517070Y-102522380D01*
X102540880Y-102498571D01*
X102540880Y-102546190D01*
X102874213Y-102046190D02*
X102921832Y-102046190D01*
X102969451Y-102070000D01*
X102993260Y-102093809D01*
X103017070Y-102141428D01*
X103040880Y-102236666D01*
X103040880Y-102355714D01*
X103017070Y-102450952D01*
X102993260Y-102498571D01*
X102969451Y-102522380D01*
X102921832Y-102546190D01*
X102874213Y-102546190D01*
X102826594Y-102522380D01*
X102802784Y-102498571D01*
X102778975Y-102450952D01*
X102755165Y-102355714D01*
X102755165Y-102236666D01*
X102778975Y-102141428D01*
X102802784Y-102093809D01*
X102826594Y-102070000D01*
X102874213Y-102046190D01*
X102009450Y-105086190D02*
X101842783Y-104848095D01*
X101723736Y-105086190D02*
X101723736Y-104586190D01*
X101914212Y-104586190D01*
X101961831Y-104610000D01*
X101985640Y-104633809D01*
X102009450Y-104681428D01*
X102009450Y-104752857D01*
X101985640Y-104800476D01*
X101961831Y-104824285D01*
X101914212Y-104848095D01*
X101723736Y-104848095D01*
X102199926Y-105062380D02*
X102271355Y-105086190D01*
X102390402Y-105086190D01*
X102438021Y-105062380D01*
X102461831Y-105038571D01*
X102485640Y-104990952D01*
X102485640Y-104943333D01*
X102461831Y-104895714D01*
X102438021Y-104871904D01*
X102390402Y-104848095D01*
X102295164Y-104824285D01*
X102247545Y-104800476D01*
X102223736Y-104776666D01*
X102199926Y-104729047D01*
X102199926Y-104681428D01*
X102223736Y-104633809D01*
X102247545Y-104610000D01*
X102295164Y-104586190D01*
X102414212Y-104586190D01*
X102485640Y-104610000D01*
X102628498Y-104586190D02*
X102914212Y-104586190D01*
X102771355Y-105086190D02*
X102771355Y-104586190D01*
X101612949Y-84766190D02*
X101612949Y-84266190D01*
X101803425Y-84266190D01*
X101851044Y-84290000D01*
X101874854Y-84313809D01*
X101898663Y-84361428D01*
X101898663Y-84432857D01*
X101874854Y-84480476D01*
X101851044Y-84504285D01*
X101803425Y-84528095D01*
X101612949Y-84528095D01*
X102089140Y-84313809D02*
X102112949Y-84290000D01*
X102160568Y-84266190D01*
X102279616Y-84266190D01*
X102327235Y-84290000D01*
X102351044Y-84313809D01*
X102374854Y-84361428D01*
X102374854Y-84409047D01*
X102351044Y-84480476D01*
X102065330Y-84766190D01*
X102374854Y-84766190D01*
X102589140Y-84718571D02*
X102612949Y-84742380D01*
X102589140Y-84766190D01*
X102565330Y-84742380D01*
X102589140Y-84718571D01*
X102589140Y-84766190D01*
X102779616Y-84266190D02*
X103112949Y-84266190D01*
X102898663Y-84766190D01*
X89245487Y-104610000D02*
X89197868Y-104586190D01*
X89126440Y-104586190D01*
X89055011Y-104610000D01*
X89007392Y-104657619D01*
X88983582Y-104705238D01*
X88959773Y-104800476D01*
X88959773Y-104871904D01*
X88983582Y-104967142D01*
X89007392Y-105014761D01*
X89055011Y-105062380D01*
X89126440Y-105086190D01*
X89174059Y-105086190D01*
X89245487Y-105062380D01*
X89269297Y-105038571D01*
X89269297Y-104871904D01*
X89174059Y-104871904D01*
X89483582Y-105086190D02*
X89483582Y-104586190D01*
X89769297Y-105086190D01*
X89769297Y-104586190D01*
X90007392Y-105086190D02*
X90007392Y-104586190D01*
X90126440Y-104586190D01*
X90197868Y-104610000D01*
X90245487Y-104657619D01*
X90269297Y-104705238D01*
X90293106Y-104800476D01*
X90293106Y-104871904D01*
X90269297Y-104967142D01*
X90245487Y-105014761D01*
X90197868Y-105062380D01*
X90126440Y-105086190D01*
X90007392Y-105086190D01*
X88951512Y-102046190D02*
X89261036Y-102046190D01*
X89094369Y-102236666D01*
X89165798Y-102236666D01*
X89213417Y-102260476D01*
X89237226Y-102284285D01*
X89261036Y-102331904D01*
X89261036Y-102450952D01*
X89237226Y-102498571D01*
X89213417Y-102522380D01*
X89165798Y-102546190D01*
X89022940Y-102546190D01*
X88975321Y-102522380D01*
X88951512Y-102498571D01*
X89403893Y-102046190D02*
X89570560Y-102546190D01*
X89737226Y-102046190D01*
X89856274Y-102046190D02*
X90165798Y-102046190D01*
X89999131Y-102236666D01*
X90070560Y-102236666D01*
X90118179Y-102260476D01*
X90141988Y-102284285D01*
X90165798Y-102331904D01*
X90165798Y-102450952D01*
X90141988Y-102498571D01*
X90118179Y-102522380D01*
X90070560Y-102546190D01*
X89927702Y-102546190D01*
X89880083Y-102522380D01*
X89856274Y-102498571D01*
X88885009Y-100006190D02*
X88885009Y-99506190D01*
X89075485Y-99506190D01*
X89123104Y-99530000D01*
X89146914Y-99553809D01*
X89170723Y-99601428D01*
X89170723Y-99672857D01*
X89146914Y-99720476D01*
X89123104Y-99744285D01*
X89075485Y-99768095D01*
X88885009Y-99768095D01*
X89646914Y-100006190D02*
X89361200Y-100006190D01*
X89504057Y-100006190D02*
X89504057Y-99506190D01*
X89456438Y-99577619D01*
X89408819Y-99625238D01*
X89361200Y-99649047D01*
X89861200Y-99958571D02*
X89885009Y-99982380D01*
X89861200Y-100006190D01*
X89837390Y-99982380D01*
X89861200Y-99958571D01*
X89861200Y-100006190D01*
X90051676Y-99506190D02*
X90385009Y-99506190D01*
X90170723Y-100006190D01*
X88874849Y-97466190D02*
X88874849Y-96966190D01*
X89065325Y-96966190D01*
X89112944Y-96990000D01*
X89136754Y-97013809D01*
X89160563Y-97061428D01*
X89160563Y-97132857D01*
X89136754Y-97180476D01*
X89112944Y-97204285D01*
X89065325Y-97228095D01*
X88874849Y-97228095D01*
X89636754Y-97466190D02*
X89351040Y-97466190D01*
X89493897Y-97466190D02*
X89493897Y-96966190D01*
X89446278Y-97037619D01*
X89398659Y-97085238D01*
X89351040Y-97109047D01*
X89851040Y-97418571D02*
X89874849Y-97442380D01*
X89851040Y-97466190D01*
X89827230Y-97442380D01*
X89851040Y-97418571D01*
X89851040Y-97466190D01*
X90303420Y-96966190D02*
X90208182Y-96966190D01*
X90160563Y-96990000D01*
X90136754Y-97013809D01*
X90089135Y-97085238D01*
X90065325Y-97180476D01*
X90065325Y-97370952D01*
X90089135Y-97418571D01*
X90112944Y-97442380D01*
X90160563Y-97466190D01*
X90255801Y-97466190D01*
X90303420Y-97442380D01*
X90327230Y-97418571D01*
X90351040Y-97370952D01*
X90351040Y-97251904D01*
X90327230Y-97204285D01*
X90303420Y-97180476D01*
X90255801Y-97156666D01*
X90160563Y-97156666D01*
X90112944Y-97180476D01*
X90089135Y-97204285D01*
X90065325Y-97251904D01*
X88874849Y-94926190D02*
X88874849Y-94426190D01*
X89065325Y-94426190D01*
X89112944Y-94450000D01*
X89136754Y-94473809D01*
X89160563Y-94521428D01*
X89160563Y-94592857D01*
X89136754Y-94640476D01*
X89112944Y-94664285D01*
X89065325Y-94688095D01*
X88874849Y-94688095D01*
X89636754Y-94926190D02*
X89351040Y-94926190D01*
X89493897Y-94926190D02*
X89493897Y-94426190D01*
X89446278Y-94497619D01*
X89398659Y-94545238D01*
X89351040Y-94569047D01*
X89851040Y-94878571D02*
X89874849Y-94902380D01*
X89851040Y-94926190D01*
X89827230Y-94902380D01*
X89851040Y-94878571D01*
X89851040Y-94926190D01*
X90327230Y-94426190D02*
X90089135Y-94426190D01*
X90065325Y-94664285D01*
X90089135Y-94640476D01*
X90136754Y-94616666D01*
X90255801Y-94616666D01*
X90303420Y-94640476D01*
X90327230Y-94664285D01*
X90351040Y-94711904D01*
X90351040Y-94830952D01*
X90327230Y-94878571D01*
X90303420Y-94902380D01*
X90255801Y-94926190D01*
X90136754Y-94926190D01*
X90089135Y-94902380D01*
X90065325Y-94878571D01*
X88874849Y-92386190D02*
X88874849Y-91886190D01*
X89065325Y-91886190D01*
X89112944Y-91910000D01*
X89136754Y-91933809D01*
X89160563Y-91981428D01*
X89160563Y-92052857D01*
X89136754Y-92100476D01*
X89112944Y-92124285D01*
X89065325Y-92148095D01*
X88874849Y-92148095D01*
X89636754Y-92386190D02*
X89351040Y-92386190D01*
X89493897Y-92386190D02*
X89493897Y-91886190D01*
X89446278Y-91957619D01*
X89398659Y-92005238D01*
X89351040Y-92029047D01*
X89851040Y-92338571D02*
X89874849Y-92362380D01*
X89851040Y-92386190D01*
X89827230Y-92362380D01*
X89851040Y-92338571D01*
X89851040Y-92386190D01*
X90303420Y-92052857D02*
X90303420Y-92386190D01*
X90184373Y-91862380D02*
X90065325Y-92219523D01*
X90374849Y-92219523D01*
X88864689Y-89846190D02*
X88864689Y-89346190D01*
X89055165Y-89346190D01*
X89102784Y-89370000D01*
X89126594Y-89393809D01*
X89150403Y-89441428D01*
X89150403Y-89512857D01*
X89126594Y-89560476D01*
X89102784Y-89584285D01*
X89055165Y-89608095D01*
X88864689Y-89608095D01*
X89626594Y-89846190D02*
X89340880Y-89846190D01*
X89483737Y-89846190D02*
X89483737Y-89346190D01*
X89436118Y-89417619D01*
X89388499Y-89465238D01*
X89340880Y-89489047D01*
X89840880Y-89798571D02*
X89864689Y-89822380D01*
X89840880Y-89846190D01*
X89817070Y-89822380D01*
X89840880Y-89798571D01*
X89840880Y-89846190D01*
X90031356Y-89346190D02*
X90340880Y-89346190D01*
X90174213Y-89536666D01*
X90245641Y-89536666D01*
X90293260Y-89560476D01*
X90317070Y-89584285D01*
X90340880Y-89631904D01*
X90340880Y-89750952D01*
X90317070Y-89798571D01*
X90293260Y-89822380D01*
X90245641Y-89846190D01*
X90102784Y-89846190D01*
X90055165Y-89822380D01*
X90031356Y-89798571D01*
X88864689Y-87306190D02*
X88864689Y-86806190D01*
X89055165Y-86806190D01*
X89102784Y-86830000D01*
X89126594Y-86853809D01*
X89150403Y-86901428D01*
X89150403Y-86972857D01*
X89126594Y-87020476D01*
X89102784Y-87044285D01*
X89055165Y-87068095D01*
X88864689Y-87068095D01*
X89626594Y-87306190D02*
X89340880Y-87306190D01*
X89483737Y-87306190D02*
X89483737Y-86806190D01*
X89436118Y-86877619D01*
X89388499Y-86925238D01*
X89340880Y-86949047D01*
X89840880Y-87258571D02*
X89864689Y-87282380D01*
X89840880Y-87306190D01*
X89817070Y-87282380D01*
X89840880Y-87258571D01*
X89840880Y-87306190D01*
X90055165Y-86853809D02*
X90078975Y-86830000D01*
X90126594Y-86806190D01*
X90245641Y-86806190D01*
X90293260Y-86830000D01*
X90317070Y-86853809D01*
X90340880Y-86901428D01*
X90340880Y-86949047D01*
X90317070Y-87020476D01*
X90031356Y-87306190D01*
X90340880Y-87306190D01*
X88864689Y-84766190D02*
X88864689Y-84266190D01*
X89055165Y-84266190D01*
X89102784Y-84290000D01*
X89126594Y-84313809D01*
X89150403Y-84361428D01*
X89150403Y-84432857D01*
X89126594Y-84480476D01*
X89102784Y-84504285D01*
X89055165Y-84528095D01*
X88864689Y-84528095D01*
X89626594Y-84766190D02*
X89340880Y-84766190D01*
X89483737Y-84766190D02*
X89483737Y-84266190D01*
X89436118Y-84337619D01*
X89388499Y-84385238D01*
X89340880Y-84409047D01*
X89840880Y-84718571D02*
X89864689Y-84742380D01*
X89840880Y-84766190D01*
X89817070Y-84742380D01*
X89840880Y-84718571D01*
X89840880Y-84766190D01*
X90340880Y-84766190D02*
X90055165Y-84766190D01*
X90198022Y-84766190D02*
X90198022Y-84266190D01*
X90150403Y-84337619D01*
X90102784Y-84385238D01*
X90055165Y-84409047D01*
X88846909Y-82226190D02*
X88846909Y-81726190D01*
X89037385Y-81726190D01*
X89085004Y-81750000D01*
X89108814Y-81773809D01*
X89132623Y-81821428D01*
X89132623Y-81892857D01*
X89108814Y-81940476D01*
X89085004Y-81964285D01*
X89037385Y-81988095D01*
X88846909Y-81988095D01*
X89608814Y-82226190D02*
X89323100Y-82226190D01*
X89465957Y-82226190D02*
X89465957Y-81726190D01*
X89418338Y-81797619D01*
X89370719Y-81845238D01*
X89323100Y-81869047D01*
X89823100Y-82178571D02*
X89846909Y-82202380D01*
X89823100Y-82226190D01*
X89799290Y-82202380D01*
X89823100Y-82178571D01*
X89823100Y-82226190D01*
X90156433Y-81726190D02*
X90204052Y-81726190D01*
X90251671Y-81750000D01*
X90275480Y-81773809D01*
X90299290Y-81821428D01*
X90323100Y-81916666D01*
X90323100Y-82035714D01*
X90299290Y-82130952D01*
X90275480Y-82178571D01*
X90251671Y-82202380D01*
X90204052Y-82226190D01*
X90156433Y-82226190D01*
X90108814Y-82202380D01*
X90085004Y-82178571D01*
X90061195Y-82130952D01*
X90037385Y-82035714D01*
X90037385Y-81916666D01*
X90061195Y-81821428D01*
X90085004Y-81773809D01*
X90108814Y-81750000D01*
X90156433Y-81726190D01*
X102556321Y-81726190D02*
X102318226Y-81726190D01*
X102294417Y-81964285D01*
X102318226Y-81940476D01*
X102365845Y-81916666D01*
X102484893Y-81916666D01*
X102532512Y-81940476D01*
X102556321Y-81964285D01*
X102580131Y-82011904D01*
X102580131Y-82130952D01*
X102556321Y-82178571D01*
X102532512Y-82202380D01*
X102484893Y-82226190D01*
X102365845Y-82226190D01*
X102318226Y-82202380D01*
X102294417Y-82178571D01*
X102722988Y-81726190D02*
X102889655Y-82226190D01*
X103056321Y-81726190D01*
X102605970Y-113474250D02*
X102367875Y-113640917D01*
X102605970Y-113759964D02*
X102105970Y-113759964D01*
X102105970Y-113569488D01*
X102129780Y-113521869D01*
X102153589Y-113498060D01*
X102201208Y-113474250D01*
X102272637Y-113474250D01*
X102320256Y-113498060D01*
X102344065Y-113521869D01*
X102367875Y-113569488D01*
X102367875Y-113759964D01*
X102344065Y-113259964D02*
X102344065Y-113093298D01*
X102605970Y-113021869D02*
X102605970Y-113259964D01*
X102105970Y-113259964D01*
X102105970Y-113021869D01*
X102582160Y-112831393D02*
X102605970Y-112759964D01*
X102605970Y-112640917D01*
X102582160Y-112593298D01*
X102558351Y-112569488D01*
X102510732Y-112545679D01*
X102463113Y-112545679D01*
X102415494Y-112569488D01*
X102391684Y-112593298D01*
X102367875Y-112640917D01*
X102344065Y-112736155D01*
X102320256Y-112783774D01*
X102296446Y-112807583D01*
X102248827Y-112831393D01*
X102201208Y-112831393D01*
X102153589Y-112807583D01*
X102129780Y-112783774D01*
X102105970Y-112736155D01*
X102105970Y-112617107D01*
X102129780Y-112545679D01*
X102344065Y-112331393D02*
X102344065Y-112164726D01*
X102605970Y-112093298D02*
X102605970Y-112331393D01*
X102105970Y-112331393D01*
X102105970Y-112093298D01*
X102105970Y-111950440D02*
X102105970Y-111664726D01*
X102605970Y-111807583D02*
X102105970Y-111807583D01*
X99565970Y-113604099D02*
X99565970Y-113318384D01*
X100065970Y-113461241D02*
X99565970Y-113461241D01*
X99804065Y-113151718D02*
X99804065Y-112985051D01*
X100065970Y-112913622D02*
X100065970Y-113151718D01*
X99565970Y-113151718D01*
X99565970Y-112913622D01*
X100042160Y-112723146D02*
X100065970Y-112651718D01*
X100065970Y-112532670D01*
X100042160Y-112485051D01*
X100018351Y-112461241D01*
X99970732Y-112437432D01*
X99923113Y-112437432D01*
X99875494Y-112461241D01*
X99851684Y-112485051D01*
X99827875Y-112532670D01*
X99804065Y-112627908D01*
X99780256Y-112675527D01*
X99756446Y-112699337D01*
X99708827Y-112723146D01*
X99661208Y-112723146D01*
X99613589Y-112699337D01*
X99589780Y-112675527D01*
X99565970Y-112627908D01*
X99565970Y-112508860D01*
X99589780Y-112437432D01*
X99565970Y-112294575D02*
X99565970Y-112008860D01*
X100065970Y-112151718D02*
X99565970Y-112151718D01*
X94509780Y-113342372D02*
X94485970Y-113389991D01*
X94485970Y-113461420D01*
X94509780Y-113532848D01*
X94557399Y-113580467D01*
X94605018Y-113604277D01*
X94700256Y-113628086D01*
X94771684Y-113628086D01*
X94866922Y-113604277D01*
X94914541Y-113580467D01*
X94962160Y-113532848D01*
X94985970Y-113461420D01*
X94985970Y-113413800D01*
X94962160Y-113342372D01*
X94938351Y-113318562D01*
X94771684Y-113318562D01*
X94771684Y-113413800D01*
X94985970Y-113104277D02*
X94485970Y-113104277D01*
X94985970Y-112818562D01*
X94485970Y-112818562D01*
X94985970Y-112580467D02*
X94485970Y-112580467D01*
X94485970Y-112461420D01*
X94509780Y-112389991D01*
X94557399Y-112342372D01*
X94605018Y-112318562D01*
X94700256Y-112294753D01*
X94771684Y-112294753D01*
X94866922Y-112318562D01*
X94914541Y-112342372D01*
X94962160Y-112389991D01*
X94985970Y-112461420D01*
X94985970Y-112580467D01*
X97025970Y-113603327D02*
X97025970Y-113293803D01*
X97216446Y-113460470D01*
X97216446Y-113389041D01*
X97240256Y-113341422D01*
X97264065Y-113317613D01*
X97311684Y-113293803D01*
X97430732Y-113293803D01*
X97478351Y-113317613D01*
X97502160Y-113341422D01*
X97525970Y-113389041D01*
X97525970Y-113531899D01*
X97502160Y-113579518D01*
X97478351Y-113603327D01*
X97025970Y-113150946D02*
X97525970Y-112984280D01*
X97025970Y-112817613D01*
X97025970Y-112698565D02*
X97025970Y-112389041D01*
X97216446Y-112555708D01*
X97216446Y-112484280D01*
X97240256Y-112436660D01*
X97264065Y-112412851D01*
X97311684Y-112389041D01*
X97430732Y-112389041D01*
X97478351Y-112412851D01*
X97502160Y-112436660D01*
X97525970Y-112484280D01*
X97525970Y-112627137D01*
X97502160Y-112674756D01*
X97478351Y-112698565D01*
D11*
%TO.C,C1*%
X101783820Y-81717248D02*
X101783820Y-82239752D01*
X100313820Y-81717248D02*
X100313820Y-82239752D01*
%TO.C,C2*%
X92479800Y-82100052D02*
X92479800Y-81577548D01*
X91009800Y-82100052D02*
X91009800Y-81577548D01*
%TO.C,C3*%
X90865020Y-86060648D02*
X90865020Y-86583152D01*
X92335020Y-86060648D02*
X92335020Y-86583152D01*
%TO.C,C4*%
X100286452Y-103899640D02*
X99763948Y-103899640D01*
X100286452Y-102429640D02*
X99763948Y-102429640D01*
%TO.C,C5*%
X103523720Y-107284152D02*
X103523720Y-106761648D01*
X102053720Y-107284152D02*
X102053720Y-106761648D01*
%TO.C,J1*%
X93429780Y-115671600D02*
X93429780Y-114341600D01*
X93429780Y-114341600D02*
X94759780Y-114341600D01*
X96029780Y-114341600D02*
X103709780Y-114341600D01*
X103709780Y-117001600D02*
X103709780Y-114341600D01*
X96029780Y-117001600D02*
X103709780Y-117001600D01*
X96029780Y-117001600D02*
X96029780Y-114341600D01*
%TO.C,J2*%
X105000000Y-80670000D02*
X106330000Y-80670000D01*
X106330000Y-80670000D02*
X106330000Y-82000000D01*
X106330000Y-83270000D02*
X106330000Y-106190000D01*
X103670000Y-106190000D02*
X106330000Y-106190000D01*
X103670000Y-83270000D02*
X103670000Y-106190000D01*
X103670000Y-83270000D02*
X106330000Y-83270000D01*
%TO.C,J3*%
X85670000Y-83270000D02*
X88330000Y-83270000D01*
X85670000Y-83270000D02*
X85670000Y-106190000D01*
X85670000Y-106190000D02*
X88330000Y-106190000D01*
X88330000Y-83270000D02*
X88330000Y-106190000D01*
X88330000Y-80670000D02*
X88330000Y-82000000D01*
X87000000Y-80670000D02*
X88330000Y-80670000D01*
%TO.C,R1*%
X98474200Y-86485464D02*
X98474200Y-86031336D01*
X97004200Y-86485464D02*
X97004200Y-86031336D01*
%TO.C,R2*%
X94108600Y-86536264D02*
X94108600Y-86082136D01*
X95578600Y-86536264D02*
X95578600Y-86082136D01*
%TO.C,R3*%
X103572044Y-110981160D02*
X103117916Y-110981160D01*
X103572044Y-109511160D02*
X103117916Y-109511160D01*
%TO.C,R4*%
X99744796Y-98580880D02*
X100198924Y-98580880D01*
X99744796Y-97110880D02*
X100198924Y-97110880D01*
%TO.C,R5*%
X93381564Y-97187080D02*
X92927436Y-97187080D01*
X93381564Y-98657080D02*
X92927436Y-98657080D01*
%TO.C,U2*%
X101036560Y-111326980D02*
X95026560Y-111326980D01*
X98786560Y-104506980D02*
X95026560Y-104506980D01*
X95026560Y-111326980D02*
X95026560Y-110066980D01*
X95026560Y-104506980D02*
X95026560Y-105766980D01*
%TO.C,D1*%
X106199820Y-114641340D02*
X106199820Y-111956340D01*
X104279820Y-114641340D02*
X106199820Y-114641340D01*
X104279820Y-111956340D02*
X104279820Y-114641340D01*
%TO.C,D2*%
X94294200Y-99568120D02*
X91609200Y-99568120D01*
X91609200Y-99568120D02*
X91609200Y-101488120D01*
X91609200Y-101488120D02*
X94294200Y-101488120D01*
%TO.C,C6*%
X99804588Y-101237720D02*
X100327092Y-101237720D01*
X99804588Y-99767720D02*
X100327092Y-99767720D01*
%TO.C,SW1*%
X92358600Y-114918880D02*
X92358600Y-108458880D01*
X87828600Y-114918880D02*
X90428600Y-114918880D01*
X85898600Y-114918880D02*
X85898600Y-108458880D01*
X87828600Y-108458880D02*
X90428600Y-108458880D01*
X85928600Y-114918880D02*
X85898600Y-114918880D01*
X92358600Y-114918880D02*
X92328600Y-114918880D01*
X92358600Y-108458880D02*
X92328600Y-108458880D01*
X85898600Y-108458880D02*
X85928600Y-108458880D01*
%TO.C,Y1*%
X98217740Y-80171020D02*
X94217740Y-80171020D01*
X98217740Y-83471020D02*
X98217740Y-80171020D01*
%TO.C,U1*%
X96250000Y-96135000D02*
X98450000Y-96135000D01*
X96250000Y-96135000D02*
X94050000Y-96135000D01*
X96250000Y-89365000D02*
X98450000Y-89365000D01*
X96250000Y-89365000D02*
X92650000Y-89365000D01*
%TO.C,C1*%
D10*
X100919766Y-79873611D02*
X100895957Y-79897420D01*
X100824528Y-79921230D01*
X100776909Y-79921230D01*
X100705480Y-79897420D01*
X100657861Y-79849801D01*
X100634052Y-79802182D01*
X100610242Y-79706944D01*
X100610242Y-79635516D01*
X100634052Y-79540278D01*
X100657861Y-79492659D01*
X100705480Y-79445040D01*
X100776909Y-79421230D01*
X100824528Y-79421230D01*
X100895957Y-79445040D01*
X100919766Y-79468849D01*
X101395957Y-79921230D02*
X101110242Y-79921230D01*
X101253100Y-79921230D02*
X101253100Y-79421230D01*
X101205480Y-79492659D01*
X101157861Y-79540278D01*
X101110242Y-79564087D01*
%TO.C,C2*%
X91562406Y-79685651D02*
X91538597Y-79709460D01*
X91467168Y-79733270D01*
X91419549Y-79733270D01*
X91348120Y-79709460D01*
X91300501Y-79661841D01*
X91276692Y-79614222D01*
X91252882Y-79518984D01*
X91252882Y-79447556D01*
X91276692Y-79352318D01*
X91300501Y-79304699D01*
X91348120Y-79257080D01*
X91419549Y-79233270D01*
X91467168Y-79233270D01*
X91538597Y-79257080D01*
X91562406Y-79280889D01*
X91752882Y-79280889D02*
X91776692Y-79257080D01*
X91824311Y-79233270D01*
X91943359Y-79233270D01*
X91990978Y-79257080D01*
X92014787Y-79280889D01*
X92038597Y-79328508D01*
X92038597Y-79376127D01*
X92014787Y-79447556D01*
X91729073Y-79733270D01*
X92038597Y-79733270D01*
%TO.C,C3*%
X91416666Y-88678571D02*
X91392857Y-88702380D01*
X91321428Y-88726190D01*
X91273809Y-88726190D01*
X91202380Y-88702380D01*
X91154761Y-88654761D01*
X91130952Y-88607142D01*
X91107142Y-88511904D01*
X91107142Y-88440476D01*
X91130952Y-88345238D01*
X91154761Y-88297619D01*
X91202380Y-88250000D01*
X91273809Y-88226190D01*
X91321428Y-88226190D01*
X91392857Y-88250000D01*
X91416666Y-88273809D01*
X91583333Y-88226190D02*
X91892857Y-88226190D01*
X91726190Y-88416666D01*
X91797619Y-88416666D01*
X91845238Y-88440476D01*
X91869047Y-88464285D01*
X91892857Y-88511904D01*
X91892857Y-88630952D01*
X91869047Y-88678571D01*
X91845238Y-88702380D01*
X91797619Y-88726190D01*
X91654761Y-88726190D01*
X91607142Y-88702380D01*
X91583333Y-88678571D01*
%TO.C,C4*%
X97859351Y-103369893D02*
X97883160Y-103393702D01*
X97906970Y-103465131D01*
X97906970Y-103512750D01*
X97883160Y-103584179D01*
X97835541Y-103631798D01*
X97787922Y-103655607D01*
X97692684Y-103679417D01*
X97621256Y-103679417D01*
X97526018Y-103655607D01*
X97478399Y-103631798D01*
X97430780Y-103584179D01*
X97406970Y-103512750D01*
X97406970Y-103465131D01*
X97430780Y-103393702D01*
X97454589Y-103369893D01*
X97573637Y-102941321D02*
X97906970Y-102941321D01*
X97383160Y-103060369D02*
X97740303Y-103179417D01*
X97740303Y-102869893D01*
%TO.C,C5*%
X104407471Y-107428813D02*
X104431280Y-107452622D01*
X104455090Y-107524051D01*
X104455090Y-107571670D01*
X104431280Y-107643099D01*
X104383661Y-107690718D01*
X104336042Y-107714527D01*
X104240804Y-107738337D01*
X104169376Y-107738337D01*
X104074138Y-107714527D01*
X104026519Y-107690718D01*
X103978900Y-107643099D01*
X103955090Y-107571670D01*
X103955090Y-107524051D01*
X103978900Y-107452622D01*
X104002709Y-107428813D01*
X103955090Y-106976432D02*
X103955090Y-107214527D01*
X104193185Y-107238337D01*
X104169376Y-107214527D01*
X104145566Y-107166908D01*
X104145566Y-107047860D01*
X104169376Y-107000241D01*
X104193185Y-106976432D01*
X104240804Y-106952622D01*
X104359852Y-106952622D01*
X104407471Y-106976432D01*
X104431280Y-107000241D01*
X104455090Y-107047860D01*
X104455090Y-107166908D01*
X104431280Y-107214527D01*
X104407471Y-107238337D01*
%TO.C,J1*%
X92674950Y-116117666D02*
X93032093Y-116117666D01*
X93103521Y-116141476D01*
X93151140Y-116189095D01*
X93174950Y-116260523D01*
X93174950Y-116308142D01*
X93174950Y-115617666D02*
X93174950Y-115903380D01*
X93174950Y-115760523D02*
X92674950Y-115760523D01*
X92746379Y-115808142D01*
X92793998Y-115855761D01*
X92817807Y-115903380D01*
%TO.C,J2*%
X104839473Y-79342490D02*
X104839473Y-79699633D01*
X104815663Y-79771061D01*
X104768044Y-79818680D01*
X104696616Y-79842490D01*
X104648997Y-79842490D01*
X105053759Y-79390109D02*
X105077568Y-79366300D01*
X105125187Y-79342490D01*
X105244235Y-79342490D01*
X105291854Y-79366300D01*
X105315663Y-79390109D01*
X105339473Y-79437728D01*
X105339473Y-79485347D01*
X105315663Y-79556776D01*
X105029949Y-79842490D01*
X105339473Y-79842490D01*
%TO.C,J3*%
X86706413Y-79343670D02*
X86706413Y-79700813D01*
X86682603Y-79772241D01*
X86634984Y-79819860D01*
X86563556Y-79843670D01*
X86515937Y-79843670D01*
X86896889Y-79343670D02*
X87206413Y-79343670D01*
X87039746Y-79534146D01*
X87111175Y-79534146D01*
X87158794Y-79557956D01*
X87182603Y-79581765D01*
X87206413Y-79629384D01*
X87206413Y-79748432D01*
X87182603Y-79796051D01*
X87158794Y-79819860D01*
X87111175Y-79843670D01*
X86968318Y-79843670D01*
X86920699Y-79819860D01*
X86896889Y-79796051D01*
%TO.C,R1*%
X97666666Y-88726190D02*
X97500000Y-88488095D01*
X97380952Y-88726190D02*
X97380952Y-88226190D01*
X97571428Y-88226190D01*
X97619047Y-88250000D01*
X97642857Y-88273809D01*
X97666666Y-88321428D01*
X97666666Y-88392857D01*
X97642857Y-88440476D01*
X97619047Y-88464285D01*
X97571428Y-88488095D01*
X97380952Y-88488095D01*
X98142857Y-88726190D02*
X97857142Y-88726190D01*
X98000000Y-88726190D02*
X98000000Y-88226190D01*
X97952380Y-88297619D01*
X97904761Y-88345238D01*
X97857142Y-88369047D01*
%TO.C,R2*%
X94666666Y-88726190D02*
X94500000Y-88488095D01*
X94380952Y-88726190D02*
X94380952Y-88226190D01*
X94571428Y-88226190D01*
X94619047Y-88250000D01*
X94642857Y-88273809D01*
X94666666Y-88321428D01*
X94666666Y-88392857D01*
X94642857Y-88440476D01*
X94619047Y-88464285D01*
X94571428Y-88488095D01*
X94380952Y-88488095D01*
X94857142Y-88273809D02*
X94880952Y-88250000D01*
X94928571Y-88226190D01*
X95047619Y-88226190D01*
X95095238Y-88250000D01*
X95119047Y-88273809D01*
X95142857Y-88321428D01*
X95142857Y-88369047D01*
X95119047Y-88440476D01*
X94833333Y-88726190D01*
X95142857Y-88726190D01*
%TO.C,R3*%
X105651430Y-110329493D02*
X105413335Y-110496160D01*
X105651430Y-110615207D02*
X105151430Y-110615207D01*
X105151430Y-110424731D01*
X105175240Y-110377112D01*
X105199049Y-110353302D01*
X105246668Y-110329493D01*
X105318097Y-110329493D01*
X105365716Y-110353302D01*
X105389525Y-110377112D01*
X105413335Y-110424731D01*
X105413335Y-110615207D01*
X105151430Y-110162826D02*
X105151430Y-109853302D01*
X105341906Y-110019969D01*
X105341906Y-109948540D01*
X105365716Y-109900921D01*
X105389525Y-109877112D01*
X105437144Y-109853302D01*
X105556192Y-109853302D01*
X105603811Y-109877112D01*
X105627620Y-109900921D01*
X105651430Y-109948540D01*
X105651430Y-110091398D01*
X105627620Y-110139017D01*
X105603811Y-110162826D01*
%TO.C,R4*%
X97932370Y-97985093D02*
X97694275Y-98151760D01*
X97932370Y-98270807D02*
X97432370Y-98270807D01*
X97432370Y-98080331D01*
X97456180Y-98032712D01*
X97479989Y-98008902D01*
X97527608Y-97985093D01*
X97599037Y-97985093D01*
X97646656Y-98008902D01*
X97670465Y-98032712D01*
X97694275Y-98080331D01*
X97694275Y-98270807D01*
X97599037Y-97556521D02*
X97932370Y-97556521D01*
X97408560Y-97675569D02*
X97765703Y-97794617D01*
X97765703Y-97485093D01*
%TO.C,R5*%
X95726190Y-97985093D02*
X95488095Y-98151760D01*
X95726190Y-98270807D02*
X95226190Y-98270807D01*
X95226190Y-98080331D01*
X95250000Y-98032712D01*
X95273809Y-98008902D01*
X95321428Y-97985093D01*
X95392857Y-97985093D01*
X95440476Y-98008902D01*
X95464285Y-98032712D01*
X95488095Y-98080331D01*
X95488095Y-98270807D01*
X95226190Y-97532712D02*
X95226190Y-97770807D01*
X95464285Y-97794617D01*
X95440476Y-97770807D01*
X95416666Y-97723188D01*
X95416666Y-97604140D01*
X95440476Y-97556521D01*
X95464285Y-97532712D01*
X95511904Y-97508902D01*
X95630952Y-97508902D01*
X95678571Y-97532712D01*
X95702380Y-97556521D01*
X95726190Y-97604140D01*
X95726190Y-97723188D01*
X95702380Y-97770807D01*
X95678571Y-97794617D01*
%TO.C,U2*%
X93348050Y-105404872D02*
X93752812Y-105404872D01*
X93800431Y-105381062D01*
X93824240Y-105357253D01*
X93848050Y-105309634D01*
X93848050Y-105214396D01*
X93824240Y-105166777D01*
X93800431Y-105142967D01*
X93752812Y-105119158D01*
X93348050Y-105119158D01*
X93395669Y-104904872D02*
X93371860Y-104881062D01*
X93348050Y-104833443D01*
X93348050Y-104714396D01*
X93371860Y-104666777D01*
X93395669Y-104642967D01*
X93443288Y-104619158D01*
X93490907Y-104619158D01*
X93562336Y-104642967D01*
X93848050Y-104928681D01*
X93848050Y-104619158D01*
%TO.C,D1*%
X104870772Y-115615850D02*
X104870772Y-115115850D01*
X104989820Y-115115850D01*
X105061248Y-115139660D01*
X105108867Y-115187279D01*
X105132677Y-115234898D01*
X105156486Y-115330136D01*
X105156486Y-115401564D01*
X105132677Y-115496802D01*
X105108867Y-115544421D01*
X105061248Y-115592040D01*
X104989820Y-115615850D01*
X104870772Y-115615850D01*
X105632677Y-115615850D02*
X105346962Y-115615850D01*
X105489820Y-115615850D02*
X105489820Y-115115850D01*
X105442200Y-115187279D01*
X105394581Y-115234898D01*
X105346962Y-115258707D01*
%TO.C,D2*%
X95726190Y-100871767D02*
X95226190Y-100871767D01*
X95226190Y-100752720D01*
X95250000Y-100681291D01*
X95297619Y-100633672D01*
X95345238Y-100609862D01*
X95440476Y-100586053D01*
X95511904Y-100586053D01*
X95607142Y-100609862D01*
X95654761Y-100633672D01*
X95702380Y-100681291D01*
X95726190Y-100752720D01*
X95726190Y-100871767D01*
X95273809Y-100395577D02*
X95250000Y-100371767D01*
X95226190Y-100324148D01*
X95226190Y-100205100D01*
X95250000Y-100157481D01*
X95273809Y-100133672D01*
X95321428Y-100109862D01*
X95369047Y-100109862D01*
X95440476Y-100133672D01*
X95726190Y-100419386D01*
X95726190Y-100109862D01*
%TO.C,C6*%
X97899991Y-100471753D02*
X97923800Y-100495562D01*
X97947610Y-100566991D01*
X97947610Y-100614610D01*
X97923800Y-100686039D01*
X97876181Y-100733658D01*
X97828562Y-100757467D01*
X97733324Y-100781277D01*
X97661896Y-100781277D01*
X97566658Y-100757467D01*
X97519039Y-100733658D01*
X97471420Y-100686039D01*
X97447610Y-100614610D01*
X97447610Y-100566991D01*
X97471420Y-100495562D01*
X97495229Y-100471753D01*
X97447610Y-100043181D02*
X97447610Y-100138420D01*
X97471420Y-100186039D01*
X97495229Y-100209848D01*
X97566658Y-100257467D01*
X97661896Y-100281277D01*
X97852372Y-100281277D01*
X97899991Y-100257467D01*
X97923800Y-100233658D01*
X97947610Y-100186039D01*
X97947610Y-100090800D01*
X97923800Y-100043181D01*
X97899991Y-100019372D01*
X97852372Y-99995562D01*
X97733324Y-99995562D01*
X97685705Y-100019372D01*
X97661896Y-100043181D01*
X97638086Y-100090800D01*
X97638086Y-100186039D01*
X97661896Y-100233658D01*
X97685705Y-100257467D01*
X97733324Y-100281277D01*
%TO.C,SW1*%
X88507653Y-107570720D02*
X88579081Y-107594530D01*
X88698129Y-107594530D01*
X88745748Y-107570720D01*
X88769558Y-107546911D01*
X88793367Y-107499292D01*
X88793367Y-107451673D01*
X88769558Y-107404054D01*
X88745748Y-107380244D01*
X88698129Y-107356435D01*
X88602891Y-107332625D01*
X88555272Y-107308816D01*
X88531462Y-107285006D01*
X88507653Y-107237387D01*
X88507653Y-107189768D01*
X88531462Y-107142149D01*
X88555272Y-107118340D01*
X88602891Y-107094530D01*
X88721939Y-107094530D01*
X88793367Y-107118340D01*
X88960034Y-107094530D02*
X89079081Y-107594530D01*
X89174320Y-107237387D01*
X89269558Y-107594530D01*
X89388605Y-107094530D01*
X89840986Y-107594530D02*
X89555272Y-107594530D01*
X89698129Y-107594530D02*
X89698129Y-107094530D01*
X89650510Y-107165959D01*
X89602891Y-107213578D01*
X89555272Y-107237387D01*
%TO.C,Y1*%
X95979644Y-79495175D02*
X95979644Y-79733270D01*
X95812978Y-79233270D02*
X95979644Y-79495175D01*
X96146311Y-79233270D01*
X96574882Y-79733270D02*
X96289168Y-79733270D01*
X96432025Y-79733270D02*
X96432025Y-79233270D01*
X96384406Y-79304699D01*
X96336787Y-79352318D01*
X96289168Y-79376127D01*
%TO.C,U1*%
X95935847Y-96517970D02*
X95935847Y-96922732D01*
X95959657Y-96970351D01*
X95983466Y-96994160D01*
X96031085Y-97017970D01*
X96126323Y-97017970D01*
X96173942Y-96994160D01*
X96197752Y-96970351D01*
X96221561Y-96922732D01*
X96221561Y-96517970D01*
X96721561Y-97017970D02*
X96435847Y-97017970D01*
X96578704Y-97017970D02*
X96578704Y-96517970D01*
X96531085Y-96589399D01*
X96483466Y-96637018D01*
X96435847Y-96660827D01*
%TD*%
M02*
